<?xml version="1.0" encoding="utf-8"?>
<!-- Generator: Adobe Illustrator 26.0.3, SVG Export Plug-In . SVG Version: 6.00 Build 0)  -->
<svg version="1.1" id="Layer_1" xmlns="http://www.w3.org/2000/svg" xmlns:xlink="http://www.w3.org/1999/xlink" x="0px" y="0px"
	 viewBox="0 0 78 78" style="enable-background:new 0 0 78 78;" xml:space="preserve">
<style type="text/css">
	.st0{fill:url(#SVGID_1_);stroke:#000000;stroke-width:0.932;stroke-linecap:round;stroke-linejoin:round;stroke-miterlimit:10;}
	.st1{fill:#45C900;}
	.st2{fill:url(#SVGID_00000082342858291789047460000002747048919237012908_);}
	.st3{stroke:#000000;stroke-width:0.35;stroke-miterlimit:10;}
	.st4{fill:url(#SVGID_00000030452293024243052560000004672659788401505430_);}
	.st5{fill:url(#SVGID_00000155853077081405732310000005437046107839292853_);}
	.st6{fill:url(#SVGID_00000020357335426451210770000013571680016704742278_);}
	.st7{fill:url(#SVGID_00000001640181076879916390000009877135469132417210_);}
	.st8{stroke:#000000;stroke-width:0.35;stroke-miterlimit:9.9997;}
	.st9{fill:url(#SVGID_00000029033532217447595900000014956060025291752857_);}
	.st10{fill:url(#SVGID_00000000208932731905977140000010742521365535527583_);}
	.st11{fill:url(#SVGID_00000043415245837991904530000008820945625347276957_);}
	.st12{stroke:#000000;stroke-width:0.35;stroke-miterlimit:10.0015;}
	.st13{fill:url(#SVGID_00000124884643911867628480000009888264316972564141_);}
	.st14{stroke:#000000;stroke-width:0.35;stroke-miterlimit:9.9991;}
	.st15{fill:url(#SVGID_00000168808498686175298220000013255399399925071021_);}
	.st16{fill:url(#SVGID_00000075160058118844523850000000459866545128825479_);}
	.st17{stroke:#000000;stroke-width:0.35;stroke-miterlimit:9.9988;}
	.st18{fill:url(#SVGID_00000090984435146563805590000009556379150997314486_);}
	.st19{fill:url(#SVGID_00000130628817570615256660000000470435145353755278_);}
	.st20{stroke:#000000;stroke-width:0.35;stroke-miterlimit:9.9985;}
	.st21{fill:url(#SVGID_00000049935389963981375920000001061786435856467108_);}
	.st22{fill:url(#SVGID_00000122713141252669193870000002826868589522252946_);}
	.st23{fill:url(#SVGID_00000135650983169252653920000001289788580551914626_);}
</style>
<g>
	
		<radialGradient id="SVGID_1_" cx="39.1" cy="-23.05" r="30.075" gradientTransform="matrix(1 0 0 1 0 62)" gradientUnits="userSpaceOnUse">
		<stop  offset="0" style="stop-color:#FFFFFF"/>
		<stop  offset="6.472126e-02" style="stop-color:#E8FFDA"/>
		<stop  offset="0.2017" style="stop-color:#BCFF90"/>
		<stop  offset="0.3" style="stop-color:#A0FF62"/>
		<stop  offset="0.3491" style="stop-color:#95FF50"/>
		<stop  offset="0.3818" style="stop-color:#8EFB49"/>
		<stop  offset="0.4278" style="stop-color:#7CEE37"/>
		<stop  offset="0.4814" style="stop-color:#5EDA19"/>
		<stop  offset="0.519" style="stop-color:#45C900"/>
	</radialGradient>
	<path class="st0" d="M68.5,36C68.5,36,68.4,36,68.5,36c-0.4,0.1-0.9,0.4-2.2,1.6c-1.2,1.1-3.4,0.8-5.7,0.8c-0.8,0-1.5-0.3-2.1-0.7
		c-0.1-2.2-0.6-4.3-1.4-6.3c0.2-0.2,0.5-0.4,0.8-0.5c1.6-0.6,5.1-2.3,6.3-1.8c1.2,0.5,1.7,0.6,1.9,0.5h0.1c0.2-0.1,0-1.1-0.4-2.3
		c-0.4-1.2-1-2.1-1.2-2c0,0,0,0-0.1,0.1c-0.2,0.1-0.5,0.4-1.1,1.6c-0.5,1.1-4.1,2.4-5.7,3c-0.4,0.1-0.7,0.2-1.1,0.1
		c-0.8-1.7-1.9-3.2-3.1-4.6c0.2-0.1,0.5-0.2,0.7-0.2c1.3,0,1.8-0.2,1.9-0.3h0.1c0.2-0.2-0.4-1-1.3-1.9c-0.9-0.9-1.7-1.5-1.9-1.3
		c0,0,0,0,0,0.1c-0.1,0.2-0.3,0.6-0.3,1.9c0,0.2-0.1,0.5-0.2,0.7c-1.2-1.2-2.6-2.2-4.1-3c0-0.4,0.1-0.8,0.3-1.2
		c0.8-1.4,2.6-5,3.7-5.3c1.2-0.4,1.7-0.6,1.8-0.8h0.1c0.1-0.2-0.7-0.9-1.7-1.5c-1.1-0.6-2-1-2.2-0.8V12c-0.1,0.2-0.1,0.7,0.2,1.9
		s-1.7,4.5-2.6,5.9c-0.3,0.4-0.7,0.8-1.1,1c-2.1-0.9-4.3-1.4-6.7-1.6c-0.3-0.5-0.6-1.1-0.6-1.7c0-2.2-0.2-4.7,0.9-5.8
		c1.2-1.3,1.5-1.8,1.5-2.1l0.1-0.1c0-0.3-1.4-0.6-3-0.6c-1.7,0-3,0.3-3,0.6c0,0,0,0.1,0.1,0.1c0,0.3,0.3,0.8,1.5,2.1
		c1.1,1.2,0.8,3.4,0.8,5.7c0,0.7-0.3,1.3-0.6,1.9c-2.4,0.2-4.7,0.7-6.8,1.7c-0.5-0.2-1.1-0.6-1.4-1.1c-1-1.6-3-4.9-2.7-6
		c0.3-1.3,0.3-1.7,0.2-1.9v-0.1c-0.1-0.2-1.1,0.2-2.2,0.8s-1.9,1.3-1.7,1.5c0,0,0,0,0.1,0c0.1,0.2,0.5,0.4,1.8,0.8
		c1.2,0.3,2.9,3.9,3.7,5.3c0.3,0.5,0.3,1,0.3,1.5c-1.3,0.8-2.5,1.7-3.6,2.7c-0.1-0.2-0.2-0.5-0.2-0.7c0-1.3-0.2-1.8-0.3-1.9v-0.1
		c-0.2-0.2-1,0.4-1.9,1.3s-1.5,1.7-1.3,1.9c0,0,0,0,0.1,0c0.2,0.1,0.6,0.3,1.9,0.3c0.3,0,0.5,0.1,0.7,0.2c-1.2,1.3-2.2,2.7-3,4.3
		c-0.6,0.2-1.4,0.4-2.1,0.1c-1.6-0.6-5.2-2-5.7-3c-0.6-1.2-0.9-1.5-1.1-1.6c0,0,0-0.1-0.1-0.1c-0.2-0.1-0.8,0.8-1.2,2
		s-0.6,2.2-0.4,2.3h0.1c0.2,0,0.7,0,1.9-0.5c1.1-0.5,4.7,1.2,6.3,1.8c0.6,0.2,1,0.7,1.3,1.3c-0.6,1.8-1,3.7-1.1,5.7
		c-0.6,0.4-1.2,0.7-1.9,0.7c-2.2,0-4.7,0.2-5.8-0.9c-1.3-1.2-1.8-1.5-2.1-1.5L9.6,36C9.3,36,9,37.4,9,39c0,1.7,0.3,3,0.6,3
		c0,0,0.1,0,0.1-0.1c0.3,0,0.8-0.3,2.1-1.5c1.2-1.1,3.4-0.8,5.7-0.8c0.8,0,1.5,0.3,2.1,0.7c0.2,2.4,0.8,4.7,1.8,6.7
		c-0.2,0.2-0.4,0.4-0.6,0.5c-1.5,0.7-4.9,2.7-6.1,2.4c-1.2-0.4-1.7-0.4-1.9-0.4h-0.1c-0.2,0.1,0.1,1.1,0.6,2.2
		c0.5,1.1,1.1,2,1.4,1.9c0,0,0,0,0.1-0.1c0.2-0.1,0.5-0.5,0.9-1.7c0.4-1.1,3.9-2.8,5.4-3.5c0.3-0.1,0.6-0.2,0.9-0.2
		c0.8,1.5,1.8,2.9,3,4.1c-0.3,0.2-0.7,0.3-1,0.3c-1.3,0-1.8,0.2-1.9,0.3H22c-0.2,0.2,0.4,1,1.3,1.9s1.7,1.5,1.9,1.3c0,0,0,0,0-0.1
		c0.1-0.2,0.3-0.6,0.3-1.9c0-0.3,0.1-0.7,0.3-1c1.1,1,2.2,1.9,3.5,2.6c0,0.5,0,1-0.3,1.5c-0.8,1.4-2.6,5-3.7,5.3
		c-1.2,0.4-1.7,0.6-1.8,0.8h-0.1c-0.1,0.2,0.7,0.9,1.7,1.5s2,1,2.2,0.8v-0.1c0.1-0.2,0.1-0.7-0.2-1.9c-0.3-1.2,1.7-4.5,2.6-5.9
		c0.3-0.5,0.8-0.9,1.3-1.1c2.1,0.9,4.3,1.5,6.7,1.7c0.5,0.6,0.9,1.4,0.9,2.2c0,2.2,0.2,4.7-0.9,5.8c-1.2,1.3-1.5,1.8-1.5,2.1
		l-0.1,0.1c0,0.3,1.4,0.6,3,0.6c1.7,0,3-0.3,3-0.6c0,0,0-0.1-0.1-0.1c0-0.3-0.3-0.8-1.5-2.1c-1.1-1.2-0.8-3.4-0.8-5.7
		c0-0.9,0.4-1.6,0.9-2.3c2.2-0.2,4.3-0.7,6.3-1.6c0.4,0.2,0.8,0.5,1.1,1c0.9,1.5,2.8,4.8,2.6,5.9c-0.3,1.3-0.3,1.7-0.2,1.9v0.1
		c0.1,0.2,1.1-0.2,2.2-0.8c1.1-0.6,1.9-1.3,1.7-1.5c0,0,0,0-0.1,0c-0.1-0.2-0.5-0.4-1.8-0.8c-1.2-0.3-2.9-3.9-3.7-5.3
		c-0.2-0.4-0.3-0.8-0.3-1.2c1.9-1,3.6-2.4,5.1-4c0.1,0,0.2,0.1,0.4,0.1c1.5,0.9,4.7,2.9,5.1,4c0.3,1.3,0.6,1.7,0.7,1.8v0.1
		c0.2,0.1,0.9-0.6,1.5-1.7c0.6-1.1,1-2,0.8-2.2h-0.1c-0.2-0.1-0.7-0.1-1.9,0.2c-1.2,0.3-4.4-2.1-5.8-3c0,0-0.1,0-0.1-0.1
		c1-1.2,1.9-2.6,2.6-4.1c0.3,0.2,0.5,0.5,0.6,0.8c0.5,1.2,0.8,1.6,1,1.7c0,0,0,0.1,0.1,0.1c0.2,0.1,0.8-0.8,1.3-1.9
		c0.5-1.1,0.7-2.2,0.5-2.2h-0.1c-0.2-0.1-0.7,0-1.9,0.4c-0.3,0.1-0.6,0.1-1,0.1c0.8-1.9,1.2-3.9,1.4-6c0.6-0.4,1.2-0.7,2-0.7
		c2.2,0,4.7-0.2,5.8,0.9c1.3,1.2,1.8,1.5,2.1,1.5l0.1,0.1c0.3,0,0.6-1.4,0.6-3C69.1,37.3,68.8,36,68.5,36z"/>
	<g>
		<g>
			<path class="st1" d="M41.9,26.4c-1.9,0-3.4,1.6-3.4,3.5s1.5,3.5,3.4,3.5s3.4-1.6,3.4-3.5C45.3,27.9,43.8,26.4,41.9,26.4z
				 M42.1,31.7c-1.3,0-2.4-1.1-2.4-2.5s1.1-2.5,2.4-2.5s2.4,1.1,2.4,2.5S43.4,31.7,42.1,31.7z"/>
		</g>
	</g>
	<g>
		<g>
			<path class="st1" d="M28.4,33.9c-1.9,0-3.4,1.6-3.4,3.5s1.5,3.5,3.4,3.5c1.9,0,3.4-1.6,3.4-3.5C31.9,35.4,30.3,33.9,28.4,33.9z
				 M28.7,39.2c-1.3,0-2.4-1.1-2.4-2.5s1.1-2.5,2.4-2.5s2.4,1.1,2.4,2.5S30,39.2,28.7,39.2z"/>
		</g>
	</g>
	<g>
		<g>
			<path class="st1" d="M37.6,35.6c-1.9,0-3.4,1.6-3.4,3.5s1.5,3.5,3.4,3.5S41,41,41,39.1C41,37.1,39.5,35.6,37.6,35.6z M37.8,41.8
				c-1.6,0-2.9-1.3-2.9-2.9c0-1.6,1.3-2.9,2.9-2.9c1.6,0,2.9,1.3,2.9,2.9C40.7,40.5,39.4,41.8,37.8,41.8z"/>
		</g>
	</g>
	<g>
		<g>
			<path class="st1" d="M45.3,42.4c-1.9,0-3.4,1.6-3.4,3.5s1.5,3.5,3.4,3.5s3.4-1.6,3.4-3.5S47.2,42.4,45.3,42.4z M45.5,47.8
				c-1.3,0-2.4-1.1-2.4-2.5s1.1-2.5,2.4-2.5s2.4,1.1,2.4,2.5S46.9,47.8,45.5,47.8z"/>
		</g>
	</g>
	<g>
		<g>
			<path class="st1" d="M37,47c-1.9,0-3.4,1.6-3.4,3.5S35.1,54,37,54s3.4-1.6,3.4-3.5C40.4,48.5,38.9,47,37,47z M37.3,52.1
				C36,52.1,35,51,35,49.8c0-1.3,1-2.3,2.3-2.3s2.3,1.1,2.3,2.3C39.7,51,38.6,52.1,37.3,52.1z"/>
		</g>
	</g>
	<g>
		<g>
			<path class="st1" d="M31.7,42.3c-1.1,0-1.9,0.9-1.9,1.9s0.9,1.9,1.9,1.9c1.1,0,1.9-0.9,1.9-1.9S32.7,42.3,31.7,42.3z M31.7,45.1
				c-0.6,0-1.2-0.5-1.2-1.2c0-0.7,0.5-1.2,1.2-1.2s1.2,0.5,1.2,1.2C32.8,44.5,32.3,45.1,31.7,45.1z"/>
		</g>
	</g>
	<g>
		<g>
			<path class="st1" d="M34.1,29.6c-1.1,0-1.9,0.9-1.9,1.9c0,1,0.9,1.9,1.9,1.9c1.1,0,1.9-0.9,1.9-1.9C36,30.5,35.2,29.6,34.1,29.6z
				 M34.4,31.9c-0.5,0-0.9-0.4-0.9-0.9s0.4-0.9,0.9-0.9s0.9,0.4,0.9,0.9S34.9,31.9,34.4,31.9z"/>
		</g>
	</g>
	<g>
		<g>
			<path class="st1" d="M34.3,23.5c-1.1,0-1.9,0.9-1.9,1.9c0,1.1,0.9,1.9,1.9,1.9c1.1,0,1.9-0.9,1.9-1.9S35.3,23.5,34.3,23.5z
				 M34.4,26.8c-0.8,0-1.5-0.7-1.5-1.5s0.7-1.5,1.5-1.5s1.5,0.7,1.5,1.5C35.9,26.1,35.2,26.8,34.4,26.8z"/>
		</g>
	</g>
	<g>
		<g>
			<path class="st1" d="M45.5,35.6c-1.1,0-1.9,0.9-1.9,1.9s0.9,1.9,1.9,1.9s1.9-0.9,1.9-1.9S46.5,35.6,45.5,35.6z M45.6,38.5
				c-0.7,0-1.2-0.6-1.2-1.2c0-0.7,0.5-1.2,1.2-1.2s1.2,0.6,1.2,1.2C46.9,37.9,46.3,38.5,45.6,38.5z"/>
		</g>
	</g>
	<g>
		<g>
			<path class="st1" d="M51.5,33.1c-1.1,0-1.9,0.9-1.9,1.9s0.9,1.9,1.9,1.9c1.1,0,1.9-0.9,1.9-1.9S52.6,33.1,51.5,33.1z M51.8,36.2
				c-0.7,0-1.3-0.6-1.3-1.3c0-0.7,0.6-1.3,1.3-1.3s1.3,0.6,1.3,1.3C53.1,35.6,52.5,36.2,51.8,36.2z"/>
		</g>
	</g>
	<g>
		<g>
			<path class="st1" d="M25.4,41.8c-1.1,0-1.9,0.9-1.9,1.9c0,1.1,0.9,1.9,1.9,1.9s1.9-0.9,1.9-1.9S26.4,41.8,25.4,41.8z M25.5,44.7
				c-0.7,0-1.2-0.5-1.2-1.2c0-0.7,0.5-1.2,1.2-1.2s1.2,0.5,1.2,1.2C26.7,44.1,26.2,44.7,25.5,44.7z"/>
		</g>
	</g>
	<g>
		
			<linearGradient id="SVGID_00000016047853846784746200000017565714230743541148_" gradientUnits="userSpaceOnUse" x1="38.95" y1="123.3057" x2="38.95" y2="129.0294" gradientTransform="matrix(1 0 0 -1 0 139)">
			<stop  offset="0" style="stop-color:#45C900"/>
			<stop  offset="1" style="stop-color:#FF0000"/>
		</linearGradient>
		<path style="fill:url(#SVGID_00000016047853846784746200000017565714230743541148_);" d="M42.4,21.4c0,0-2.9-1.7-2.9-3.9
			s-0.2-4.7,0.9-5.8c2.2-2.3,1.4-2.3,1.4-2.3l-3.1-0.3l-2.6,0.2c0,0-0.8,0,1.4,2.3c1.1,1.2,0.8,3.4,0.8,5.7s-2.8,4-2.8,4"/>
		<path d="M42.4,21.4c-1.2-0.7-2.4-1.7-2.9-3.1c-0.2-0.7-0.1-1.4-0.2-2.1c0-1.4-0.1-3,0.7-4.2c0.6-0.8,1.5-1.5,1.7-2.4
			c-0.5,0-2.6-0.1-3-0.2c-0.4,0-2.2,0.2-2.6,0.2c-0.1,0,0,0,0,0l0,0c0.3,1,1.4,1.6,1.9,2.6c0.3,0.7,0.4,1.4,0.5,2.1
			c0,1,0,2.1-0.1,3.1c0,1.8-1.5,3.2-3,4.1c0.9-0.9,2.1-1.9,2.5-3.2c0.2-0.6,0.1-1.3,0.1-2c0-1.3,0.1-2.8-0.5-3.9
			c-0.5-0.8-1.5-1.5-1.9-2.5c0.1-0.3,0.1-0.6,0.3-0.7c0.2-0.2,0.6-0.1,0.8-0.1L38.8,9l0,0l2.1,0.2c0.2,0,0.6,0,0.8,0.1
			c0.1,0,0.3,0,0.4,0.1c0.1,0.2,0.1,0.3,0.1,0.4c-0.4,0.9-1.2,1.6-1.8,2.4c-0.4,0.6-0.5,1.3-0.6,2c-0.1,1.4-0.2,2.9,0,4.2
			C40,19.6,41.4,20.6,42.4,21.4L42.4,21.4z"/>
	</g>
	<ellipse class="st3" cx="39" cy="9.4" rx="3" ry="0.6"/>
	<g>
		
			<linearGradient id="SVGID_00000105400203515557723530000012241359120373505679_" gradientUnits="userSpaceOnUse" x1="38.95" y1="80.0138" x2="38.95" y2="70.0553" gradientTransform="matrix(1 0 0 -1 0 139)">
			<stop  offset="0" style="stop-color:#45C900"/>
			<stop  offset="1" style="stop-color:#FF0000"/>
		</linearGradient>
		<path style="fill:url(#SVGID_00000105400203515557723530000012241359120373505679_);" d="M35.5,56.6c0,0,2.9,1.7,2.9,3.9
			c0,2.2,0.2,4.7-0.9,5.8c-2.2,2.3-1.4,2.3-1.4,2.3l3.1,0.2l2.6-0.2c0,0,0.8,0-1.4-2.3c-1.1-1.2-0.8-3.4-0.8-5.7c0-2.3,2.8-4,2.8-4"
			/>
		<path d="M35.6,56.6c1.2,0.7,2.4,1.5,2.9,2.9c0.2,0.7,0.1,1.6,0.2,2.3c0,1.4,0.1,3-0.7,4.2c-0.6,0.8-1.5,1.5-1.7,2.4
			c0.5,0,2.6,0.1,3,0.2c0.4,0,2.2-0.2,2.6-0.2c0.1,0,0,0,0,0l0,0c-0.3-1-1.4-1.6-1.9-2.6c-0.3-0.7-0.4-1.4-0.5-2.1
			c0-1,0-2.1,0.1-3.1c0-1.8,1.5-3.2,3-4.1c-0.9,0.9-2.1,1.9-2.5,3.2c-0.2,0.6-0.1,1.3-0.1,2c0,1.3-0.1,2.8,0.5,3.9
			c0.5,0.8,1.5,1.5,1.9,2.5c0.1,0.2,0.1,0.5-0.1,0.6c-0.2,0.1-0.6,0.1-0.8,0.1l-2.1,0.1l0,0l-2.1-0.2c-0.2,0-0.6,0-0.8-0.1
			c-0.1,0-0.3,0-0.4-0.1C36,68.3,36,68.2,36,68.1c0.4-0.9,1.2-1.6,1.8-2.4c0.4-0.6,0.4-1.3,0.5-2c0.1-1.4,0.1-2.8-0.1-4.1
			C37.7,58.6,36.6,57.4,35.6,56.6L35.6,56.6z"/>
	</g>
	<ellipse class="st3" cx="39" cy="68.6" rx="3" ry="0.6"/>
	<g>
		
			<linearGradient id="SVGID_00000086651732393622638700000000779871563140594333_" gradientUnits="userSpaceOnUse" x1="61.9794" y1="100.05" x2="67.3736" y2="100.05" gradientTransform="matrix(1 0 0 -1 0 139)">
			<stop  offset="0" style="stop-color:#45C900"/>
			<stop  offset="1" style="stop-color:#FF0000"/>
		</linearGradient>
		<path style="fill:url(#SVGID_00000086651732393622638700000000779871563140594333_);" d="M56.6,42.4c0,0,1.7-2.9,3.9-2.9
			c2.2,0,4.7-0.2,5.8,0.9c2.3,2.2,2.3,1.4,2.3,1.4l0.2-3.1l-0.2-2.6c0,0,0-0.8-2.3,1.4c-1.2,1.1-3.4,0.8-5.7,0.8s-4-2.8-4-2.8"/>
		<path d="M56.6,42.4c0.7-1.2,1.4-2.3,2.8-2.8c0.7-0.2,1.7-0.2,2.4-0.3c1.4,0,3-0.1,4.2,0.7c0.8,0.6,1.5,1.5,2.4,1.7
			c0-0.5,0.1-2.6,0.2-3c0-0.4-0.2-2.2-0.2-2.6c0-0.1,0,0,0,0l0,0c-1,0.3-1.6,1.4-2.6,1.9c-0.7,0.3-1.4,0.4-2.1,0.5
			c-1,0-2.1,0-3.1-0.1c-1.8,0-3.2-1.5-4.1-3c0.9,0.9,1.9,2.1,3.2,2.5c0.6,0.2,1.3,0.1,2,0.1c1.3,0,2.8,0.1,3.9-0.5
			c0.8-0.5,1.5-1.5,2.5-1.9c0.2-0.1,0.5-0.1,0.6,0.1c0.1,0.2,0.1,0.6,0.1,0.8l0.1,2.1l0,0l-0.2,2.1c0,0.2,0,0.6-0.1,0.8
			c0,0.1,0,0.3-0.1,0.4C68.3,42,68.2,42,68.1,42c-0.9-0.4-1.6-1.2-2.4-1.8c-0.6-0.4-1.3-0.5-2-0.6c-1.4-0.1-2.9,0-4.2,0.2
			C58.4,40.3,57.4,41.4,56.6,42.4L56.6,42.4z"/>
	</g>
	<ellipse class="st3" cx="68.5" cy="39" rx="0.6" ry="3"/>
	<g>
		
			<linearGradient id="SVGID_00000032638846466432616730000005871463888197853598_" gradientUnits="userSpaceOnUse" x1="16.682" y1="99.95" x2="9.4176" y2="99.95" gradientTransform="matrix(1 0 0 -1 0 139)">
			<stop  offset="0" style="stop-color:#45C900"/>
			<stop  offset="1" style="stop-color:#FF0000"/>
		</linearGradient>
		<path style="fill:url(#SVGID_00000032638846466432616730000005871463888197853598_);" d="M21.3,35.6c0,0-1.4,2.9-3.6,2.9
			s-5,0.2-6.1-0.9c-2.3-2.2-2.3-1.4-2.3-1.4l-0.2,3.1l0.2,2.6c0,0,0,0.8,2.3-1.4c1.2-1.1,3.4-0.8,5.7-0.8s4,2.8,4,2.8"/>
		<path d="M21.4,35.6c-0.7,1.2-1.7,2.4-3.1,2.9c-0.7,0.2-1.4,0.1-2.1,0.2c-1.4,0-3,0.1-4.2-0.7c-0.8-0.6-1.5-1.5-2.4-1.7
			c0,0.5-0.1,2.6-0.2,3c0,0.4,0.2,2.2,0.2,2.6c0,0.1,0,0,0,0l0,0c1-0.3,1.6-1.4,2.6-1.9c0.7-0.3,1.4-0.4,2.1-0.5c1,0,2.1,0,3.1,0.1
			c1.8,0,3.2,1.5,4.1,3c-0.9-0.9-1.9-2.1-3.2-2.5c-0.6-0.2-1.3-0.1-2-0.1c-1.3,0-2.8-0.1-3.9,0.5c-0.8,0.5-1.5,1.5-2.5,1.9
			c-0.2,0.1-0.5,0.1-0.6-0.1c-0.1-0.2-0.1-0.6-0.1-0.8l-0.1-2.1l0,0l0.2-2.1c0-0.2,0-0.6,0.1-0.8c0-0.1,0-0.3,0.1-0.4
			C9.7,36,9.8,36,9.9,36c0.9,0.4,1.6,1.2,2.4,1.8c0.6,0.4,1.3,0.5,2,0.6c1.4,0.1,2.9,0.2,4.2,0C19.6,37.9,20.6,36.6,21.4,35.6
			L21.4,35.6z"/>
	</g>
	<ellipse class="st3" cx="9.4" cy="39" rx="0.6" ry="3"/>
	<g>
		
			<linearGradient id="SVGID_00000052795651945834044090000004280401466794425274_" gradientUnits="userSpaceOnUse" x1="28.2663" y1="110.7952" x2="23.9786" y2="115.4286" gradientTransform="matrix(1 0 0 -1 0 139)">
			<stop  offset="9.696922e-03" style="stop-color:#95FF50;stop-opacity:0"/>
			<stop  offset="0.2181" style="stop-color:#45C900"/>
			<stop  offset="1" style="stop-color:#FF0000"/>
		</linearGradient>
		<path style="fill:url(#SVGID_00000052795651945834044090000004280401466794425274_);" d="M31.5,27.9c0,0-2.4,0.7-3.6-0.5
			c-1.2-1.2-2.5-2.4-2.6-3.6c-0.1-2.4-0.5-2-0.5-2l-1.7,1.5l-1.3,1.5c0,0-0.4,0.4,2,0.5c1.2,0,2.2,1.4,3.4,2.6
			c1.2,1.2,0.6,3.6,0.6,3.6"/>
		<path d="M31.5,27.9c-1,0.2-2.2,0.4-3.2-0.1c-0.5-0.3-0.8-0.7-1.2-1c-0.8-0.8-1.6-1.5-1.9-2.6c-0.1-0.7-0.1-1.6-0.3-2.1
			c0,0,0.1,0,0,0c-0.3,0.3-1.5,1.3-1.7,1.5s-1.1,1.3-1.2,1.5l0,0V25c0.7,0.3,1.5,0.1,2.3,0.3c0.6,0.2,1,0.5,1.4,0.9
			c0.7,0.7,1.6,1.6,2.1,2.4c0.4,1,0.4,2.3,0.1,3.1c0.1-1,0.1-2.1-0.4-2.9c-0.8-1-2.1-2.4-3.3-2.9c-0.4-0.2-3.2,0.1-2.5-1
			c0.2-0.2,1.1-1.2,1.3-1.5l1.2-1c0.1-0.1,0.4-0.3,0.5-0.4c0.5-0.5,0.7,0.3,0.8,0.7c0.1,0.5,0.1,1.1,0.1,1.6c0.2,1,1.1,1.8,1.8,2.5
			c0.4,0.4,0.7,0.8,1.2,1.1C29.3,28.2,30.6,28,31.5,27.9L31.5,27.9z"/>
	</g>
	<ellipse transform="matrix(0.7071 -0.7071 0.7071 0.7071 -9.6861 23.4043)" class="st8" cx="23.4" cy="23.4" rx="2.3" ry="0.4"/>
	<g>
		
			<linearGradient id="SVGID_00000093878145179664410990000009138825323748280757_" gradientUnits="userSpaceOnUse" x1="50.8022" y1="111.9329" x2="54.26" y2="116.3589" gradientTransform="matrix(1 0 0 -1 0 139)">
			<stop  offset="9.696922e-03" style="stop-color:#95FF50;stop-opacity:0"/>
			<stop  offset="0.2181" style="stop-color:#45C900"/>
			<stop  offset="1" style="stop-color:#FF0000"/>
		</linearGradient>
		<path style="fill:url(#SVGID_00000093878145179664410990000009138825323748280757_);" d="M50.1,31.5c0,0-0.7-2.4,0.5-3.6
			s2.4-2.5,3.6-2.6c2.4-0.1,2-0.5,2-0.5l-1.5-1.7l-1.5-1.3c0,0-0.4-0.4-0.5,2c0,1.2-1.4,2.2-2.6,3.4c-1.2,1.2-3.6,0.6-3.6,0.6"/>
		<path d="M50,31.5c-0.2-1-0.4-2.2,0.1-3.2c0.3-0.5,0.7-0.8,1-1.2c0.8-0.8,1.5-1.6,2.6-1.9c0.7-0.1,1.6-0.1,2.1-0.3c0,0,0,0.1,0,0
			c-0.3-0.3-1.3-1.5-1.5-1.7S53,22.1,52.8,22l0,0h0.1c-0.3,0.7-0.1,1.5-0.3,2.3c-0.2,0.6-0.5,1-0.9,1.4c-0.7,0.7-1.6,1.6-2.4,2.1
			c-1,0.4-2.3,0.4-3.1,0.1c1,0.1,2.1,0.1,2.9-0.4c1-0.8,2.4-2.1,2.9-3.3c0.2-0.4-0.1-3.2,1-2.5c0.2,0.2,1.2,1.1,1.5,1.3l1,1.2
			c0.1,0.1,0.3,0.4,0.4,0.5c0.5,0.5-0.3,0.7-0.7,0.8c-0.5,0.1-1.1,0.1-1.6,0.1c-1,0.2-1.8,1.1-2.5,1.8c-0.4,0.4-0.8,0.7-1.1,1.2
			C49.8,29.3,50,30.6,50,31.5L50,31.5z"/>
	</g>
	<ellipse transform="matrix(0.7071 -0.7071 0.7071 0.7071 -0.5772 45.3735)" class="st8" cx="54.5" cy="23.4" rx="0.4" ry="2.3"/>
	<g>
		
			<linearGradient id="SVGID_00000001643435133399818130000013606081339861030279_" gradientUnits="userSpaceOnUse" x1="28.6196" y1="89.5842" x2="23.502" y2="84.5358" gradientTransform="matrix(1 0 0 -1 0 139)">
			<stop  offset="9.696922e-03" style="stop-color:#95FF50;stop-opacity:0"/>
			<stop  offset="0.2181" style="stop-color:#45C900"/>
			<stop  offset="1" style="stop-color:#FF0000"/>
		</linearGradient>
		<path style="fill:url(#SVGID_00000001643435133399818130000013606081339861030279_);" d="M27.9,46.5c0,0,0.7,2.4-0.5,3.6
			c-1.2,1.2-2.4,2.5-3.6,2.6c-2.4,0.1-2,0.5-2,0.5l1.5,1.7l1.5,1.3c0,0,0.4,0.4,0.5-2c0-1.2,1.4-2.2,2.6-3.4
			c1.2-1.2,3.6-0.6,3.6-0.6"/>
		<path d="M27.9,46.5c0.2,1,0.4,2.2-0.1,3.2c-0.3,0.5-0.7,0.8-1,1.2c-0.8,0.8-1.5,1.6-2.6,1.9c-0.7,0.1-1.6,0.1-2.1,0.3
			c0,0,0-0.1,0,0c0.3,0.3,1.3,1.5,1.5,1.7c0.2,0.2,1.3,1.1,1.5,1.2l0,0H25c0.3-0.7,0.1-1.5,0.3-2.3c0.2-0.6,0.5-1,0.9-1.4
			c0.7-0.7,1.6-1.6,2.4-2.1c1-0.4,2.3-0.4,3.1-0.1c-1-0.1-2.1-0.1-2.9,0.4c-1,0.8-2.4,2.1-2.9,3.3c-0.2,0.4,0.1,3.2-1,2.5
			c-0.2-0.2-1.2-1.1-1.5-1.3l-1-1.2c-0.1-0.1-0.3-0.4-0.4-0.5c-0.5-0.5,0.3-0.7,0.7-0.8c0.5-0.1,1.1-0.1,1.6-0.1
			c1-0.2,1.8-1.1,2.5-1.8c0.4-0.4,0.8-0.7,1.1-1.2C28.2,48.7,28,47.4,27.9,46.5L27.9,46.5z"/>
	</g>
	<ellipse transform="matrix(0.7071 -0.7071 0.7071 0.7071 -31.7603 32.5425)" class="st8" cx="23.4" cy="54.6" rx="0.4" ry="2.3"/>
	<g>
		
			<linearGradient id="SVGID_00000013891032255378815520000013626243519443912067_" gradientUnits="userSpaceOnUse" x1="53.7321" y1="93.4458" x2="59.1955" y2="90.7487" gradientTransform="matrix(1 0 0 -1 0 139)">
			<stop  offset="9.696922e-03" style="stop-color:#95FF50;stop-opacity:0"/>
			<stop  offset="0.2181" style="stop-color:#45C900"/>
			<stop  offset="1" style="stop-color:#FF0000"/>
		</linearGradient>
		<path style="fill:url(#SVGID_00000013891032255378815520000013626243519443912067_);" d="M50,46.6c0,0,2-1.5,3.5-0.8
			c1.5,0.7,3.2,1.3,3.7,2.4c0.9,2.2,1.2,1.6,1.2,1.6l1.1-2l0.6-1.9c0,0,0.2-0.5-2,0.3c-1.1,0.4-2.6-0.5-4.2-1.2
			c-1.6-0.7-1.9-3.1-1.9-3.1"/>
		<path d="M50,46.6c0.9-0.6,1.9-1.1,3-1c1.5,0.5,3.2,1,4.2,2.3c0.4,0.6,0.6,1.4,1.1,1.9l0,0c0.2-0.4,0.9-1.8,1-2
			c0.1-0.3,0.5-1.6,0.6-1.8c0-0.1,0,0,0,0v0.1c-0.8,0-1.4,0.4-2.3,0.5c-0.6,0-1.1-0.1-1.6-0.3c-0.9-0.4-2.1-0.8-2.8-1.4
			C52.5,44.2,52,43,52,42c0.2,1,0.7,2,1.4,2.6c1.2,0.6,2.8,1.4,4.1,1.5c0.5,0,2.9-1.2,2.7,0c-0.1,0.2-0.6,1.5-0.7,1.8
			c0,0-0.7,1.4-0.8,1.4c-0.1,0.1-0.2,0.4-0.3,0.5c-0.3,0.6-0.8,0-1-0.4c-0.3-0.5-0.5-1-0.7-1.4c-0.6-0.8-1.6-1.3-2.6-1.7
			c-0.5-0.2-1-0.5-1.5-0.6C51.9,45.5,50.8,46.2,50,46.6L50,46.6z"/>
	</g>
	<ellipse transform="matrix(0.3997 -0.9167 0.9167 0.3997 -8.2359 83)" class="st12" cx="59.3" cy="47.8" rx="2.3" ry="0.4"/>
	<g>
		
			<linearGradient id="SVGID_00000147914971466571103370000009763676424301006778_" gradientUnits="userSpaceOnUse" x1="48.4502" y1="119.582" x2="51.3548" y2="125.1145" gradientTransform="matrix(1 0 0 -1 0 139)">
			<stop  offset="0" style="stop-color:#45C900"/>
			<stop  offset="1" style="stop-color:#FF0000"/>
		</linearGradient>
		<path style="fill:url(#SVGID_00000147914971466571103370000009763676424301006778_);" d="M49,23.9c0,0-1.2-2.2-0.4-3.6
			s2.6-5,3.7-5.3c2.3-0.6,1.8-0.9,1.8-0.9l-1.9-1.3l-1.8-0.9c0,0-0.5-0.3,0,2c0.3,1.2-1.7,4.5-2.6,5.9c-0.9,1.5-3.3,1.5-3.3,1.5"/>
		<path d="M49,23.9c-0.6-1.1-1.1-2.3-0.6-3.5c0.6-1.1,1.2-2.3,1.9-3.4c0.6-1.1,1.6-2.1,2.9-2.3c0.3-0.1,0.7-0.2,1-0.5
			c0-0.1-0.2-0.2-0.2-0.2c-0.2-0.1-1.8-1.2-1.9-1.3l-1.6-0.8c0,0-0.2-0.1-0.1-0.1c0.1,0,0.1,0,0.1,0c-0.1,0.5,0.1,1.1,0.2,1.7
			c0.1,0.5,0,1-0.2,1.5c-0.6,1.7-1.6,3.3-2.6,4.8c-0.8,1-2.3,1.4-3.4,1.3c1.1-0.1,2.4-0.5,3.1-1.4c0.6-1,1.2-2.1,1.7-3.2
			c0.5-1,1.1-2.1,0.8-3.3c-0.1-0.5-0.4-2.2,0.6-1.7l1.6,0.8l1.5,1.1l0.4,0.3c0.2,0.2,0.2,0.7,0,0.8c-0.5,0.3-1.4,0.4-2,0.7
			c-0.8,0.4-1.3,1.5-1.8,2.2c-0.8,1.5-2.2,2.8-1.9,4.7C48.7,22.9,48.9,23.6,49,23.9L49,23.9z"/>
	</g>
	<ellipse transform="matrix(0.5104 -0.8599 0.8599 0.5104 14.3772 51.2285)" class="st14" cx="52.2" cy="13" rx="0.4" ry="2.3"/>
	<g>
		
			<linearGradient id="SVGID_00000108294735330298878540000017995774708014774714_" gradientUnits="userSpaceOnUse" x1="29.062" y1="119.4829" x2="26.0883" y2="125.0846" gradientTransform="matrix(1 0 0 -1 0 139)">
			<stop  offset="0" style="stop-color:#45C900"/>
			<stop  offset="1" style="stop-color:#FF0000"/>
		</linearGradient>
		<path style="fill:url(#SVGID_00000108294735330298878540000017995774708014774714_);" d="M28.5,23.9c0,0,1.2-2.2,0.4-3.6
			s-2.6-5-3.7-5.3c-2.3-0.6-1.8-0.9-1.8-0.9l1.9-1.3l1.8-0.9c0,0,0.5-0.3,0,2c-0.4,1.1,1.6,4.4,2.5,5.9s3.3,1.5,3.3,1.5"/>
		<path d="M28.5,23.9c0.5-1,0.9-2.4,0.4-3.5c-1.1-1.8-1.9-4-3.6-5.2c-0.4-0.2-2.5-0.6-2-1.3c0.3-0.2,1.6-1.1,1.9-1.4l1.6-0.8
			c0.1,0,0.1-0.1,0.4-0.1c0.3,0.1,0.3,0.3,0.3,0.3c0.2,1.1-0.5,2,0,3.1c0.6,1.7,1.5,3.3,2.4,4.8c0.6,1,2.1,1.2,3.1,1.5
			c-1.2,0-2.5-0.3-3.4-1.3c-1-1.5-1.9-3.1-2.6-4.8c-0.1-0.4-0.3-1-0.2-1.5c0.1-0.5,0.3-1.1,0.2-1.7c0-0.1-0.1-0.1,0.1,0
			c0.2,0,0,0-0.1,0.1l-1.6,0.8c0.1-0.1-1.5,1-1.5,1l-0.4,0.2c0,0,0-0.1,0,0c0.5,0.4,1.2,0.5,1.8,0.8c0.8,0.5,1.3,1.4,1.8,2.2
			c0.6,1.1,1.2,2.2,1.8,3.3C29.5,21.5,29.1,23,28.5,23.9L28.5,23.9z"/>
	</g>
	<ellipse transform="matrix(0.8599 -0.5104 0.5104 0.8599 -3.1032 14.6806)" class="st14" cx="25.2" cy="13" rx="2.3" ry="0.4"/>
	<g>
		
			<linearGradient id="SVGID_00000134225059321773817700000002448302770173945268_" gradientUnits="userSpaceOnUse" x1="19.3088" y1="108.9443" x2="12.9252" y2="111.4227" gradientTransform="matrix(1 0 0 -1 0 139)">
			<stop  offset="0" style="stop-color:#45C900"/>
			<stop  offset="1" style="stop-color:#FF0000"/>
		</linearGradient>
		<path style="fill:url(#SVGID_00000134225059321773817700000002448302770173945268_);" d="M21.3,35.1c0.1-0.3-0.1-0.7-0.2-1.4
			c-0.1-0.6-0.6-2.4-1.9-2.9c-1.6-0.6-5.1-2.3-6.3-1.8c-2.2,0.9-2,0.4-2,0.4l0.7-2.2l0.8-1.8c0,0,0.2-0.5,1.3,1.6
			c0.5,1.1,4.1,2.4,5.7,3c1.3,0.5,2.8-0.4,3.3-0.8c0.1-0.1,1.8-1.4,1.8-1.4"/>
		<path d="M21.3,35.1c-0.1-1.3-0.4-2.7-1.4-3.7c-0.4-0.5-1.1-0.6-1.8-0.9l-1.9-0.7c-1.1-0.3-2.2-0.9-3.3-0.7c-0.7,0.2-1.3,0.6-2,0.6
			c-0.4-0.1-0.2-0.4-0.1-0.7l0.5-1.9l0,0c0.2-0.5,0.6-1.3,0.8-1.8c0.6-0.9,1.5,1.1,1.7,1.5c0.7,1,2.2,1.5,3.3,2
			c1.2,0.4,2.5,1.4,3.8,1c1.2-0.2,2.5-1.4,3.5-2.1c-1.3,1.2-3.4,3.2-5.5,2.3c-1.9-0.8-4.2-1.3-5.5-3c-0.2-0.5-0.6-1.2-0.9-1.5
			l0.1-0.1c-0.1,0.2-0.3,0.6-0.4,0.8c0,0-0.5,1-0.4,0.9L11.2,29l-0.1,0.2c0,0.1,0,0,0,0l0,0c0.6,0,1.3-0.3,1.8-0.5
			c1.2-0.2,2.4,0.4,3.5,0.7l1.9,0.8c0.6,0.3,1.3,0.4,1.8,1C20.9,32.3,21.3,33.9,21.3,35.1L21.3,35.1z"/>
	</g>
	<ellipse transform="matrix(0.3484 -0.9373 0.9373 0.3484 -17.9573 28.9196)" class="st17" cx="11.8" cy="27.4" rx="2.3" ry="0.4"/>
	<g>
		
			<linearGradient id="SVGID_00000131329098454552211130000002624963796547620773_" gradientUnits="userSpaceOnUse" x1="59.0936" y1="109.1068" x2="65.5251" y2="112.0114" gradientTransform="matrix(1 0 0 -1 0 139)">
			<stop  offset="0" style="stop-color:#45C900"/>
			<stop  offset="1" style="stop-color:#FF0000"/>
		</linearGradient>
		<path style="fill:url(#SVGID_00000131329098454552211130000002624963796547620773_);" d="M55.9,33.9c0,0,0.4-2.5,2-3
			c1.6-0.6,5.1-2.3,6.3-1.8c2.2,0.9,2,0.4,2,0.4l-0.7-2.2l-0.8-1.8c0,0-0.2-0.5-1.3,1.6c-0.5,1.1-4.1,2.4-5.7,3
			c-1.6,0.6-3.5-0.9-3.5-0.9"/>
		<path d="M55.9,33.9c0.2-1.2,0.4-2.3,1.6-2.9c1.1-0.5,2.6-1.2,3.7-1.6c1.2-0.4,2.5-0.9,3.7-0.2c0.3,0.1,0.7,0.3,1,0.2
			c0.1,0,0,0,0,0.1c-0.1-0.2-0.6-2.1-0.7-2.2l-0.8-1.6c0-0.1-0.1-0.2,0-0.1c0.1,0,0.1,0,0,0c-0.4,0.4-0.6,1-0.9,1.4
			c-0.2,0.4-0.7,0.8-1.1,1c-1.6,1-3.3,1.6-5,2.2c-1.2,0.3-2.7-0.4-3.4-1.1c1,0.6,2.2,1.1,3.3,0.8c1.1-0.4,2.2-0.9,3.3-1.4
			c1-0.5,2.2-1,2.7-2.1c0.2-0.4,1-2,1.5-1c0,0,0.7,1.6,0.7,1.7l0.5,1.8c0.1,0.3,0.3,0.7-0.2,0.8c-0.7,0-1.4-0.4-2.1-0.6
			c-0.9-0.1-1.8,0.4-2.6,0.7c-1.2,0.4-2.5,1.1-3.7,1.5C56.6,31.8,56.3,32.9,55.9,33.9L55.9,33.9z"/>
	</g>
	<ellipse transform="matrix(0.9373 -0.3484 0.3484 0.9373 -5.4547 24.4675)" class="st17" cx="65.3" cy="27.4" rx="0.4" ry="2.3"/>
	<g>
		
			<linearGradient id="SVGID_00000036228792133198604480000006334004627257854349_" gradientUnits="userSpaceOnUse" x1="19.5988" y1="90.4661" x2="13.3747" y2="87.4232" gradientTransform="matrix(1 0 0 -1 0 139)">
			<stop  offset="0" style="stop-color:#45C900"/>
			<stop  offset="1" style="stop-color:#FF0000"/>
		</linearGradient>
		<path style="fill:url(#SVGID_00000036228792133198604480000006334004627257854349_);" d="M22.3,44.4c0,0-0.2,2.5-1.7,3.2
			c-1.5,0.7-4.9,2.7-6.1,2.4c-2.2-0.7-2-0.2-2-0.2l0.8,2.1l1,1.7c0,0,0.3,0.5,1.1-1.7c0.4-1.1,3.9-2.8,5.4-3.5
			c1.5-0.7,3.6,0.6,3.6,0.6"/>
		<path d="M22.3,44.4c-0.1,1.2-0.5,2.6-1.6,3.2c-1.1,0.6-2.2,1.2-3.3,1.7c-1.1,0.5-2.4,1.1-3.6,0.6c-0.4-0.1-0.7-0.2-1.1-0.1
			c-0.1,0,0,0,0-0.1c0.1,0.2,0.8,2,0.9,2.1l0.9,1.6c0,0.1,0.1,0.2,0,0.1c-0.1,0-0.1,0,0,0c0.3-0.4,0.5-1,0.8-1.5
			c0.2-0.5,0.6-0.8,1-1.1c1.5-1.1,3.1-1.9,4.8-2.6c1.2-0.4,2.7,0.1,3.5,0.8c-1-0.5-2.3-0.9-3.4-0.5c-1.1,0.5-2.1,1.1-3.2,1.7
			c-1,0.6-2.1,1.1-2.5,2.3c-0.2,0.5-0.9,2.1-1.4,1.1l-0.9-1.6l-0.7-1.7c-0.1-0.3-0.4-0.7,0.1-0.8c0.7-0.1,1.4,0.3,2.1,0.4
			c0.9,0.1,1.8-0.6,2.6-0.9c1.1-0.5,2.1-1.1,3.2-1.6C21.7,46.8,22,45.4,22.3,44.4L22.3,44.4z"/>
	</g>
	<ellipse transform="matrix(0.9032 -0.4291 0.4291 0.9032 -20.879 10.7938)" class="st20" cx="13.5" cy="51.7" rx="0.4" ry="2.3"/>
	<g>
		
			<linearGradient id="SVGID_00000031204253255250006720000014019295693680119695_" gradientUnits="userSpaceOnUse" x1="54.4949" y1="86.5894" x2="60.6498" y2="82.3708" gradientTransform="matrix(1 0 0 -1 0 139)">
			<stop  offset="0" style="stop-color:#45C900"/>
			<stop  offset="1" style="stop-color:#FF0000"/>
		</linearGradient>
		<path style="fill:url(#SVGID_00000031204253255250006720000014019295693680119695_);" d="M52.7,48.1c0,0-0.1,2.5,1.4,3.4
			c1.4,0.9,4.6,3.2,5.8,3c2.3-0.5,2,0,2,0l-1.1,2l-1.1,1.6c0,0-0.3,0.5-0.9-1.8c-0.3-1.1-3.6-3.1-5.1-4s-3.6,0.2-3.6,0.2"/>
		<path d="M52.8,48.1c0,1.2,0.3,2.6,1.3,3.3c1.1,0.6,2.1,1.3,3.2,1.9c0.8,0.4,1.6,0.9,2.5,1c0.6-0.1,1.2-0.3,1.9-0.2
			c0.2,0,0.6,0.1,0.5,0.4L62,54.9l-0.8,1.7l0,0l-1,1.5c-0.6,0.9-1.1-0.7-1.3-1.2c-0.2-1.2-1.3-1.8-2.2-2.5c-0.9-0.7-2-1.4-3-2
			s-2.4-0.1-3.4,0.1c1.1-0.5,2.3-1,3.6-0.4c1.6,0.9,3.2,1.8,4.5,3.1c0.3,0.3,0.7,0.7,0.8,1.2c0.2,0.5,0.3,1.1,0.6,1.6c0,0,0.1,0,0,0
			c-0.1,0.1,0,0,0-0.1l1.1-1.5c-0.1,0.1,0.9-1.6,0.9-1.6l0.2-0.4c0,0.1,0,0.1,0,0.1c-0.7-0.1-1.3,0.1-2,0.2c-1-0.1-1.8-0.6-2.6-1.1
			c-1.1-0.6-2.1-1.4-3.1-2C53,50.8,52.6,49.2,52.8,48.1L52.8,48.1z"/>
	</g>
	<path class="st3" d="M60.2,55.9c0.7-1.1,1.6-2,1.8-1.8c0.2,0.1-0.1,1.3-0.8,2.4c-0.7,1.1-1.4,1.9-1.6,1.8
		C59.4,58.2,59.5,57,60.2,55.9z"/>
	<g>
		
			<linearGradient id="SVGID_00000059997988064710955900000007958061807658554500_" gradientUnits="userSpaceOnUse" x1="47.6484" y1="82.493" x2="51.7978" y2="74.4709" gradientTransform="matrix(1 0 0 -1 0 139)">
			<stop  offset="0" style="stop-color:#45C900"/>
			<stop  offset="1" style="stop-color:#FF0000"/>
		</linearGradient>
		<path style="fill:url(#SVGID_00000059997988064710955900000007958061807658554500_);" d="M49,53.6c0,0-1.2,2.2-0.4,3.6
			c0.8,1.4,2.6,5,3.7,5.3c2.3,0.6,1.8,0.9,1.8,0.9l-1.9,1.3l-1.8,0.9c0,0-0.5,0.3,0-2c0.3-1.2-1.7-4.5-2.6-5.9
			c-0.9-1.5-3.3-1.5-3.3-1.5"/>
		<path d="M49,53.6c-0.5,1-0.9,2.4-0.4,3.5c1.1,1.8,1.9,4,3.6,5.2c0.4,0.2,2.5,0.6,2,1.3c-0.3,0.2-1.6,1.1-1.9,1.4l-1.6,0.8
			c-1.1,0.6-0.6-1.6-0.5-2.1c0.1-0.4,0-0.8-0.2-1.2c-0.6-1.7-1.5-3.3-2.4-4.8c-0.7-1-2-1.3-3.1-1.4c1.1-0.1,2.6,0.3,3.4,1.3
			c1.1,1.8,2.4,3.6,2.8,5.8c0,0.3-0.1,0.7-0.1,1c-0.1,0.4-0.2,0.8-0.1,1.2c0,0.1,0.1,0.1-0.1,0c-0.2,0,0,0,0.1-0.1
			c0,0,1.7-0.8,1.6-0.8c0.3-0.2,1.7-1.1,1.9-1.3c0,0,0,0.1,0,0c-0.3-0.2-0.6-0.3-1-0.5c-1.3-0.2-2.1-1.4-2.7-2.5
			c-0.6-1.1-1.2-2.2-1.8-3.3C48,56.1,48.4,54.5,49,53.6L49,53.6z"/>
	</g>
	<ellipse transform="matrix(0.8599 -0.5104 0.5104 0.8599 -25.6052 35.6777)" class="st14" cx="52.2" cy="64.5" rx="2.3" ry="0.4"/>
	<g>
		
			<linearGradient id="SVGID_00000126295187848565720540000011808644283138209171_" gradientUnits="userSpaceOnUse" x1="29.516" y1="82.0666" x2="24.6059" y2="73.9753" gradientTransform="matrix(1 0 0 -1 0 139)">
			<stop  offset="0" style="stop-color:#45C900"/>
			<stop  offset="1" style="stop-color:#FF0000"/>
		</linearGradient>
		<path style="fill:url(#SVGID_00000126295187848565720540000011808644283138209171_);" d="M28.5,53.6c0,0,1.2,2.4,0.4,3.8
			s-2.6,4.8-3.7,5.1c-2.3,0.6-1.8,0.9-1.8,0.9l1.9,1.3l1.8,0.9c0,0,0.5,0.3,0-2c-0.3-1.2,1.7-4.5,2.6-5.9c0.9-1.5,3.3-1.5,3.3-1.5"
			/>
		<path d="M28.5,53.6c0.6,1.1,1,2.4,0.5,3.6c-0.6,1.1-1.1,2.2-1.8,3.3c-0.6,1.1-1.4,2.3-2.7,2.5c-0.3,0.1-0.7,0.2-1,0.5
			c0,0.1,0,0,0,0c0.2,0.1,1.8,1.2,1.9,1.3l1.6,0.8c0,0,0.2,0.1,0.1,0.1s-0.1,0-0.1,0c0.1-0.5-0.1-1.1-0.2-1.7c-0.1-0.5,0-1,0.2-1.5
			c0.6-1.7,1.6-3.3,2.6-4.8c0.8-1,2.3-1.4,3.4-1.3c-1.1,0.1-2.4,0.5-3.1,1.4c-0.6,1-1.2,2.1-1.7,3.2c-0.5,1-0.9,2.5-0.6,3.7
			c0.1,0.5,0.2,1.8-0.8,1.3l-1.6-0.8l-1.5-1.1l-0.6-0.4c-0.2-0.2-0.1-0.6,0.1-0.7c0.5-0.3,1.4-0.4,2-0.7c0.8-0.4,1.3-1,1.8-1.7
			c0.8-1.5,2.4-3.1,2.1-5C29,54.7,28.5,54,28.5,53.6L28.5,53.6z"/>
	</g>
	<ellipse transform="matrix(0.5104 -0.8599 0.8599 0.5104 -43.1925 53.3363)" class="st14" cx="25.2" cy="64.6" rx="0.4" ry="2.3"/>
</g>
</svg>
