<?xml version="1.0" encoding="utf-8"?>
<!-- Generator: Adobe Illustrator 26.0.3, SVG Export Plug-In . SVG Version: 6.00 Build 0)  -->
<svg version="1.1" id="Layer_1" xmlns="http://www.w3.org/2000/svg" xmlns:xlink="http://www.w3.org/1999/xlink" x="0px" y="0px"
	 viewBox="0 0 581 140" style="enable-background:new 0 0 581 140;" xml:space="preserve">
<style type="text/css">
	.st0{fill:#4A0077;stroke:#4A0077;stroke-width:2.4808;stroke-linecap:round;stroke-linejoin:round;}
	.st1{fill:#FFFFFF;}
	.st2{fill:#4A0077;}
	.st3{fill:url(#SVGID_1_);stroke:#000000;stroke-width:1.337;stroke-linecap:round;stroke-linejoin:round;}
	.st4{fill:#DA76FF;}
	
		.st5{fill:url(#SVGID_00000044153684488945492610000003590700586007191215_);stroke:#000000;stroke-width:1.337;stroke-linecap:round;stroke-linejoin:round;}
	
		.st6{fill:url(#SVGID_00000044174777062112448740000008859391688034410120_);stroke:#000000;stroke-width:1.337;stroke-linecap:round;stroke-linejoin:round;}
	
		.st7{fill:url(#SVGID_00000020395013924030858440000002642133860299453103_);stroke:#000000;stroke-width:1.337;stroke-linecap:round;stroke-linejoin:round;}
	
		.st8{fill:url(#SVGID_00000119080762151817418250000003548671810557870978_);stroke:#000000;stroke-width:1.337;stroke-linecap:round;stroke-linejoin:round;}
	.st9{fill:#FFFF97;}
	
		.st10{fill:url(#SVGID_00000183952802243065921750000017358794998672565147_);stroke:#000000;stroke-width:1.337;stroke-linecap:round;stroke-linejoin:round;}
	
		.st11{fill:url(#SVGID_00000052091715387488893950000000190525720153353917_);stroke:#000000;stroke-width:1.337;stroke-linecap:round;stroke-linejoin:round;}
	
		.st12{fill:url(#SVGID_00000042726180227779635690000004938539379524244878_);stroke:#000000;stroke-width:1.337;stroke-linecap:round;stroke-linejoin:round;}
	.st13{fill:#95FF50;}
	
		.st14{fill:url(#SVGID_00000161628625894520450680000010778136870989742215_);stroke:#000000;stroke-width:1.337;stroke-linecap:round;stroke-linejoin:round;}
	
		.st15{fill:url(#SVGID_00000092455565346684723420000003637696596273456783_);stroke:#000000;stroke-width:1.337;stroke-linecap:round;stroke-linejoin:round;}
	
		.st16{fill:url(#SVGID_00000182524672674498217330000003803640734261985177_);stroke:#000000;stroke-width:1.337;stroke-linecap:round;stroke-linejoin:round;}
	.st17{stroke:#000000;stroke-width:0.6524;stroke-linecap:round;stroke-linejoin:round;stroke-miterlimit:9.9997;}
	.st18{stroke:#000000;stroke-width:1.337;stroke-linecap:round;stroke-linejoin:round;}
	
		.st19{fill:url(#SVGID_00000080905536248033380730000012154879139519631749_);stroke:#000000;stroke-width:0.932;stroke-linecap:round;stroke-linejoin:round;stroke-miterlimit:10;}
	.st20{fill:#45C900;}
	.st21{fill:url(#SVGID_00000013915522073182152510000008275639732750564280_);}
	.st22{stroke:#000000;stroke-width:0.6524;stroke-linecap:round;stroke-linejoin:round;stroke-miterlimit:10.0001;}
	.st23{fill:url(#SVGID_00000113346414820179181590000000891145982259433098_);}
	.st24{fill:url(#SVGID_00000010989850957816047790000004921918284212747149_);}
	.st25{fill:url(#SVGID_00000093855364491560365160000000715708611386866580_);}
	.st26{fill:url(#SVGID_00000125577068876681990740000014673663822448368802_);}
	.st27{stroke:#000000;stroke-width:0.6524;stroke-linecap:round;stroke-linejoin:round;stroke-miterlimit:10;}
	.st28{fill:url(#SVGID_00000052795101493319961280000007270679331768417716_);}
	.st29{stroke:#000000;stroke-width:0.6524;stroke-linecap:round;stroke-linejoin:round;stroke-miterlimit:9.9998;}
	.st30{fill:url(#SVGID_00000096038639817824191050000004032889954468652693_);}
	.st31{fill:url(#SVGID_00000113323539914936319230000004141908616036413365_);}
	.st32{stroke:#000000;stroke-width:0.6524;stroke-linecap:round;stroke-linejoin:round;stroke-miterlimit:10.0002;}
	.st33{fill:url(#SVGID_00000140710735917026451240000011437352845738082463_);}
	.st34{fill:url(#SVGID_00000004535784824250282890000012083383891829175740_);}
	.st35{stroke:#000000;stroke-width:0.6524;stroke-linecap:round;stroke-linejoin:round;stroke-miterlimit:9.9994;}
	.st36{fill:url(#SVGID_00000109736557210821245850000013799989609366124944_);}
	.st37{fill:url(#SVGID_00000049181148871730411200000001586813508861513900_);}
	.st38{fill:url(#SVGID_00000047018862927733158320000007685104973465460654_);}
	.st39{fill:url(#SVGID_00000001621393991091316830000004441904492136729984_);}
	.st40{stroke:#000000;stroke-width:0.6524;stroke-linecap:round;stroke-linejoin:round;stroke-miterlimit:9.9996;}
	.st41{fill:url(#SVGID_00000018919503651056480220000003867648717242497692_);}
	.st42{fill:url(#SVGID_00000152250164387838158550000013331536958182787247_);}
	
		.st43{fill:url(#SVGID_00000155840418628851865910000010580747238447180715_);stroke:#000000;stroke-width:1.337;stroke-linecap:round;stroke-linejoin:round;}
</style>
<g>
	<path class="st0" d="M578.9,84.8L566,40.1c-2.4-8.2-10-13.9-18.5-13.9c-0.3,0-0.6,0-1,0l-10.6,0.5c-0.2-0.2-0.4-0.4-0.6-0.7
		c-3.2-3.4-7.8-5.4-12.5-5.4c-0.2,0-0.4,0-0.6,0l-4.9,0.2c-8.2,0.3-15.4,4.5-19.8,10.9c-4.5-7.5-12.6-12.2-21.4-12.2
		c-0.4,0-0.8,0-1.2,0l-3,0.1c-0.2-0.2-0.4-0.4-0.6-0.5l-2.7-1.9c-1.4-1-2.8-1.6-4.4-1.9c-0.8-0.2-1.7-0.3-2.5-0.3
		c-0.4,0-0.8,0-1.3,0.1c-0.1,0-0.3,0-0.4,0.1c-0.3,0-0.6,0.1-0.8,0.1c-0.2,0-0.3,0.1-0.5,0.1c-0.3,0.1-0.5,0.1-0.7,0.2
		c-0.2,0.1-0.3,0.1-0.5,0.2c-0.2,0.1-0.5,0.2-0.7,0.3c-0.1,0-0.2,0.1-0.3,0.1v-0.1c-0.1-0.4-0.2-0.8-0.3-1.2v-0.1
		c-0.1-0.4-0.3-0.7-0.4-1c0-0.1-0.1-0.2-0.1-0.3c-0.2-0.3-0.3-0.7-0.6-1l-0.1-0.1c-0.2-0.4-0.5-0.7-0.8-1.1
		c-0.1-0.1-0.2-0.2-0.2-0.3c-0.2-0.3-0.5-0.5-0.8-0.8c-0.1-0.1-0.2-0.2-0.3-0.2c-0.4-0.3-0.8-0.6-1.2-0.9c-0.1-0.1-0.2-0.1-0.3-0.2
		c-0.4-0.2-0.7-0.5-1.2-0.7c-0.1-0.1-0.3-0.1-0.4-0.2c-0.5-0.3-1-0.5-1.6-0.7c-0.5-0.2-1.1-0.4-1.6-0.5c-1.6-0.5-3.2-0.8-4.3-1
		c-0.5-0.1-0.9-0.1-1.4-0.2c-1.4-0.2-2.7-0.3-4-0.3c-0.1,0-0.2,0-0.3,0c-0.5,0-1,0-1.4,0.1c-0.1,0-0.3,0-0.4,0c-0.2,0-0.5,0-0.7,0.1
		c-0.3,0-0.5,0.1-0.8,0.1c-0.2,0-0.4,0-0.5,0.1c-0.5,0.1-1.1,0.2-1.6,0.3l0,0c-0.6,0.2-1.1,0.4-1.6,0.6c-0.1,0-0.2,0.1-0.3,0.1
		c-0.5,0.3-1,0.5-1.4,0.9c-0.1,0.1-0.2,0.1-0.3,0.2c-0.4,0.3-0.9,0.7-1.3,1.1L426.2,9c-0.4,0.4-0.7,0.8-1,1.3l-0.1,0.1
		c-0.1,0-0.1-0.1-0.2-0.1c-0.4-0.3-0.9-0.6-1.3-0.8c0,0,0,0-0.1,0c-0.5-0.2-1-0.5-1.5-0.6c0,0.1-0.2,0.1-0.4,0
		c-0.4-0.1-0.8-0.2-1.2-0.3c-0.2,0-0.3-0.1-0.5-0.1c-0.5-0.1-1.1-0.1-1.6-0.1l0,0c-1.2,0-2.5,0.2-3.7,0.6l-1.9,0.6l-1.2,0.4
		c0,0,0,0-0.1,0c-0.4,0.1-0.9,0.3-1.3,0.5c-0.1,0.1-0.3,0.1-0.4,0.2c-0.3,0.1-0.5,0.3-0.8,0.4c-0.1,0-0.1,0.1-0.2,0.1
		c-0.4,0.1-0.7,0.3-1,0.5c-0.2,0.1-0.4,0.2-0.6,0.3c-0.4,0.2-0.7,0.4-1.1,0.6c0,0-0.1,0-0.1,0.1c-0.3,0.2-0.6,0.3-0.9,0.5
		c-0.2,0.1-0.4,0.2-0.6,0.3c-0.5,0.3-1,0.7-1.4,1.1l0,0c-0.3,0.3-0.6,0.7-0.9,1c-0.1,0.2-0.2,0.3-0.3,0.5c-0.1,0.1-0.1,0.1-0.2,0.2
		c-0.5,0.6-0.8,1.3-1.2,2c-7-3.4-15.7-5.3-25.7-5.3c-9,0-18.6,1.5-27.1,4.3c-5.9,1.9-9.9,7.4-10.2,13.5c0,1.1-0.1,2.2-0.1,3.3
		c-1.3-0.3-2.7-0.5-4.1-0.6c-0.3-5.1-3.4-9.6-8.3-11.5c-2.5-1-5.1-1.7-7.8-2.1c-3.1-0.5-6.2-0.7-9.2-0.7c-8.1,0-15.5,1.5-22,4.6
		c-6.4,3-11.9,7.2-16.3,12.5c-3.3,3.9-5.9,8.3-8,13.2c-0.3,0-0.5,0-0.8,0l-4.1-14c-2.6-9-10.9-15.2-20.3-15.2c-0.4,0-0.7,0-1.1,0
		l-15.1,0.8c-6.2,0.3-11.9,3.4-15.6,8.1c-0.8-2.2-2-4.1-3.6-5.8c-3.1-3.1-7.2-4.9-11.6-4.9c-0.6,0-1.2,0-1.7,0.1L154,24.2
		c-2.8-3.8-7.1-6.4-12-6.9c-1.9-0.2-3.8-0.3-5.8-0.3c-2.4,0-4.9,0.1-7.4,0.4c-8.2,0.9-14.7,2.8-20.3,6c-1.6,0.9-3.2,1.9-4.7,3
		c-1.2,0.1-2.3,0.3-3.5,0.7l-4.8,1.4C89.7,30.3,85,34.2,82.1,39c-0.2-0.1-0.4-0.1-0.6-0.2c-3.3-5.6-8.3-10-14.2-12.5
		c-6.3-2.7-13.4-4.1-21-4.1c-8.8,0-18.5,1.9-27.9,5.5C9.3,31.2,3.6,40.4,4.6,50.1l5.1,51.7c1.1,11.1,9.8,20.1,20.8,21.4
		c3.4,0.4,7.1,0.6,10.8,0.6c8.1,0,26.4-1.1,39-10c3.5,1.2,7.2,1.8,11.1,1.8c3.7,0,7.4-0.5,10.9-1.5c2.2,2.1,5,3.6,8.2,4.3
		c6.6,1.4,11.9,2.1,16.8,2.1l0,0c2.3,0,4.6-0.2,6.7-0.5c0.1,0,0.1,0,0.2,0c9-1.5,16.8-5.1,23-10.2c0.7,0.1,1.3,0.1,2,0.1
		c0.3,0,0.5,0,0.8,0l5-0.3c9.4-0.5,17.2-7.8,18.3-17.2l1.4,0.1c-1.1,5.5,0.1,11.1,3.2,15.8c3.5,5.3,9.2,8.6,15.5,9.2l6.4,0.6
		c0.7,0.1,1.4,0.1,2.1,0.1c7,0,13.4-3.5,17.3-9c3.9,5.4,10.2,8.8,17.1,8.8c0.9,0,1.8-0.1,2.7-0.2l6.3-0.8c6.1-0.8,11.6-4.2,15-9.4
		c0.2-0.2,0.3-0.5,0.4-0.7c3.6,3.4,7.8,6.2,12.5,8.2c5.3,2.3,11,3.4,17,3.4c2.3,0,4.4-0.1,6.4-0.4c6.1-0.9,9.4-2.2,11.4-3
		c3.7-1.5,6.9-3.9,9.2-7c0.8,0,1.6,0.1,2.4,0.1c3.4,0,6.6-0.5,9.7-1.3c0.3,0.4,0.7,0.9,1.1,1.3c2.8,2.8,6.6,4.5,10.6,4.5h15.1
		c4.5,0,8.6-2,11.3-5.3c2,2.3,4.8,3.9,7.8,4.6c0,0.1,0,0.1,0,0.2c0,0.3,0,0.5,0,0.8c0,0.1,0,0.2,0,0.3c0,0.4,0.1,0.7,0.1,1.1
		c0,0.1,0,0.1,0,0.2c0.1,0.8,0.4,1.6,0.7,2.4c0,0.1,0.1,0.2,0.1,0.2c0.1,0.3,0.3,0.6,0.4,0.9c0.1,0.1,0.1,0.2,0.2,0.3
		c0.2,0.3,0.4,0.7,0.6,1c0,0,0,0,0,0.1l0,0l0,0c0.2,0.3,0.4,0.5,0.7,0.8c0.1,0.1,0.2,0.2,0.3,0.4l0.7,0.7l2.5,2.5
		c0.4,0.4,0.9,0.8,1.4,1.2l0.6,0.5l2.1,1.5c2.1,1.5,4.5,2.2,6.9,2.2c0.4,0,0.8,0,1.2-0.1c0.1,0,0.2,0,0.3-0.1c0.3,0,0.5-0.1,0.8-0.1
		c0.1,0,0.3-0.1,0.4-0.1c0.2-0.1,0.5-0.1,0.7-0.2c0.1,0,0.3-0.1,0.4-0.1c0.2-0.1,0.5-0.2,0.7-0.3c0,0,0,0,0.1,0
		c0.3,0.9,0.8,1.8,1.4,2.7v0.1l0,0l0,0c0.4,0.6,1,1.3,1.8,1.9c0.3,0.2,0.5,0.5,0.8,0.7c0.1,0.1,0.2,0.2,0.4,0.3
		c0.4,0.3,0.8,0.6,1.3,0.8c0.1,0.1,0.3,0.2,0.4,0.2c0.3,0.1,0.6,0.3,0.9,0.4c0.4,0.2,0.7,0.3,1.1,0.5l0,0l0,0
		c2.3,0.9,4.5,1.3,5.9,1.5l0,0c1.9,0.3,3.7,0.5,5.4,0.5h0.1c0.3,0,0.5,0,0.7,0l0,0c0.3,0,0.6,0,0.9,0c1.2,0,2.4-0.2,3.5-0.6
		c0.1,0,0.3-0.1,0.4-0.1c0.2-0.1,0.4-0.2,0.5-0.2c0.2-0.1,0.5-0.2,0.7-0.3l0,0l0,0c0.3-0.2,0.7-0.3,1-0.5c0.1-0.1,0.2-0.1,0.3-0.2
		c0.3-0.2,0.7-0.5,1-0.7l0,0c0.3-0.3,0.7-0.6,1-0.9c0.1-0.1,0.2-0.2,0.2-0.3c0.3-0.4,0.6-0.8,0.9-1.2l0,0c0,0,0,0,0.1,0.1
		c0.3,0.3,0.6,0.5,0.9,0.7c0.1,0.1,0.3,0.2,0.4,0.4c0.5,0.3,0.9,0.6,1.5,0.9c1,0.5,2.1,0.9,3.2,1.1c0.7,0.1,1.4,0.2,2,0.2
		c0.9,0,1.8-0.1,2.7-0.3c0.3-0.1,0.6-0.1,0.9-0.2l3.2-1c0.4-0.1,0.8-0.3,1.2-0.5c0.1-0.1,0.2-0.1,0.3-0.2c0.2-0.1,0.3-0.1,0.5-0.2
		c0.2-0.1,0.4-0.2,0.5-0.2c0,0,0.1,0,0.1-0.1c0,0,0.1,0,0.1-0.1c0.2-0.1,0.5-0.2,0.7-0.3c0.1,0,0.2-0.1,0.2-0.1
		c0.5-0.3,1-0.5,1.5-0.8c0.1-0.1,0.3-0.1,0.4-0.2c0.1-0.1,0.3-0.2,0.4-0.3c0,0,0,0,0.1,0c0.1-0.1,0.2-0.1,0.3-0.2
		c0.2-0.1,0.3-0.2,0.5-0.3c0.5-0.3,0.9-0.7,1.4-1.1l0,0l0,0l0,0c0.3-0.3,0.6-0.6,0.8-0.9c0.1-0.1,0.2-0.2,0.3-0.4
		c0.2-0.2,0.3-0.4,0.5-0.6c0.1-0.2,0.2-0.3,0.3-0.5l0,0l0,0c0.1-0.2,0.2-0.4,0.3-0.6c0.1-0.2,0.2-0.3,0.2-0.5c0-0.1,0.1-0.1,0.1-0.2
		c0.3-0.7,0.5-1.4,0.7-2.1c0.4-1.8,0.3-3.7-0.2-5.5h2.9c4,0,7.7-0.9,11.1-2.6c1.2-0.1,2.3-0.4,3.4-0.8c0.1,0,0.2-0.1,0.3-0.1
		c0.1,0,0.2-0.1,0.3-0.1c1.3-0.6,2.5-1.5,3.6-2.6c0.5-0.5,1-1.2,1.4-1.8c0.1-0.2,0.3-0.4,0.5-0.7c0.1-0.1,0.2-0.2,0.2-0.3
		c0.2-0.3,0.5-0.7,0.7-1c0-0.1,0.1-0.1,0.1-0.2c4.7,5.3,11.4,8.5,18.7,8.5c0.8,0,1.5,0,2.3-0.1l5.3-0.5c5.2-0.5,10-2.6,13.7-5.8
		c5-0.3,9.7-2.6,13-6.2c3.6,3.8,8.6,6.1,14,6.1c0.8,0,1.7-0.1,2.5-0.2l5.1-0.7c5.6-0.7,10.5-3.8,13.6-8.5
		C579.6,96,580.4,90.2,578.9,84.8z"/>
	<g>
		<path class="st1" d="M425,135.7c-0.3,0-0.6,0-0.9,0c-0.2,0-0.5,0-0.7,0h-0.1c-1.7,0-3.6-0.2-5.6-0.5c-1.2-0.2-3.6-0.6-6.1-1.6
			c-0.4-0.2-0.8-0.3-1.2-0.5c-0.3-0.1-0.6-0.3-0.9-0.5l-0.1-0.1c-0.1-0.1-0.2-0.1-0.3-0.2c-0.5-0.3-0.9-0.6-1.4-0.9
			c-0.1-0.1-0.4-0.3-0.4-0.3c-0.3-0.2-0.6-0.5-0.9-0.7c-0.7-0.6-1.4-1.3-1.9-2.1c0,0-0.1-0.1-0.1-0.2c-0.4-0.5-0.7-1.1-1.1-1.7
			c0,0,0,0-0.1,0c-0.2,0.1-0.5,0.1-0.7,0.2h-0.2c-0.1,0-0.2,0.1-0.3,0.1c-0.3,0.1-0.6,0.1-0.9,0.1c-0.2,0-0.3,0-0.4,0.1
			c-0.4,0-0.9,0.1-1.3,0.1c-2.7,0-5.3-0.9-7.6-2.5l-2.7-1.9c-0.5-0.4-1.1-0.8-1.5-1.3l-2.5-2.5l-0.7-0.8c-0.1-0.1-0.2-0.2-0.3-0.3
			l-0.2-0.2c-0.2-0.2-0.5-0.5-0.7-0.8c0,0,0-0.1-0.1-0.1c-0.3-0.4-0.5-0.7-0.7-1.1l-0.2-0.3c-0.2-0.3-0.3-0.7-0.5-1l-0.1-0.3
			c-0.3-0.9-0.6-1.8-0.8-2.7v-0.1c-0.1-0.4-0.1-0.8-0.1-1.2v-0.4c-2.4-0.7-4.7-2-6.5-3.8c-3,3-7.1,4.7-11.3,4.7h-15.1
			c-4.3,0-8.5-1.8-11.5-4.8c-0.2-0.2-0.4-0.5-0.7-0.7c-3,0.8-6.1,1.1-9.3,1.1c-0.6,0-1.2,0-1.8,0c-2.5,3-5.7,5.4-9.3,6.8
			c-2,0.8-5.4,2.2-11.7,3c-2.1,0.3-4.3,0.4-6.6,0.4c-6.2,0-12-1.2-17.4-3.5c-4.3-1.8-8.2-4.3-11.8-7.4c-3.6,5.2-9.2,8.6-15.5,9.4
			l-6.3,0.8c-1,0.1-1.9,0.2-2.9,0.2c-6.6,0-12.9-3-17.1-8c-4.3,5.2-10.6,8.2-17.3,8.2c-0.7,0-1.5,0-2.2-0.1l-6.4-0.6
			c-6.7-0.7-12.6-4.2-16.4-9.8c-2.2-3.3-3.5-7.1-3.8-11c-3,7.3-9.9,12.5-18.1,12.9l-5,0.3c-0.3,0-0.6,0-0.9,0c-0.5,0-1,0-1.6-0.1
			c-6.3,5.1-14.3,8.7-23.1,10.2h-0.2c-2.2,0.3-4.5,0.5-6.9,0.5c-4.9,0-10.4-0.7-17.1-2.1c-3-0.7-5.9-2.1-8.2-4.1
			c-3.5,0.9-7,1.4-10.5,1.4c-3.8,0-7.5-0.6-10.9-1.6c-13.1,8.9-31.7,9.9-39.2,9.9c-3.8,0-7.5-0.2-11-0.6
			c-11.6-1.4-20.8-10.9-21.9-22.5l-5-51.5c-1-10.2,5-19.9,14.6-23.6c9.6-3.6,19.4-5.6,28.4-5.6c7.8,0,15,1.4,21.5,4.2
			c5.6,2.3,10.5,6.5,14.1,11.8c3.1-4.6,7.8-8,13.4-9.7l4.8-1.4c1.1-0.3,2.2-0.5,3.4-0.7c1.5-1.1,3-2,4.6-2.9
			c5.8-3.3,12.4-5.2,20.8-6.1c2.6-0.3,5.2-0.4,7.6-0.4c2,0,4.1,0.1,6,0.3c4.8,0.5,9.3,3,12.4,6.8l33-5.4c0.6-0.1,1.3-0.2,1.9-0.2
			c4.7,0,9.2,1.9,12.5,5.2c1.3,1.3,2.3,2.8,3.1,4.4c4-4.2,9.4-6.8,15.2-7l15.1-0.8c0.4,0,0.8,0,1.1,0c9.9,0,18.7,6.6,21.5,16.1
			l3.4,11.9c2-4.2,4.4-8,7.3-11.5c4.5-5.4,10.2-9.7,16.8-12.8c6.6-3.1,14.2-4.7,22.5-4.7c3.1,0,6.2,0.2,9.4,0.7
			c2.8,0.4,5.5,1.1,8.1,2.1c4.9,1.9,8.4,6.4,9,11.5c0.6,0.1,1.2,0.2,1.8,0.3l0.1-1.9c0.2-6.7,4.7-12.6,11-14.7
			c8.6-2.8,18.4-4.4,27.5-4.4c9.6,0,18,1.7,25.2,4.9c0.2-0.4,0.5-0.7,0.7-1.1l0.3-0.4c0.1-0.1,0.2-0.3,0.3-0.4
			c0.3-0.4,0.7-0.8,1-1.1c0,0,0,0,0.1-0.1c0.5-0.5,1-0.9,1.5-1.2c0.1-0.1,0.3-0.2,0.4-0.3l0.2-0.1l0.2-0.1c0.3-0.2,0.5-0.3,0.8-0.4
			c0.4-0.2,0.8-0.4,1.2-0.6c0.2-0.1,0.4-0.2,0.6-0.3c0.4-0.2,0.7-0.3,1.1-0.5h0.1c0.2-0.1,0.4-0.2,0.6-0.3l0.3-0.1
			c0.1-0.1,0.2-0.1,0.3-0.2c0.5-0.2,0.9-0.4,1.4-0.5l3.2-1c1.3-0.4,2.7-0.6,4.1-0.6h0.1c0.5,0,1.1,0.1,1.8,0.1
			c0.2,0,0.3,0.1,0.4,0.1h0.1c0.4,0.1,0.9,0.2,1.3,0.3h0.1c0.1,0,0.3,0.1,0.4,0.1c0.6,0.2,1.2,0.5,1.7,0.7c0,0,0.1,0,0.1,0.1
			c0.2,0.1,0.4,0.2,0.6,0.3c0.2-0.2,0.3-0.4,0.5-0.6c0.1-0.1,0.1-0.1,0.1-0.1c0.4-0.4,0.9-0.8,1.4-1.2c0.1-0.1,0.2-0.2,0.3-0.2
			c0.5-0.4,1-0.7,1.6-1l0.2-0.1c0.7-0.3,1.3-0.6,1.9-0.8c0,0,0,0,0.1,0c0.5-0.2,1.1-0.3,1.7-0.4c0.1,0,0.3,0,0.4,0h0.4
			c0.2,0,0.4,0,0.6-0.1c0.1,0,0.3,0,0.4,0l0.7-0.1c0.5,0,1-0.1,1.5-0.1c0.1,0,0.2,0,0.3,0c1.3,0,2.7,0.1,4.1,0.3
			c0.5,0.1,1,0.1,1.5,0.2c1.1,0.2,2.7,0.5,4.4,1c0.6,0.2,1.1,0.3,1.7,0.6c0.6,0.2,1.1,0.4,1.7,0.8c0.1,0.1,0.3,0.1,0.4,0.2
			c0.4,0.2,0.9,0.5,1.3,0.7c0.1,0.1,0.2,0.1,0.3,0.2c0.4,0.3,0.9,0.6,1.3,1c0.1,0.1,0.3,0.3,0.3,0.3c0.3,0.3,0.6,0.6,0.9,0.9
			c0,0,0.2,0.2,0.3,0.3c0.3,0.4,0.6,0.8,0.9,1.2l0.1,0.1c0.2,0.4,0.4,0.8,0.6,1.1c0.1,0.1,0.1,0.2,0.2,0.3c0.2,0.4,0.3,0.8,0.5,1.2
			c0,0,0,0,0,0.1c0.1,0,0.2-0.1,0.2-0.1c0.3-0.1,0.6-0.2,0.8-0.3c0.2-0.1,0.4-0.1,0.5-0.1c0.3-0.1,0.6-0.1,0.9-0.2h0.1
			c0.1,0,0.2,0,0.3,0c0.5-0.1,1-0.1,1.4-0.1c0.9,0,1.7,0.1,2.8,0.3c1.8,0.4,3.4,1.1,4.8,2.1l2.7,1.9c0.1,0.1,0.2,0.2,0.4,0.3
			l2.5-0.1c0.4,0,0.8,0,1.3,0c8.5,0,16.6,4.3,21.5,11.2c4.8-6,12-9.7,19.7-10l4.9-0.2c0.2,0,0.4,0,0.6,0c5,0,9.9,2.1,13.4,5.8
			c0.1,0.1,0.1,0.2,0.2,0.2l10-0.5c0.3,0,0.7,0,1,0c9.1,0,17.1,6.1,19.7,14.8L577,81.4c1.7,5.7,0.7,11.9-2.5,16.9
			c-3.3,5-8.6,8.3-14.5,9.1l-5.1,0.7c-0.9,0.1-1.8,0.2-2.6,0.2c-5.2,0-10.2-2-14-5.6c-3.4,3.3-7.8,5.3-12.5,5.6
			c-4.1,3.3-8.9,5.3-14.1,5.8l-5.3,0.5c-0.8,0.1-1.6,0.1-2.4,0.1c-6.9,0-13.6-2.8-18.5-7.8l-0.2,0.2c-0.2,0.2-0.3,0.4-0.4,0.6
			c-0.4,0.7-1,1.4-1.5,2c-1.1,1.2-2.5,2.1-3.9,2.8c-0.2,0.1-0.2,0.1-0.3,0.2c-0.1,0-0.2,0.1-0.3,0.1h-0.1c-1.1,0.4-2.3,0.7-3.5,0.8
			c-3.6,1.7-7.4,2.6-11.4,2.6h-1.4c0.2,1.5,0.2,3-0.1,4.5c-0.2,0.8-0.4,1.6-0.7,2.4c0,0.1-0.1,0.1-0.1,0.2c-0.1,0.2-0.2,0.3-0.2,0.5
			c-0.1,0.2-0.2,0.4-0.3,0.6l-0.1,0.1c-0.1,0.2-0.2,0.3-0.3,0.5c-0.2,0.2-0.3,0.5-0.5,0.7l-0.1,0.1c-0.1,0.1-0.2,0.2-0.2,0.3
			c-0.3,0.4-0.6,0.7-0.9,1l-0.1,0.1c-0.4,0.4-0.9,0.8-1.5,1.2c-0.1,0.1-0.3,0.2-0.4,0.3l-0.7,0.4c-0.1,0.1-0.2,0.1-0.3,0.2
			c0,0-0.1,0.1-0.2,0.1l-0.1,0.1c-0.5,0.3-1,0.6-1.6,0.8l-0.5,0.2c-0.2,0.1-0.3,0.2-0.5,0.2c0,0-0.7,0.3-0.8,0.3
			c-0.1,0.1-0.2,0.1-0.3,0.2l-0.3,0.1c-0.1,0-0.2,0.1-0.3,0.1c-0.5,0.2-0.9,0.4-1.4,0.5l-3.2,1c-0.3,0.1-0.7,0.2-1,0.2
			c-0.9,0.2-1.9,0.3-3,0.3c-0.7,0-1.5-0.1-2.2-0.2c-1.2-0.2-2.4-0.6-3.6-1.2c-0.5-0.3-1.1-0.6-1.6-1c-0.1-0.1-0.2-0.2-0.3-0.3
			l-0.1-0.1c-0.1,0.1-0.1,0.2-0.2,0.3s-0.2,0.2-0.3,0.3c-0.4,0.4-0.8,0.8-1.1,1c-0.4,0.3-0.7,0.6-1.2,0.8c-0.1,0.1-0.2,0.1-0.3,0.2
			c-0.4,0.2-0.7,0.4-1.1,0.6l0,0c-0.2,0.1-0.4,0.2-0.6,0.2l-0.4,0.2c-0.1,0.1-0.3,0.1-0.4,0.2c-0.1,0-0.2,0.1-0.3,0.1H429
			C427.6,135.5,426.3,135.7,425,135.7z"/>
		<path class="st2" d="M433.9,2.5c1.2,0,2.6,0.1,4,0.3c0.5,0.1,0.9,0.1,1.4,0.2c1.1,0.2,2.7,0.5,4.3,1c0.5,0.2,1.1,0.3,1.6,0.5
			c0.6,0.2,1.1,0.5,1.6,0.7c0.1,0.1,0.3,0.1,0.4,0.2c0.4,0.2,0.8,0.4,1.2,0.7c0.1,0.1,0.2,0.1,0.3,0.2c0.4,0.3,0.8,0.6,1.2,0.9
			c0.1,0.1,0.2,0.2,0.3,0.2c0.3,0.3,0.5,0.5,0.8,0.8c0.1,0.1,0.2,0.2,0.2,0.3c0.3,0.3,0.6,0.7,0.8,1.1l0.1,0.1
			c0.2,0.3,0.4,0.6,0.6,1c0,0.1,0.1,0.2,0.1,0.3c0.2,0.3,0.3,0.7,0.4,1v0.1c0.1,0.4,0.2,0.8,0.3,1.2v0.1c0.1,0,0.2-0.1,0.3-0.1
			c0.2-0.1,0.5-0.2,0.7-0.3s0.3-0.1,0.5-0.2c0.2-0.1,0.5-0.2,0.7-0.2s0.3-0.1,0.5-0.1c0.3-0.1,0.6-0.1,0.8-0.1c0.1,0,0.3,0,0.4-0.1
			c0.4,0,0.8-0.1,1.3-0.1c0.8,0,1.7,0.1,2.5,0.3c1.5,0.3,3,1,4.4,1.9l2.7,1.9c0.2,0.2,0.4,0.4,0.6,0.5l3-0.1c0.4,0,0.8,0,1.2,0
			c8.8,0,17,4.7,21.4,12.2c4.3-6.4,11.5-10.6,19.8-10.9l4.9-0.2c0.2,0,0.4,0,0.6,0c4.7,0,9.3,2,12.5,5.4c0.2,0.2,0.4,0.4,0.6,0.7
			l10.6-0.5c0.3,0,0.6,0,1,0c8.5,0,16.1,5.7,18.5,13.9L575.9,82c1.6,5.4,0.7,11.2-2.4,15.9c-3.1,4.7-8,7.8-13.6,8.5l-5.1,0.7
			c-0.8,0.1-1.6,0.2-2.5,0.2c-5.4,0-10.5-2.3-14-6.1c-3.3,3.6-7.9,5.9-13,6.2c-3.8,3.2-8.5,5.3-13.7,5.8l-5.3,0.5
			c-0.8,0.1-1.5,0.1-2.3,0.1c-7.3,0-14-3.2-18.7-8.5c0,0.1-0.1,0.1-0.1,0.2c-0.2,0.3-0.4,0.7-0.7,1c-0.1,0.1-0.2,0.2-0.2,0.3
			c-0.2,0.2-0.3,0.5-0.5,0.7c-0.4,0.6-0.9,1.2-1.4,1.8c-1,1.1-2.3,2-3.6,2.6c-0.1,0-0.2,0.1-0.3,0.1c-0.1,0-0.2,0.1-0.3,0.1
			c-1.1,0.4-2.2,0.7-3.4,0.8c-3.3,1.7-7.1,2.6-11.1,2.6h-2.9c0.6,1.8,0.6,3.7,0.2,5.5c-0.2,0.7-0.4,1.4-0.7,2.1
			c0,0.1-0.1,0.1-0.1,0.2c-0.1,0.2-0.1,0.3-0.2,0.5s-0.2,0.4-0.3,0.6l0,0l0,0c-0.1,0.2-0.2,0.3-0.3,0.5c-0.1,0.2-0.3,0.4-0.5,0.6
			c-0.1,0.1-0.2,0.3-0.3,0.4c-0.3,0.3-0.5,0.6-0.8,0.9l0,0l0,0l0,0c-0.4,0.4-0.9,0.8-1.4,1.1c-0.2,0.1-0.3,0.2-0.5,0.3
			c-0.1,0.1-0.2,0.1-0.3,0.2c0,0,0,0-0.1,0c-0.1,0.1-0.3,0.2-0.4,0.3s-0.3,0.1-0.4,0.2c-0.5,0.3-1,0.5-1.5,0.8
			c-0.1,0-0.2,0.1-0.2,0.1c-0.2,0.1-0.5,0.2-0.7,0.3c0,0-0.1,0-0.1,0.1c0,0-0.1,0-0.1,0.1c-0.2,0.1-0.4,0.2-0.5,0.2
			c-0.2,0.1-0.3,0.2-0.5,0.2c-0.1,0.1-0.2,0.1-0.3,0.2c-0.4,0.2-0.8,0.3-1.2,0.5l-3.2,1c-0.3,0.1-0.6,0.2-0.9,0.2
			c-0.9,0.2-1.8,0.3-2.7,0.3c-0.7,0-1.3-0.1-2-0.2c-1.1-0.2-2.2-0.5-3.2-1.1c-0.5-0.3-1-0.6-1.5-0.9c-0.2-0.1-0.3-0.2-0.4-0.4
			c-0.3-0.2-0.6-0.5-0.9-0.7c0,0,0,0-0.1-0.1l0,0c-0.3,0.4-0.6,0.8-0.9,1.2c-0.1,0.1-0.2,0.2-0.2,0.3c-0.3,0.3-0.7,0.7-1,0.9l0,0
			c-0.3,0.3-0.7,0.5-1,0.7c-0.1,0.1-0.2,0.1-0.3,0.2c-0.3,0.2-0.7,0.4-1,0.5l0,0l0,0c-0.2,0.1-0.4,0.2-0.7,0.3
			c-0.2,0.1-0.4,0.2-0.5,0.2s-0.3,0.1-0.4,0.1c-1.1,0.4-2.3,0.6-3.5,0.6c-0.3,0-0.6,0-0.9,0l0,0c-0.2,0-0.5,0-0.7,0h-0.1
			c-1.6,0-3.5-0.2-5.4-0.5l0,0c-1.3-0.2-3.6-0.6-5.9-1.5l0,0l0,0c-0.4-0.1-0.7-0.3-1.1-0.5c-0.3-0.1-0.6-0.3-0.9-0.4
			c-0.1-0.1-0.3-0.1-0.4-0.2c-0.5-0.3-0.9-0.5-1.3-0.8c-0.1-0.1-0.2-0.2-0.4-0.3c-0.3-0.2-0.5-0.4-0.8-0.7c-0.7-0.6-1.3-1.3-1.8-1.9
			l0,0l0,0v-0.1c-0.7-0.9-1.1-1.8-1.4-2.7c0,0,0,0-0.1,0c-0.2,0.1-0.4,0.2-0.7,0.3c-0.1,0-0.3,0.1-0.4,0.1c-0.2,0.1-0.5,0.1-0.7,0.2
			c-0.1,0-0.3,0.1-0.4,0.1c-0.3,0.1-0.5,0.1-0.8,0.1c-0.1,0-0.2,0-0.3,0.1c-0.4,0-0.8,0.1-1.2,0.1c-2.4,0-4.8-0.8-6.9-2.2l-2.1-1.5
			l-0.6-0.5c-0.5-0.3-1-0.7-1.4-1.2L386,118l-0.7-0.7c-0.1-0.1-0.2-0.2-0.3-0.4c-0.2-0.3-0.5-0.5-0.7-0.8l0,0l0,0c0,0,0,0,0-0.1
			c-0.2-0.3-0.4-0.6-0.6-1c-0.1-0.1-0.1-0.2-0.2-0.3c-0.2-0.3-0.3-0.6-0.4-0.9c0-0.1-0.1-0.2-0.1-0.2c-0.3-0.8-0.5-1.6-0.7-2.4
			c0-0.1,0-0.1,0-0.2c-0.1-0.4-0.1-0.7-0.1-1.1c0-0.1,0-0.2,0-0.3c0-0.3,0-0.5,0-0.8c0-0.1,0-0.1,0-0.2c-3-0.7-5.8-2.3-7.8-4.6
			c-2.7,3.2-6.8,5.3-11.3,5.3H348c-4,0-7.8-1.6-10.6-4.5c-0.4-0.4-0.8-0.8-1.1-1.3c-3.1,0.9-6.4,1.3-9.7,1.3c-0.8,0-1.6,0-2.4-0.1
			c-2.4,3-5.5,5.5-9.2,7c-2,0.8-5.3,2.1-11.4,3c-2,0.3-4.1,0.4-6.4,0.4c-6,0-11.7-1.1-17-3.4c-4.7-2-8.9-4.8-12.5-8.2
			c-0.1,0.2-0.3,0.5-0.4,0.7c-3.4,5.2-8.8,8.6-15,9.4l-6.3,0.8c-0.9,0.1-1.8,0.2-2.7,0.2c-6.9,0-13.2-3.4-17.1-8.8
			c-3.9,5.5-10.3,9-17.3,9l0,0c-0.7,0-1.3,0-2-0.1l-6.4-0.6c-6.3-0.6-11.9-4-15.5-9.2c-3.1-4.7-4.2-10.3-3.2-15.8l-1.4-0.1
			c-1.1,9.4-8.9,16.7-18.3,17.2l-5,0.3c-0.3,0-0.5,0-0.8,0c-0.7,0-1.3-0.1-2-0.1c-6.1,5.2-14,8.7-23,10.2c-0.1,0-0.1,0-0.2,0
			c-2.1,0.3-4.4,0.5-6.7,0.5l0,0c-4.8,0-10.2-0.7-16.8-2.1c-3.1-0.7-5.9-2.2-8.2-4.3c-3.5,1-7.2,1.5-10.9,1.5
			c-3.9,0-7.7-0.6-11.1-1.8c-12.6,8.9-30.9,10-39,10c-3.7,0-7.4-0.2-10.8-0.6c-11-1.3-19.8-10.3-20.8-21.4L1.5,47
			c-0.9-9.7,4.7-18.9,13.9-22.3c9.4-3.6,19.1-5.5,27.9-5.5c7.6,0,14.7,1.4,21,4.1c6,2.4,10.9,6.9,14.2,12.5c0.2,0.1,0.4,0.1,0.6,0.2
			c2.8-4.8,7.6-8.7,13.5-10.5l4.8-1.4c1.1-0.3,2.3-0.6,3.5-0.7c1.5-1.1,3-2.1,4.7-3c5.7-3.2,12.1-5.1,20.3-6
			c2.6-0.3,5.1-0.4,7.4-0.4c2,0,4,0.1,5.8,0.3c4.9,0.5,9.2,3.1,12,6.9l33.7-5.6c0.6-0.1,1.1-0.1,1.7-0.1c4.4,0,8.5,1.7,11.6,4.9
			c1.6,1.7,2.9,3.7,3.6,5.8c3.7-4.7,9.3-7.8,15.6-8.1l15.1-0.8c0.4,0,0.7,0,1.1,0c9.3,0,17.7,6.3,20.3,15.2l4.1,14
			c0.3,0,0.5,0,0.8,0c2-4.9,4.7-9.3,8-13.2c4.4-5.3,9.9-9.5,16.3-12.5c6.5-3,13.8-4.6,22-4.6c3,0,6.1,0.2,9.2,0.7
			c2.7,0.4,5.4,1.1,7.8,2.1c4.9,1.9,8.1,6.4,8.3,11.5c1.4,0.1,2.8,0.3,4.1,0.6c0-1.1,0.1-2.2,0.1-3.3c0.2-6.2,4.3-11.6,10.2-13.5
			c8.5-2.8,18.1-4.3,27.1-4.3c10,0,18.7,1.9,25.7,5.3c0.3-0.7,0.7-1.4,1.2-2c0-0.1,0.1-0.1,0.2-0.2c0.1-0.2,0.2-0.3,0.3-0.5
			c0.3-0.4,0.6-0.7,0.9-1l0,0c0.4-0.4,0.9-0.8,1.4-1.1c0.2-0.1,0.4-0.2,0.6-0.3c0.3-0.2,0.6-0.4,0.9-0.5c0,0,0.1,0,0.1-0.1
			c0.3-0.2,0.7-0.4,1.1-0.6c0.2-0.1,0.4-0.2,0.6-0.3c0.3-0.2,0.7-0.3,1-0.5c0.1,0,0.1-0.1,0.2-0.1c0.3-0.2,0.5-0.3,0.8-0.4
			c0.1-0.1,0.3-0.2,0.4-0.2c0.4-0.2,0.8-0.3,1.3-0.5c0,0,0,0,0.1,0l1.2-0.4l1.9-0.6c1.2-0.4,2.5-0.6,3.7-0.6l0,0
			c0.6,0,1.1,0.1,1.6,0.1c0.2,0,0.3,0.1,0.5,0.1c0.4,0.1,0.8,0.2,1.2,0.3c0.2,0,0.3,0.1,0.5,0.2c0.5,0.2,1,0.4,1.5,0.6
			c0,0,0,0,0.1,0c0.5,0.2,0.9,0.5,1.3,0.8c0.1,0,0.1,0.1,0.2,0.1l0.1-0.1c0.3-0.5,0.7-0.9,1-1.3l0.1-0.1c0.4-0.4,0.8-0.8,1.3-1.1
			c0.1-0.1,0.2-0.1,0.3-0.2c0.4-0.3,0.9-0.6,1.4-0.9c0.1,0,0.2-0.1,0.3-0.1c0.5-0.3,1.1-0.5,1.6-0.6l0,0c0.5-0.2,1-0.3,1.6-0.3
			c0.2,0,0.4,0,0.5-0.1c0.3,0,0.5-0.1,0.8-0.1c0.2,0,0.4,0,0.7-0.1c0.1,0,0.3,0,0.4,0C432.9,2.6,433.3,2.5,433.9,2.5
			C433.7,2.5,433.8,2.5,433.9,2.5 M433.9,0c-0.1,0-0.2,0-0.3,0c-0.6,0-1.1,0-1.6,0.1c-0.1,0-0.3,0-0.4,0h-0.1h-0.2
			c-0.1,0-0.3,0-0.4,0c-0.2,0-0.4,0-0.6,0.1h-0.2H430c-0.2,0-0.3,0-0.5,0.1c-0.7,0.1-1.3,0.2-1.8,0.4h-0.1c-0.6,0.2-1.3,0.4-2,0.8
			h-0.1c-0.1,0-0.2,0.1-0.2,0.1c-0.6,0.3-1.2,0.7-1.7,1.1c-0.1,0.1-0.2,0.1-0.3,0.2c-0.6,0.5-1.1,0.9-1.6,1.4l0,0
			c-0.5-0.3-1.1-0.5-1.7-0.7c-0.2-0.1-0.3-0.1-0.5-0.2h-0.1c-0.5-0.1-0.9-0.3-1.4-0.4h-0.1c-0.2,0-0.3-0.1-0.5-0.1
			c-0.7-0.1-1.3-0.2-1.9-0.2h-0.1c-1.5,0-3,0.2-4.5,0.7l-1.8,0.5l-1.2,0.4h-0.1c-0.5,0.2-1,0.4-1.5,0.6C406.2,5,406,5,405.9,5.1
			h-0.1l-0.2,0.1c-0.2,0.1-0.4,0.2-0.6,0.3c-0.4,0.2-0.7,0.3-1.1,0.5c-0.2,0.1-0.4,0.2-0.6,0.3c-0.4,0.2-0.8,0.4-1.2,0.6H402
			c-0.3,0.2-0.6,0.3-0.8,0.5L401,7.5c0,0-0.1,0-0.1,0.1c-0.2,0.1-0.4,0.2-0.5,0.3c-0.6,0.4-1.1,0.9-1.7,1.3l-0.1,0.1
			c-0.4,0.4-0.8,0.8-1.1,1.3c-0.1,0.1-0.2,0.3-0.3,0.5l-0.1,0.1c-0.1,0.1-0.1,0.2-0.2,0.2c-0.1,0.1-0.1,0.2-0.2,0.2
			C389.6,8.6,381.3,7,372,7c-9.3,0-19.2,1.6-27.9,4.5c-6.5,2.1-11.1,7.9-11.8,14.7c-1.4-4.4-4.7-8.1-9.2-9.9c-2.6-1-5.4-1.8-8.3-2.2
			c-3.2-0.5-6.5-0.7-9.6-0.7c-8.5,0-16.2,1.6-23,4.8s-12.6,7.6-17.2,13.2c-2.3,2.7-4.3,5.7-6,8.9l-2.6-8.8c-2.9-10-12.2-17-22.7-17
			c-0.4,0-0.8,0-1.2,0l-15.1,0.8c-5.6,0.3-10.8,2.5-14.8,6.3c-0.7-1.2-1.5-2.2-2.5-3.2c-3.5-3.6-8.3-5.6-13.3-5.6
			c-0.7,0-1.4,0.1-2.1,0.2l-32.3,5.3c-3.3-3.7-7.8-6.1-12.7-6.7c-2-0.2-4-0.3-6.1-0.3c-2.4,0-5,0.1-7.7,0.4
			c-8.6,0.9-15.3,2.9-21.3,6.3c-1.5,0.8-3,1.7-4.4,2.7c-1.1,0.2-2.2,0.4-3.2,0.7l-4.8,1.4c-5.2,1.6-9.7,4.6-13,8.7
			c-3.6-4.9-8.3-8.7-13.6-10.8c-6.6-2.8-14-4.2-21.9-4.2c-9.1,0-19.1,1.9-28.8,5.6C4.3,26.2-2,36.4-1,47.2l5.1,51.7
			c1.2,12.2,10.9,22.2,23,23.6c3.5,0.4,7.3,0.6,11.1,0.6c7.5,0,26.1-1,39.4-9.8c3.4,1,7,1.5,10.7,1.5c3.4,0,6.9-0.4,10.2-1.3
			c2.4,2,5.3,3.3,8.3,4c6.8,1.5,12.3,2.1,17.3,2.1c2.5,0,4.8-0.2,7.1-0.5c0.1,0,0.2,0,0.2,0c8.9-1.5,16.9-5,23.3-10.1
			c0.4,0,0.8,0,1.2,0c0.3,0,0.6,0,0.9,0l5-0.3c7.3-0.4,13.7-4.3,17.4-10.2c0.6,2.7,1.8,5.3,3.4,7.7c3.9,5.9,10.2,9.6,17.3,10.3
			l6.4,0.6c0.8,0.1,1.5,0.1,2.3,0.1c6.6,0,12.9-2.8,17.3-7.6c4.4,4.7,10.6,7.4,17.1,7.4c1,0,2-0.1,3-0.2l6.3-0.8
			c6.2-0.8,11.7-4,15.5-8.8c3.4,2.8,7.1,5,11.1,6.7c5.6,2.4,11.6,3.6,17.9,3.6c2.4,0,4.6-0.1,6.8-0.5c6.4-0.9,9.9-2.3,12-3.1
			c3.6-1.4,6.9-3.8,9.4-6.7c0.4,0,0.9,0,1.3,0c3,0,6-0.3,8.8-1c0.1,0.1,0.1,0.2,0.2,0.2c3.2,3.3,7.7,5.2,12.3,5.2h15.1
			c4.2,0,8.2-1.5,11.4-4.3c1.6,1.3,3.4,2.3,5.3,3c0,0.3,0.1,0.6,0.1,0.8c0,0.1,0,0.1,0,0.2c0.2,1,0.4,2,0.8,3c0,0.1,0.1,0.1,0.1,0.2
			v0.1c0.2,0.4,0.3,0.7,0.5,1.1v0.1c0,0.1,0.1,0.2,0.2,0.3c0.2,0.4,0.5,0.8,0.7,1.1c0,0.1,0.1,0.1,0.1,0.1l0,0l0,0
			c0.3,0.3,0.5,0.6,0.7,0.9l0.1,0.1l0,0c0.1,0.1,0.2,0.3,0.3,0.4l0.7,0.7l2.5,2.5c0.5,0.5,1.1,1,1.7,1.4l0.7,0.5l2.1,1.5
			c2.5,1.8,5.4,2.7,8.3,2.7c0.5,0,1,0,1.4-0.1c0.1,0,0.2,0,0.4-0.1h0.1c0.3,0,0.6-0.1,1-0.2c0.1,0,0.3-0.1,0.4-0.1l0,0
			c0.2,0.3,0.4,0.7,0.7,1c0,0.1,0.1,0.1,0.1,0.2l0,0c0.6,0.8,1.3,1.6,2.1,2.3c0.3,0.3,0.6,0.5,0.9,0.8l0.1,0.1
			c0.1,0.1,0.2,0.2,0.3,0.2c0.5,0.3,1,0.7,1.5,1c0.1,0.1,0.3,0.1,0.4,0.2l0.1,0.1c0.3,0.2,0.6,0.3,1,0.5s0.8,0.3,1.2,0.5h0.1l0,0
			c2.3,0.9,4.5,1.3,6.3,1.6c2,0.3,4,0.5,5.8,0.5c0.1,0,0.1,0,0.2,0c0.2,0,0.4,0,0.6,0c0.3,0,0.7,0,1,0c1.4,0,2.9-0.2,4.3-0.7h0.1
			c0.1,0,0.3-0.1,0.4-0.1c0.2-0.1,0.3-0.1,0.5-0.2l0.1-0.1l0.2-0.1c0.2-0.1,0.4-0.2,0.6-0.3l0,0c0.4-0.2,0.8-0.4,1.2-0.7
			c0.1-0.1,0.2-0.1,0.3-0.2c0.5-0.3,0.8-0.6,1.2-0.9c0,0,0,0,0.1,0c0.3-0.3,0.6-0.6,1-0.9c0.4,0.3,0.9,0.6,1.3,0.8
			c1.2,0.6,2.6,1.1,3.9,1.3c0.8,0.1,1.6,0.2,2.4,0.2c1.1,0,2.2-0.1,3.2-0.4c0.4-0.1,0.7-0.2,1-0.3l3.2-1c0.5-0.1,1-0.3,1.5-0.6
			c0.1-0.1,0.2-0.1,0.3-0.2h0.1l0.1-0.1c0.1-0.1,0.2-0.1,0.3-0.2c0.1,0,0.2-0.1,0.3-0.1l0.2-0.1l0.1-0.1l0.1-0.1
			c0.2-0.1,0.4-0.2,0.6-0.3l0.2-0.1l0.2-0.1h0.1c0.6-0.3,1.2-0.6,1.7-0.9l0.1-0.1c0.1,0,0.2-0.1,0.2-0.1c0.1-0.1,0.2-0.1,0.4-0.2
			h0.1c0,0,0,0,0.1,0l0,0c0.1-0.1,0.2-0.1,0.3-0.2h0.1l0.1-0.1c0.2-0.1,0.3-0.2,0.5-0.3c0.6-0.4,1.1-0.8,1.6-1.3c0,0,0.1,0,0.1-0.1
			l0,0c0,0,0,0,0.1-0.1l0,0c0.3-0.3,0.7-0.7,1-1.1c0.1-0.1,0.2-0.2,0.3-0.4l0.1-0.1c0.2-0.3,0.4-0.5,0.6-0.8
			c0.1-0.2,0.2-0.4,0.3-0.6l0,0v-0.1c0.1-0.2,0.2-0.4,0.4-0.7c0.1-0.2,0.2-0.3,0.2-0.5c0.1-0.1,0.1-0.2,0.1-0.3
			c0.4-0.8,0.6-1.7,0.8-2.6c0.2-1.2,0.3-2.3,0.3-3.5c4.1,0,8-0.9,11.7-2.7c1.2-0.1,2.4-0.4,3.6-0.9l0,0c0.1,0,0.2-0.1,0.3-0.1
			c0.1,0,0.2-0.1,0.3-0.2c1.7-0.8,3.1-1.8,4.3-3.1c0.5-0.6,1-1.2,1.4-1.8c5,4.6,11.6,7.1,18.3,7.1c0.8,0,1.7,0,2.5-0.1l5.3-0.5
			c5.3-0.5,10.3-2.5,14.5-5.9c4.5-0.5,8.6-2.3,12-5.2c3.9,3.3,8.9,5.1,14,5.1c0.9,0,1.9-0.1,2.8-0.2l5.1-0.7
			c6.3-0.8,11.9-4.3,15.4-9.6c3.5-5.3,4.5-11.9,2.7-17.9l-12.9-44.7c-2.7-9.2-11.3-15.7-20.9-15.7c-0.4,0-0.7,0-1.1,0l-9.4,0.5
			c-3.7-3.8-8.8-6-14.1-6c-0.2,0-0.4,0-0.7,0l-4.9,0.2c-7.5,0.3-14.6,3.6-19.6,9.2c-5.2-6.5-13.1-10.5-21.5-10.5c-0.4,0-0.9,0-1.3,0
			l-2,0.1l0,0l-2.7-1.9c-1.6-1.1-3.3-1.9-5.3-2.3C460,8.7,459,8.6,458,8.6c-0.5,0-1,0-1.5,0.1c-0.1,0-0.3,0-0.4,0.1H456
			c-0.4,0.1-0.7,0.1-1,0.2c-0.2,0-0.3,0.1-0.5,0.1h-0.1l0,0c0-0.1-0.1-0.1-0.1-0.2c-0.1-0.1-0.1-0.2-0.2-0.4
			c-0.2-0.4-0.4-0.8-0.7-1.2c0,0-0.1-0.1-0.1-0.2c-0.3-0.4-0.6-0.8-1-1.3c-0.1-0.1-0.1-0.2-0.2-0.2L452,5.5c-0.3-0.3-0.6-0.7-1-1
			l-0.1-0.1c-0.1-0.1-0.2-0.1-0.2-0.2c-0.4-0.4-0.9-0.8-1.4-1.1c-0.1-0.1-0.2-0.1-0.2-0.2H449c-0.4-0.3-0.9-0.5-1.4-0.8
			c0.6,1,0.4,0.9,0.3,0.9c-0.7-0.3-1.3-0.6-1.9-0.8s-1.1-0.4-1.8-0.6c-1.8-0.5-3.5-0.9-4.6-1c-0.5-0.1-1-0.2-1.5-0.2
			C436.7,0.1,435.2,0,433.9,0L433.9,0z"/>
	</g>
	<path d="M399.3,72.1c6.9-5.2,10.5-12.9,10.2-21.9c-0.6-29.7-37-30.5-59-23.3c-1.6,0.5-2.7,2-2.8,3.7c-0.2,6.6-0.4,13.1-0.6,19.7
		c-2.2-2.1-4.9-3.8-8-5c-3.2-1.2-6.8-1.8-10.8-1.8c-2.4,0-4.8,0.3-7,1c-0.3,0.1-0.5,0.2-0.8,0.3l0,0L322,34c0.1-1.1-0.5-2.1-1.5-2.5
		c-1.7-0.7-3.6-1.2-5.5-1.5c-2.6-0.4-5.1-0.6-7.6-0.6c-6.6,0-12.3,1.2-17.4,3.5c-5,2.4-9.3,5.6-12.7,9.7c-3.4,4.1-6,8.8-7.7,14.3
		c-0.3,0.9-0.5,1.8-0.8,2.7l-16.6,0.3L245.8,38c-1.3-4.6-5.7-7.7-10.5-7.5l-15.1,0.8c-4.4,0.2-8.2,3.2-9.4,7.4l-6.3,21
		c-0.5-0.1-1-0.1-1.5-0.1L175.8,60c-0.6,0-1.2,0.1-1.8,0.3l0.4-6.5l9.8-0.3c2.8-0.1,5.4-3.1,7.2-7.4s3.1-12,3.1-12
		c0.1-3-2.4-5.5-5.4-5.5l-45.3,7.5c-1.8,0.3-3.1,0.9-4,1.8c1-1.1,2.4-1.8,4-1.8l2.7-0.4l-0.2-2.2c-0.3-3.1-2.7-5.7-5.8-6
		c-3.7-0.4-7.4-0.3-11,0.1c-5.7,0.6-11.3,1.8-16.3,4.7c-2.3,1.2-4.3,2.7-6.1,4.4c-1.3-0.3-2.7-0.3-4.1,0.1l-4.8,1.4
		c-6,1.8-9.8,7.5-8.5,12.9c3.6,14.8,3.5,18.2,4,25.6c0.1,2.2-2.8,3.3-4.1,1.5c-0.8-1.1-1.6-2.3-2.1-3.4c-3.1-7.6-4.7-15.4-6.1-23.3
		c-0.4-2.4-4.4-3.7-7.7-3.6c-1.8-5.3-5.7-10.1-11.1-12.3c-12.7-5.4-28-3.4-41,1.5c-4.6,1.7-7.4,6.3-7,11.2l5.1,51.7
		c0.6,6.1,5.3,11,11.4,11.8c15.5,1.9,38.2-0.8,46.8-11.6c1,0.7,2,1.3,3.1,1.8c7.8,3.7,18.4,2.2,25.7-2.7l0.1,1.8
		c0.2,3,2.4,5.4,5.3,6c6.4,1.4,13.4,2.4,19.6,1.5c9.6-1.6,17.8-6.2,22.7-13.1c0.6,1.7,2.3,3,4.3,2.9l5-0.3c4.4-0.2,7.9-3.7,8.3-8
		l0.7-10.2c0.9,0.4,1.9,0.6,2.9,0.7l22.6,1l-3.3,11.1c-1.9,6.2,2.4,12.7,8.9,13.3l6.4,0.6c5.2,0.5,10-3,11.1-8.1l0.8-3.5h12.5l1,3.6
		c1.3,5,6.2,8.3,11.3,7.6l6.3-0.8c6.3-0.8,10.4-7.1,8.6-13.2l-3.2-11.1l9.3,0.4c0.4,1.9,1,3.7,1.7,5.4c1.7,4,3.9,7.5,6.8,10.4
		s6.3,5.2,10.3,6.9c3.9,1.7,8.2,2.5,12.7,2.5c1.6,0,3.2-0.1,4.9-0.3c4.9-0.7,7.3-1.6,8.9-2.3c3.8-1.5,6.5-5,6.9-9.1
		c0.5,0.2,1.1,0.4,1.7,0.5c2.2,0.6,4.5,0.9,7,0.9s4.9-0.3,7.2-1c2.3-0.7,4.3-1.6,6.3-2.8c1.5-0.9,2.8-2,4.1-3.2
		c-0.1,2.4-0.1,4.9-0.2,7.3c-0.1,2.3,1.8,4.1,4,4.1h15.1c2.2,0,3.9-1.7,4-3.9l0.6-14.8c0.1-2.1,1.8-3.8,3.9-3.9
		c1.7-0.1,3.3,1,3.9,2.7l6.1,16.9c0.7,1.9,2.6,3,4.6,2.6l15.3-3c2.7-0.5,4.1-3.5,2.7-5.9c-2.5-4.4-6.1-10.8-8.2-14.7
		C397.3,75.5,397.7,73.3,399.3,72.1z M40.4,56.7c3.7-2.7,10.2-1.6,10.7,3.7c0.8,5.7-5.5,7.8-9.9,8.2L40.4,56.7z M52.9,87.8
		c-1.8,3.6-6.2,4.2-9.8,3.7l-1-12.2c0.9-0.3,1.9-0.5,3-0.6C50.9,77.8,55,82.2,52.9,87.8z M134.3,82.5c-1.1,1.4-2.9,2.1-4.6,2.6
		c-4.2,1-8.8,1.4-13.4,1.1c0.9-2.5,1.5-5.1,1.8-7.7c1.6,0.1,3.3-0.1,4.9-0.4c2.7-0.5,6.1-1.1,8.9-0.5
		C134.4,78,135.7,80.5,134.3,82.5z M154.2,64c-4-4.9-10.3-7.4-17.4-6.4c-3.4,0.4-7.5,1.6-11.1,1.2c-3.5-0.2-5-3.6-2-5.7
		c4.4-2.5,9.4-3.4,14.6-3.5l0,0c-0.1,3.1,2.5,5.7,5.7,5.5l10.3-0.3L154.2,64z M230.2,78.3h-3.4c-3.1,0-5.4-2.9-4.7-5.9l3.8-17
		c0.2-3.5,5.3-3.4,5.5,0l3.6,17C235.5,75.5,233.2,78.3,230.2,78.3z M306.2,57.2c-1.1,2-1.9,4.1-2.5,6.4c-0.6,2.3-0.9,4.6-0.9,6.9
		c0,2.4,0.3,4.7,0.9,7c0.4,1.6,1,3.1,1.7,4.6c-0.2,0-0.3,0-0.5,0c-1.8,0-3.4-0.2-4.8-0.6c-1.5-0.4-2.7-1.1-3.8-2
		c-1.1-0.9-1.9-2-2.5-3.4s-0.9-3-0.9-4.8c0-2.9,0.5-5.4,1.6-7.6c1.1-2.1,2.6-3.9,4.4-5.4c1.8-1.4,4-2.5,6.4-3.2
		c0.8-0.2,1.6-0.4,2.4-0.6l0,0C307.2,55.5,306.7,56.3,306.2,57.2z M335.9,74.1c-0.4,1.1-0.9,2.1-1.6,3s-1.6,1.5-2.6,2
		s-2.2,0.8-3.4,0.8c-1.3,0-2.4-0.3-3.4-0.9s-1.8-1.3-2.4-2.2c-0.7-0.9-1.1-2-1.5-3.1c-0.3-1.1-0.5-2.3-0.5-3.4
		c0-1.2,0.2-2.3,0.6-3.4s0.9-2,1.6-2.8c0.7-0.8,1.6-1.4,2.6-1.9s2.1-0.7,3.4-0.7c1.2,0,2.4,0.3,3.3,0.8c1,0.5,1.8,1.2,2.4,2.1
		c0.7,0.9,1.1,1.8,1.5,2.9c0.3,1.1,0.5,2.2,0.5,3.4C336.5,71.8,336.3,72.9,335.9,74.1z M385.4,51.9c0.1,5.7-4.6,8.8-9.6,9.8
		c-2.6,0.5-5-1.5-4.8-4.1c0.2-3.7,0.4-8.9,0.5-12.3c0.1-2.1,1.8-3.9,4-3.9C381,41.6,385.8,45.7,385.4,51.9z M567.9,87.2L555,42.6
		c-1.1-3.8-4.7-6.3-8.6-6.1l-12.3,0.6c-2.1,0.1-4.1,1-5.5,2.4l0.1-1.7c0.2-3.8-2.9-7-6.7-6.8l-4.9,0.2c-7.5,0.3-13.5,6.3-13.7,13.8
		l-0.5,19.8c0,0.8-1.2,1.1-1.5,0.3l-13.1-27.2c-2.5-5.1-7.8-8.3-13.5-8l-11.5,0.5c-3.4,0.2-6.1,2.9-6.2,6.3l-1.8,70.2h10.8
		c7.5,0,13.7-5.8,14.2-13.3l1.6-26.4l11.2,29c2.3,5.9,8.2,9.6,14.5,9l5.3-0.5c4.3-0.4,8-2.7,10.4-6l2.3,0.2c4.3,0.4,8.2-2.4,9.1-6.6
		l0.6-2.8h10.3l0.8,3c1.1,4.1,5.1,6.8,9.3,6.2l5.1-0.7C566,97.3,569.4,92.2,567.9,87.2z M542.1,75.7h-2.8c-2.6,0-4.4-2.4-3.9-4.9
		l3.1-13.9c0.2-2.8,4.4-2.8,4.5,0l2.9,13.9C546.5,73.3,544.6,75.7,542.1,75.7z"/>
	<g>
		
			<linearGradient id="SVGID_1_" gradientUnits="userSpaceOnUse" x1="304.2722" y1="45.5891" x2="339.8123" y2="88.9307" gradientTransform="matrix(1 0 0 -1 0 140)">
			<stop  offset="0" style="stop-color:#4A0077"/>
			<stop  offset="9.705108e-02" style="stop-color:#630097"/>
			<stop  offset="0.2283" style="stop-color:#8000BD"/>
			<stop  offset="0.3597" style="stop-color:#9700DA"/>
			<stop  offset="0.4897" style="stop-color:#A700EE"/>
			<stop  offset="0.6175" style="stop-color:#B100FB"/>
			<stop  offset="0.7406" style="stop-color:#B400FF"/>
		</linearGradient>
		<path class="st3" d="M352.1,67.1c0,2.5-0.3,4.9-0.9,7.1c-0.6,2.3-1.4,4.4-2.5,6.5c-1.1,2-2.4,3.8-3.9,5.5s-3.3,3.1-5.2,4.3
			c-1.9,1.2-4,2.1-6.3,2.8c-2.3,0.7-4.6,1-7.2,1c-2.4,0-4.8-0.3-7-0.9s-4.3-1.5-6.2-2.6c-1.9-1.1-3.7-2.5-5.2-4.1s-2.9-3.4-4-5.3
			s-2-4-2.6-6.3c-0.6-2.2-0.9-4.5-0.9-7c0-2.4,0.3-4.7,0.9-6.9c0.6-2.3,1.4-4.4,2.5-6.4s2.4-3.9,3.9-5.5c1.5-1.7,3.2-3.1,5.1-4.4
			c1.9-1.2,3.9-2.2,6.1-2.9s4.5-1,7-1c3.9,0,7.5,0.6,10.8,1.8c3.2,1.2,6,3,8.3,5.2c2.3,2.3,4.1,5,5.3,8.2
			C351.5,59.5,352.1,63.1,352.1,67.1z M334,68.1c0-1.2-0.2-2.3-0.5-3.4s-0.8-2.1-1.5-2.9c-0.7-0.9-1.5-1.5-2.4-2.1
			c-1-0.5-2.1-0.8-3.3-0.8c-1.3,0-2.4,0.2-3.4,0.7s-1.9,1.1-2.6,1.9c-0.7,0.8-1.3,1.7-1.6,2.8c-0.4,1.1-0.6,2.2-0.6,3.4
			c0,1.1,0.2,2.3,0.5,3.4s0.8,2.2,1.5,3.1s1.5,1.7,2.4,2.2s2.1,0.9,3.4,0.9s2.4-0.3,3.4-0.8s1.9-1.2,2.6-2c0.7-0.9,1.2-1.8,1.6-3
			C333.8,70.5,334,69.3,334,68.1z"/>
		<path class="st4" d="M319.7,77.3c-2.5-2.4-3.9-5.7-3.8-9.2c-3.2-3.9-3.6,10.1,0.9,12.1c4.1,3.2,8.6,3.3,11.2,1.4
			c0.9-0.7,0.4-2.2-0.7-2.1C324.9,79.7,321.7,79.2,319.7,77.3z"/>
		<path class="st4" d="M346.5,57.4c-4.9-13.7-23.4-16.3-33.7-7.8c-1,0.8,0,2.3,1.1,1.7c13.8-7.5,31.6,4.2,31.8,19.5
			C349.7,75.3,347.8,59,346.5,57.4z"/>
		
			<linearGradient id="SVGID_00000082327589817139116180000003719731610047206315_" gradientUnits="userSpaceOnUse" x1="450.8901" y1="38.7963" x2="517.2026" y2="105.5424" gradientTransform="matrix(1 0 0 -1 0 140)">
			<stop  offset="0" style="stop-color:#4A0077"/>
			<stop  offset="9.705108e-02" style="stop-color:#630097"/>
			<stop  offset="0.2283" style="stop-color:#8000BD"/>
			<stop  offset="0.3597" style="stop-color:#9700DA"/>
			<stop  offset="0.4897" style="stop-color:#A700EE"/>
			<stop  offset="0.6175" style="stop-color:#B100FB"/>
			<stop  offset="0.7406" style="stop-color:#B400FF"/>
		</linearGradient>
		
			<path style="fill:url(#SVGID_00000082327589817139116180000003719731610047206315_);stroke:#000000;stroke-width:1.337;stroke-linecap:round;stroke-linejoin:round;" d="
			M526.2,35.3l-2.8,53.5c-0.4,7-5.9,12.7-12.9,13.4l-5.3,0.5c-6.3,0.6-12.2-3.1-14.5-9l-11.2-29l-1.6,26.4
			c-0.4,7.5-6.7,13.3-14.2,13.3h-10.8l1.8-70.2c0.1-3.4,2.8-6.1,6.2-6.3l11.5-0.5c5.7-0.3,11,2.9,13.5,8L499,62.6
			c0.4,0.8,1.5,0.5,1.5-0.3l0.5-19.8c0.2-7.5,6.2-13.6,13.7-13.8l4.9-0.2C523.3,28.4,526.4,31.5,526.2,35.3z"/>
		<path class="st4" d="M498.5,73.8c1,0.8,2.4-0.3,1.8-1.5l-18.5-35.9c-1.8-3.7-5.6-6-9.7-5.9c-0.1,0-0.2,0-0.3,0
			c-2,0.5-8.3-0.4-11.7,0.7c-1.8,0.6-1.2,3.2,0.6,3.1c6.6-0.4,15.8,0,20,8.6s9.7,19,14.1,27.4C495.5,71.3,496.9,72.6,498.5,73.8z"/>
		<path class="st4" d="M519.7,31.8c-3.1,0-5.6,0.3-9.1,2c-1.6,0.8-0.9,3.3,0.9,3c3.9-0.7,7.9,7.1,7.9,11.8s-3.1,49.9-4.5,47.9
			c2.5-1.8,4.2-4.6,4.4-7.8l3.4-48.3C523,34.6,522.8,31.8,519.7,31.8z"/>
		<path class="st4" d="M473.5,58.2c-0.5,3.6-0.9,27.2-7.7,40.6c-1.5,2.9,8.2-0.2,8.6-3.4c1.4-10.9,3.1-31.9,3.2-39.5
			c0-1.4-1.8-2-2.6-0.9C474.2,56,473.6,57.1,473.5,58.2z"/>
		
			<linearGradient id="SVGID_00000143589549605161966720000012287191128713155251_" gradientUnits="userSpaceOnUse" x1="520.0677" y1="38.8163" x2="550.8403" y2="83.8915" gradientTransform="matrix(1 0 0 -1 0 140)">
			<stop  offset="0" style="stop-color:#4A0077"/>
			<stop  offset="9.705108e-02" style="stop-color:#630097"/>
			<stop  offset="0.2283" style="stop-color:#8000BD"/>
			<stop  offset="0.3597" style="stop-color:#9700DA"/>
			<stop  offset="0.4897" style="stop-color:#A700EE"/>
			<stop  offset="0.6175" style="stop-color:#B100FB"/>
			<stop  offset="0.7406" style="stop-color:#B400FF"/>
		</linearGradient>
		
			<path style="fill:url(#SVGID_00000143589549605161966720000012287191128713155251_);stroke:#000000;stroke-width:1.337;stroke-linecap:round;stroke-linejoin:round;" d="
			M558.4,95.5l-5.1,0.7c-4.2,0.5-8.2-2.1-9.3-6.2l-0.8-3h-10.3l-0.6,2.8c-0.9,4.2-4.8,7-9.1,6.6l-5.2-0.5c-5.3-0.5-8.8-5.8-7.3-10.9
			L524,40.6c1-3.4,4.1-5.9,7.7-6.1l12.3-0.6c3.9-0.2,7.5,2.3,8.6,6.1l12.9,44.7C566.9,89.7,563.6,94.9,558.4,95.5z M539.6,73.2
			c2.5,0,4.4-2.3,3.9-4.8l-2.9-13.9c-0.1-2.8-4.3-2.9-4.5,0L533,68.4c-0.6,2.5,1.3,4.9,3.9,4.9L539.6,73.2L539.6,73.2z"/>
		<path class="st4" d="M561.5,81.2l-11.3-38.9c-1-3.3-4-5.5-7.5-5.3c-3,0.4-7.9-0.1-11.8,0.8c-2.5,0.6-2.2,2.5,0.3,2.4
			c3.1-0.2,8.2-0.2,9.4-0.4c3.4-0.2,6.7,2,7.5,5.3c11.2,45.7,3.6,41.2,7.3,45.4c3.8,4.2,6.7-0.4,7.3-2.5
			C563,86.7,561.8,82.5,561.5,81.2z"/>
		
			<linearGradient id="SVGID_00000095320888453202036860000015634811844539156906_" gradientUnits="userSpaceOnUse" x1="275.052" y1="34.6586" x2="314.9262" y2="108.3393" gradientTransform="matrix(1 0 0 -1 0 140)">
			<stop  offset="0" style="stop-color:#4A0077"/>
			<stop  offset="9.705108e-02" style="stop-color:#630097"/>
			<stop  offset="0.2283" style="stop-color:#8000BD"/>
			<stop  offset="0.3597" style="stop-color:#9700DA"/>
			<stop  offset="0.4897" style="stop-color:#A700EE"/>
			<stop  offset="0.6175" style="stop-color:#B100FB"/>
			<stop  offset="0.7406" style="stop-color:#B400FF"/>
		</linearGradient>
		
			<path style="fill:url(#SVGID_00000095320888453202036860000015634811844539156906_);stroke:#000000;stroke-width:1.337;stroke-linecap:round;stroke-linejoin:round;" d="
			M306.7,79.3c-1.4,0.3-2.8,0.4-4.1,0.4c-1.8,0-3.4-0.2-4.8-0.6c-1.5-0.4-2.7-1.1-3.8-2c-1.1-0.9-1.9-2-2.5-3.4s-0.9-3-0.9-4.8
			c0-2.9,0.5-5.4,1.6-7.6c1.1-2.1,2.6-3.9,4.4-5.4c1.8-1.4,4-2.5,6.4-3.2c0.8-0.2,1.6-0.4,2.4-0.6c0.7-1,1.5-2,2.3-2.9
			c1.5-1.7,3.2-3.1,5.1-4.4c1.7-1.1,3.4-1.9,5.3-2.6l0,0l1.4-10.8c0.1-1.1-0.5-2.1-1.5-2.5c-1.7-0.7-3.6-1.2-5.5-1.5
			c-2.6-0.4-5.1-0.6-7.6-0.6c-6.6,0-12.3,1.2-17.4,3.5s-9.3,5.6-12.7,9.7c-3.4,4.1-6,8.8-7.7,14.3c-1.8,5.4-2.6,11.2-2.6,17.3
			c0,4.6,0.8,8.9,2.5,12.9s3.9,7.5,6.8,10.4s6.3,5.2,10.3,6.9c3.9,1.7,8.2,2.5,12.7,2.5c1.6,0,3.2-0.1,4.9-0.3
			c4.9-0.7,7.3-1.6,8.9-2.3c4.1-1.6,6.8-5.5,7-9.9l-0.1-9.5c0-3.6-3.7-6.1-7.1-4.7C308.7,78.6,307.2,79.2,306.7,79.3z"/>
		<path class="st4" d="M310.4,39.8c1.2,4.4,4.7,2,5.7-0.4l0.8-7.1c-1.2-3.6-6.4-3.2-13.8-3.2c-12.6-0.8-31.4,12.2-32.8,28.3
			c0.4,2.3,2-1.1,3-3.7C277.9,39.6,303,26,310.4,39.8z"/>
		<path class="st4" d="M288.3,75.5c-7.7-8.3,9.9-27.1,0.9-19.9c-7.8,5.8-11.2,24.8,1.3,26.5c3.6,0.5,7.2,0.3,6.8-0.1
			C295.1,80.2,293,82.4,288.3,75.5z"/>
		<path class="st4" d="M305.2,82.6c4.8-0.5,6.5-3.2,8.5-1.6s1.4,2.7,1.1,5.2s0.3,8-1.3,8.9c-1.6,0.9-2.9-0.7-2.4-5.1
			s-2.4-5.9-4.2-6.1C305.1,83.7,300.3,83.1,305.2,82.6z"/>
		<path class="st4" d="M535.8,76.5c-12.3,1.5-11.5-1.5-8.8-7.7c1.2-2.6,7.6-21.5,7-16.8s-4.7,17.6-3.1,20.4c1.4,2.1,2.8,2.3,5.3,2.7
			S537.3,76.4,535.8,76.5z"/>
		<path class="st4" d="M521.9,94.2c-1,0-1.4-0.6-1.5-0.9c-0.4-1,0.5-1.7,1.7-2.7c0.7-0.6,1.5-1.3,2-1.9c0.6-0.7,1-1.4,1.4-2
			c0.6-1,1.3-2.1,2.5-2.2c0.1,0,0.2,0,0.4,0c0.7,0,1.2,0.3,1.6,0.8c0.6,0.9,0.2,2.1-0.2,2.9c-1.5,3.3-4.1,5.6-7,6
			C522.4,94.2,522.1,94.2,521.9,94.2z"/>
	</g>
	<g>
		
			<linearGradient id="SVGID_00000114795556776048483750000016085471229937421482_" gradientUnits="userSpaceOnUse" x1="245.9306" y1="74.8078" x2="277.2718" y2="52.2196">
			<stop  offset="0" style="stop-color:#FF9B00"/>
			<stop  offset="0.5547" style="stop-color:#FFFF00"/>
		</linearGradient>
		
			<path style="fill:url(#SVGID_00000114795556776048483750000016085471229937421482_);stroke:#000000;stroke-width:1.337;stroke-linecap:round;stroke-linejoin:round;" d="
			M240.9,57.6l27.4-0.5c4.5-0.1,8.1,3.5,8.1,8l-0.1,6.5c-0.1,4.5-3.8,8-8.3,7.8l-27.4-1.3c-4.3-0.2-7.6-3.7-7.6-8l0.1-4.7
			C233.2,61.1,236.6,57.6,240.9,57.6z"/>
		<path class="st9" d="M261.7,65c3.3,0.1,6,2.8,6.1,6.1l0,0c0,2.7,4,3.1,4.4,0.5c0.1-0.4,0.1-0.7,0.1-1.1v-3.7
			c0-3.3-2.7-6.1-6.1-6.1l-21.4-0.4h-0.1c-3,0-2.9,4.5,0.1,4.6C251.6,64.9,261.7,65,261.7,65z"/>
		
			<linearGradient id="SVGID_00000049201138734382534040000001437564400902125441_" gradientUnits="userSpaceOnUse" x1="207.1823" y1="109.8836" x2="271.5586" y2="4.0014">
			<stop  offset="0" style="stop-color:#FF9B00"/>
			<stop  offset="2.808732e-02" style="stop-color:#FFA600"/>
			<stop  offset="0.1225" style="stop-color:#FFC600"/>
			<stop  offset="0.2204" style="stop-color:#FFDF00"/>
			<stop  offset="0.3221" style="stop-color:#FFF100"/>
			<stop  offset="0.4301" style="stop-color:#FFFC00"/>
			<stop  offset="0.5547" style="stop-color:#FFFF00"/>
		</linearGradient>
		
			<path style="fill:url(#SVGID_00000049201138734382534040000001437564400902125441_);stroke:#000000;stroke-width:1.337;stroke-linecap:round;stroke-linejoin:round;" d="
			M250.6,103.1l-6.3,0.8c-5.2,0.7-10-2.6-11.3-7.6l-1-3.6h-12.5l-0.8,3.5c-1.1,5.1-5.9,8.6-11.1,8.1l-6.4-0.6
			c-6.5-0.6-10.8-7-8.9-13.3l16.2-54.2c1.3-4.2,5-7.2,9.4-7.4L233,28c4.8-0.2,9.1,2.9,10.5,7.5L259.2,90
			C261,96.1,256.9,102.3,250.6,103.1z M227.7,75.9c3.1,0,5.4-2.8,4.8-5.9l-3.6-17c-0.2-3.5-5.3-3.5-5.5,0l-3.8,17
			c-0.7,3,1.6,5.9,4.7,5.9H227.7z"/>
		<path class="st9" d="M254.3,85.6l-13.8-47.5c-1.2-4-4.9-6.7-9.1-6.5c-3.7,0.5-9.7-0.1-14.4,1c-3,0.7-2.7,3.1,0.4,2.9
			c3.8-0.2,10-0.2,11.5-0.5c4.2-0.2,8.1,2.4,9.1,6.5c13.7,55.8,4.4,50.3,9,55.4s8.2-0.5,8.9-3.1C256.3,92.4,254.8,87.2,254.3,85.6z"
			/>
		<path class="st9" d="M223.1,80c-15,1.8-14.1-1.8-10.7-9.4c1.4-3.2,9.3-26.3,8.5-20.5s-5.7,21.5-3.8,24.8c1.7,2.6,3.4,2.8,6.4,3.2
			C226.5,78.6,224.9,79.7,223.1,80z"/>
		<path class="st9" d="M206.1,101.5c-1.3,0-1.7-0.7-1.8-1.1c-0.4-1.2,0.6-2.1,2.1-3.3c0.8-0.7,1.8-1.5,2.5-2.3
			c0.7-0.9,1.2-1.7,1.7-2.5c0.8-1.3,1.5-2.6,3.1-2.7c0.1,0,0.3,0,0.5,0c0.8,0,1.5,0.4,1.9,1c0.7,1.1,0.2,2.6-0.2,3.6
			c-1.8,4-5,6.8-8.6,7.3C206.7,101.5,206.3,101.5,206.1,101.5z"/>
		
			<linearGradient id="SVGID_00000155833398214433422920000005873590931622141825_" gradientUnits="userSpaceOnUse" x1="167.0411" y1="79.4978" x2="218.9939" y2="50.9802">
			<stop  offset="0" style="stop-color:#FF9B00"/>
			<stop  offset="0.5547" style="stop-color:#FFFF00"/>
		</linearGradient>
		
			<path style="fill:url(#SVGID_00000155833398214433422920000005873590931622141825_);stroke:#000000;stroke-width:1.337;stroke-linecap:round;stroke-linejoin:round;" d="
			M173.3,57.6l27.4-0.5c4.5-0.1,8.1,3.5,8.1,8l-0.1,6.5c-0.1,4.5-3.8,8-8.3,7.8L173,78.1c-4.3-0.2-7.6-3.7-7.6-8l0.1-4.7
			C165.6,61.1,169,57.6,173.3,57.6z"/>
		<path class="st9" d="M194.2,65c3.3,0.1,6,2.8,6.1,6.1l0,0c0,2.7,4,3.1,4.4,0.5c0.1-0.4,0.1-0.7,0.1-1.1v-3.7
			c0-3.3-2.7-6.1-6.1-6.1l-21.4-0.4h-0.1c-3,0-2.9,4.5,0.1,4.6C184,64.9,194.2,65,194.2,65z"/>
	</g>
	<g>
		
			<linearGradient id="SVGID_00000173849430056407580880000012580080903437198506_" gradientUnits="userSpaceOnUse" x1="146.068" y1="70.4579" x2="170.3393" y2="91.6953" gradientTransform="matrix(1 0 0 -1 0 140)">
			<stop  offset="0" style="stop-color:#177E00"/>
			<stop  offset="7.316322e-02" style="stop-color:#1E8900"/>
			<stop  offset="0.3937" style="stop-color:#3AB700"/>
			<stop  offset="0.5547" style="stop-color:#45C900"/>
		</linearGradient>
		
			<path style="fill:url(#SVGID_00000173849430056407580880000012580080903437198506_);stroke:#000000;stroke-width:1.337;stroke-linecap:round;stroke-linejoin:round;" d="
			M192,31.7c0,0-1.2,7.7-3.1,12s-4.4,7.3-7.2,7.4l-9.8,0.3l-2.5,36.3c-0.4,4.4-3.9,7.8-8.3,8l-5,0.3c-2.5,0.1-4.6-1.9-4.6-4.3
			l0.1-39.4l-10.3,0.3c-3.1,0.2-5.7-2.4-5.7-5.5l0.2-8.2c0.1-2.9,1.8-4.5,5.4-5.2l45.3-7.5C189.6,26.2,192,28.7,192,31.7z"/>
		<path class="st13" d="M184.9,29l-41.8,6.8c-1.1,0-2.1,0.4-2.9,1.1c-1.2,1,3,0.1,13.1-0.6c10.1-0.6,25-2.7,25-2.7
			c2.5,0,4.5,2,4.4,4.5c0,0-1,3.6-1.9,6.8c-0.5,1.8,0.7,4.4,2.2,3.3c1.3-1,3.3-3.5,3.9-4.8c1.5-3.5,2.5-9.8,2.5-9.8
			C189.4,31.1,187.4,29,184.9,29z"/>
		
			<linearGradient id="SVGID_00000019663536612257039380000009283838029311612036_" gradientUnits="userSpaceOnUse" x1="69.9274" y1="57.7184" x2="103.3004" y2="83.7234" gradientTransform="matrix(1 0 0 -1 0 140)">
			<stop  offset="0" style="stop-color:#177E00"/>
			<stop  offset="7.316322e-02" style="stop-color:#1E8900"/>
			<stop  offset="0.3937" style="stop-color:#3AB700"/>
			<stop  offset="0.5547" style="stop-color:#45C900"/>
		</linearGradient>
		
			<path style="fill:url(#SVGID_00000019663536612257039380000009283838029311612036_);stroke:#000000;stroke-width:1.337;stroke-linecap:round;stroke-linejoin:round;" d="
			M111.4,43.7c4.7,14.5,7.9,32.8-0.9,46.9c-6,9.5-21.4,14-32,9c-14-6.9-20.4-24.7-23.7-39.8c-1.2-5.5,2.7-11.1,9-12.7l5.3-1.4
			c3.3-0.9,9.3,0.3,9.8,3.3c1.3,7.9,3,15.7,6.1,23.3c0.5,1.1,1.3,2.3,2.1,3.4c1.3,1.8,4.2,0.8,4.1-1.5c-0.4-7.4-0.4-10.8-4-25.6
			c-1.3-5.3,2.6-11.1,8.5-12.9l4.8-1.4c3.6-1.1,7.4,0.5,8.7,3.5C109.9,39.7,110.7,41.7,111.4,43.7z"/>
		<path class="st13" d="M86.5,80.2c-6.4-7.2-9.8-22.3-10.7-28.1c-0.4-2.2-4.7-3-7.1-2.4l-3.8,1c-4,1.1-6.7,4.3-6.7,7.9
			c1.6-1.4,5-1.9,7.1-2.5c2.4-0.6,6.7,0.2,7.1,2.4c1,5.7,3.9,16.2,10.7,28.1C83.5,87.3,87.7,82.7,86.5,80.2z"/>
		<path class="st13" d="M107.6,44.6c-0.5-1.4-1.1-2.9-1.7-4.3c-0.9-2.2-3.7-3.3-6.3-2.5l-3.5,1c-2.3,0.7-4.2,2.2-5.3,4
			c-0.8,1.3,0.5,2.8,1.9,2.3c1.2-0.4,2.5-0.7,3.5-1c2.6-0.8,5.5,5.6,6,7.9c4.7,19.3,4.2,24.6-4.2,39.9c-0.6,1.2,0.6,2.4,1.8,1.8
			C119.2,82.7,111,54.9,107.6,44.6z"/>
		
			<linearGradient id="SVGID_00000016067766043800132540000016742496857950147475_" gradientUnits="userSpaceOnUse" x1="23.9407" y1="32.8151" x2="60.3476" y2="100.8614" gradientTransform="matrix(1 0 0 -1 0 140)">
			<stop  offset="0" style="stop-color:#177E00"/>
			<stop  offset="7.316322e-02" style="stop-color:#1E8900"/>
			<stop  offset="0.3937" style="stop-color:#3AB700"/>
			<stop  offset="0.5547" style="stop-color:#45C900"/>
		</linearGradient>
		
			<path style="fill:url(#SVGID_00000016067766043800132540000016742496857950147475_);stroke:#000000;stroke-width:1.337;stroke-linecap:round;stroke-linejoin:round;" d="
			M78.7,85.8c2.5,20.7-29.8,26-50.1,23.5c-6.1-0.7-10.8-5.7-11.4-11.8l-5.1-51.7c-0.5-4.9,2.4-9.5,7-11.2c13.1-5,28.3-7,41-1.5
			C74.5,39,77.9,62.5,61.5,68C70.6,69.2,78,76.5,78.7,85.8z M42.7,76.1c-1,0.1-2,0.3-3,0.6l1,12.2c3.5,0.5,8-0.1,9.8-3.7
			C52.5,79.7,48.4,75.3,42.7,76.1z M48.6,58c-0.5-5.3-7-6.4-10.7-3.7l0.8,11.9C43.1,65.8,49.4,63.7,48.6,58z"/>
		
			<linearGradient id="SVGID_00000059285008318751759070000003908156352778389155_" gradientUnits="userSpaceOnUse" x1="126.5852" y1="34.1623" x2="126.1518" y2="103.0754" gradientTransform="matrix(1 0 0 -1 0 140)">
			<stop  offset="0" style="stop-color:#177E00"/>
			<stop  offset="7.316322e-02" style="stop-color:#1E8900"/>
			<stop  offset="0.3937" style="stop-color:#3AB700"/>
			<stop  offset="0.5547" style="stop-color:#45C900"/>
		</linearGradient>
		
			<path style="fill:url(#SVGID_00000059285008318751759070000003908156352778389155_);stroke:#000000;stroke-width:1.337;stroke-linecap:round;stroke-linejoin:round;" d="
			M134.3,55.1c-3.4,0.4-7.5,1.6-11.1,1.2c-3.5-0.2-5-3.6-2-5.7c4.4-2.5,9.4-3.4,14.6-3.5l0,0l0.2-8.2c0.1-2.9,2.5-5.2,5.4-5.2
			l2.7-0.4l-0.2-2.2c-0.3-3.1-2.7-5.7-5.8-6c-3.7-0.4-7.4-0.3-11,0.1c-5.7,0.6-11.3,1.8-16.3,4.7c-13.2,7-19.1,23.3-11.3,36.5
			c4.3,7.4,12.7,10.9,21.1,9.3c2.7-0.5,6.1-1.1,8.9-0.5c2.4,0.4,3.7,3,2.3,4.9c-1.1,1.4-2.9,2.1-4.6,2.6c-4.3,1-8.9,1.4-13.4,1.1
			c-0.8,2.4-1.9,4.7-3.3,7c-1.5,2.5-3.7,4.6-6.3,6.3l0.1,1.8c0.2,3,2.4,5.4,5.3,6c6.4,1.4,13.4,2.4,19.6,1.5
			c17.6-3,30.6-16,26.8-34.7C154.4,60.5,145.3,53.5,134.3,55.1z"/>
		<path class="st13" d="M137.2,34.3c0,0.1,0.2,0.1,0.3,0.1c1.5-1.2,2.8-1.2,4.1-1.5v-0.6c-0.2-2.6-2.3-4.8-4.9-5.1
			c-3.1-0.3-10.3-0.7-16.3,1.2c-7.1,2.2-10.7,3.7-15.4,7.9c-0.8,0.7,1.5,0.7,2.3,0c3.5-2.8,4.7-3.8,11-5.3
			c7.9-1.9,11.9-1.1,14.6,0.2C134.7,32.1,136.5,32.5,137.2,34.3z"/>
		<path class="st13" d="M152.7,72.5c-1.4-9.2-9-14.4-18.4-13.8c-17.7,1.2-17.6-1.1-17.9-4.3c-0.1-1.1-1.3-1.7-2.2-1.2
			c-0.2,0.1-0.4,0.2-0.6,0.4c-2.5,1.8-3.1,6.7,3.3,8.1s15.8,2.5,18.5,3.7c13.5,5.8,17.4,12.9,12.5,25.2c-0.3,0.7,0.7,1.3,1.2,0.6
			C152.6,86.2,154.2,79.9,152.7,72.5z"/>
		<path class="st13" d="M113.5,86.5c-0.7,1.4-1.2,2.4-2,3.9c8.6,0,16.1-0.9,19-3.4c1.2-1,0.2-2.8-1.3-2.4
			C125.9,85.5,120,86.7,113.5,86.5z"/>
		<path class="st13" d="M41,68.1l-3.5,0.7c-0.6,0.1-1.1-0.3-1.1-0.9l-0.8-11.6c0-0.4-1.7-2.8-2.4-2.7c-0.5,0.1-0.9,0.5-0.9,1.1
			L33,72.6c0,0.6,0.7,1.1,1.3,0.9c1.9-0.6,7.1-2.4,7.8-4C42.4,68.8,41.8,68,41,68.1z"/>
		<path class="st13" d="M61.6,58.4c-0.2,1.6,1.9,2.6,2.9,1.3c5.5-7.2,2-19.9-7.2-23.6c-10.2-4.4-22.4-2.7-32.9,1.2c0,0,0,0-0.1,0
			c-1.9,0.7-0.9,3.6,1.1,3.1c8.8-2.3,18.3-2.7,26.5,0.8C58.7,44,62.4,51.7,61.6,58.4z"/>
		<path class="st13" d="M75.4,86.6c-0.4-6.2-4.6-11.3-10.2-13.4c-1.3-0.5-2.8-0.2-3.7,0.8l-0.1,0.1c-1.5,1.6-1.2,4.2,0.7,5.4
			c5.8,3.5,9.3,10.8,7.5,17.3c-0.3,1,0.9,1.7,1.6,1C74.3,94.9,75.9,91.2,75.4,86.6z"/>
		<path class="st13" d="M164.4,51.9L162.5,90c-0.1,1.4,1.6,2.1,2.5,1c1.2-1.6,2-3.8,2.2-6.2l1.7-32.8c0-0.8-0.6-1.5-1.4-1.5
			l-1.7,0.1C165,50.6,164.4,51.2,164.4,51.9z"/>
		<path class="st13" d="M42.6,92.4l-3.5,0.7c-0.6,0.1-1.1-0.3-1.1-0.9l-0.8-11.6c0-0.4-1.7-2.8-2.4-2.7c-0.5,0.1-0.9,0.5-0.9,1.1
			l0.6,17.9c0,0.6,0.7,1.1,1.3,0.9c1.9-0.6,7.1-2.4,7.8-4C44,93.1,43.4,92.2,42.6,92.4z"/>
	</g>
	<path class="st17" d="M486.1,73.6c0-0.2,0-0.3,0-0.5s0-0.3-0.1-0.4c0-0.1-0.1-0.2-0.2-0.2c-0.2-0.2-0.6-0.2-0.9-0.1
		c-0.5,0.1-1,0.3-1.4,0.5c-0.9,0.4-1.7,1-2.6,1.5c-0.4,0.3-0.8,0.5-1.2,0.6c-0.8,0.3-1.7,0.4-2.7,0.3c-0.3,0-0.6,0-0.9-0.1
		c-1.3-0.1-2.6-0.4-3.8-0.6c-0.7-0.1-1.3-0.2-1.9-0.3c-0.6-0.1-1.2-0.2-1.8-0.5c-0.9-0.4-1.6-1.1-2.3-1.8c0.2-4-0.2-8-1.4-11.6
		c0,0,0-0.1,0.1-0.1c0.4-0.4,0.9-0.7,1.5-0.8c0.3-0.1,0.6-0.2,1-0.3c0.9-0.3,2.1-0.6,3.3-1c0.2-0.1,0.3-0.1,0.5-0.2
		c0.3-0.1,0.6-0.2,0.9-0.3h0.1c0.2-0.1,0.5-0.1,0.7-0.2c0.1,0,0.2-0.1,0.3-0.1c0.3-0.1,0.6-0.1,0.9-0.2h0.1c0.6-0.1,1.2-0.2,1.7-0.3
		h0.1c0.2,0,0.5,0,0.7,0h0.1c0.2,0,0.4,0,0.6,0c0,0,0,0,0.1,0c0.2,0,0.4,0.1,0.5,0.1c0.8,0.4,1.4,0.7,1.9,0.9
		c0.8,0.3,1.3,0.4,1.5,0.4h0.2c0.1,0,0.1-0.1,0.1-0.2h0.1l0,0c0.1,0,0.1,0,0.1,0l0,0l0,0l0,0l0,0l0,0c0.2,0,0.3-0.1,0.3-0.2l0,0
		v-0.1c0-0.1,0-0.2,0-0.3s0-0.2,0-0.3c0-0.2-0.1-0.4-0.1-0.6l-0.8-3.3l-1.2-3.2c-0.1-0.4-0.3-0.6-0.5-0.7c-0.1,0-0.1,0-0.2,0
		s-0.1,0-0.2,0c-0.4,0.1-0.9,0.6-1.3,1.1c-0.1,0.2-0.3,0.3-0.4,0.5c-0.1,0.1-0.1,0.2-0.2,0.2c-0.1,0.2-0.2,0.3-0.2,0.4
		c-0.7,1.3-1.8,2-3,2.5c-0.7,0.3-1.5,0.6-2.3,0.9c-0.6,0.2-1.1,0.4-1.6,0.6c-0.7,0.2-1.3,0.5-2,0.7c-0.9,0.3-1.9,0.6-2.8,0.9
		c-0.3,0.1-0.6,0.1-0.9,0.1c0,0,0,0-0.1,0h-0.1c-0.3,0-0.6,0-0.9-0.1c-1-2.7-2.3-5.3-4-7.6c0.4-0.1,0.9-0.2,1.3-0.2
		c0.7,0.1,1.5,0.2,2.3,0.3c0.3,0,0.5,0,0.7,0c0.5,0,1.5-0.1,1.7-0.5c0.1,0,0.1,0,0.2,0l0.1-0.1c0-0.1,0-0.1,0-0.2v-0.1l0,0l0,0
		c-0.2-0.7-0.9-2-2-3.4c-0.3-0.4-0.5-0.7-0.8-1c-0.2-0.2-0.4-0.4-0.5-0.6c-0.1-0.1-0.1-0.2-0.2-0.2c-0.2-0.2-0.3-0.3-0.5-0.5
		c-0.1-0.1-0.1-0.1-0.2-0.2c-0.1-0.1-0.2-0.2-0.3-0.3c-0.1,0-0.1-0.1-0.2-0.2c0,0,0,0-0.1-0.1s-0.1-0.1-0.1-0.2
		c-0.5-0.4-0.8-0.4-1.1-0.1c-0.1,0.1-0.1,0.2-0.2,0.2c-0.3,0.4-0.5,1-0.6,1.7c-0.1,0.2-0.1,0.5-0.2,0.7c0,0.1,0,0.1,0,0.2
		c-0.1,0.2-0.1,0.4-0.1,0.6c0,0.1,0,0.1,0,0.2c-0.1,0.3-0.2,0.6-0.2,0.7c0,0.1-0.1,0.1-0.1,0.2c-0.2,0.2-0.3,0.4-0.5,0.7
		c-0.6-0.7-1.3-1.5-1.9-2.2c-0.1-0.1-0.2-0.3-0.4-0.4c-0.3-0.3-0.6-0.6-0.9-0.8c-0.1-0.1-0.2-0.2-0.4-0.4c-0.2-0.2-0.5-0.4-0.7-0.6
		c-0.2-0.2-0.4-0.3-0.6-0.5l0,0c0-1.1,0.4-2.1,0.9-3.1l0.1-0.1c0.4-0.5,1-1.3,1.6-2c0.1-0.1,0.2-0.3,0.3-0.4
		c0.1-0.2,0.3-0.3,0.4-0.5c0.2-0.2,0.3-0.4,0.5-0.6c0.5-0.5,1-1.1,1.4-1.6c0-0.1,0.1-0.1,0.1-0.2c0.4-0.4,0.8-0.8,1.2-1.2
		c0.2-0.1,0.3-0.3,0.5-0.4c0.1-0.1,0.2-0.2,0.2-0.2c0.1-0.1,0.3-0.2,0.4-0.3c0.1-0.1,0.2-0.1,0.3-0.2c0.1-0.1,0.2-0.1,0.4-0.2
		c0.1,0,0.2-0.1,0.3-0.1c0.2-0.1,0.4-0.1,0.5-0.2l0,0c0.5-0.1,0.9-0.1,1.3-0.2c0.1,0,0.2,0,0.3,0l0,0c0.4-0.1,0.8-0.1,1-0.2
		c0.4-0.1,0.7-0.2,0.9-0.3c0.1,0,0.1-0.1,0.1-0.1l0,0l0,0c0.1-0.1,0.1-0.1,0.1-0.2l0,0c0.1,0,0.1,0,0.1,0l0,0h0.1c0,0,0-0.1,0-0.2
		l0,0c0.1-0.1,0-0.3,0-0.4v-0.1l-0.7-0.7l-2.5-2.5l-2.7-1.9c-0.1-0.1-0.2-0.1-0.3-0.2c-0.1,0-0.2-0.1-0.3-0.1c-0.2,0-0.3,0-0.4,0.1
		s-0.2,0.2-0.3,0.3c-0.1,0.1-0.1,0.3-0.2,0.5c0,0.1,0,0.2-0.1,0.3c-0.1,0.4-0.1,0.9-0.1,1.2c0,0.1,0,0.2,0,0.3c0,0.2,0,0.3,0,0.4
		c0,0.3,0,0.6,0,0.8c-0.1,1.1-0.5,2.1-1.1,3c-0.4,0.7-0.9,1.3-1.4,2c-0.6,0.9-1.3,1.8-2,2.7s-1.4,1.8-2.1,2.6
		c-0.9,0.8-2.1,1.3-3.4,1.5c-1.5-0.9-3.1-1.7-4.7-2.4s-3.2-1.3-4.9-1.8c-0.3-0.1-0.6-0.2-0.8-0.3c-0.5-0.8-0.9-1.7-1.2-2.6
		c0-0.1,0-0.2,0-0.2c-0.1-0.6-0.1-1.1,0-1.7c0.3-1.8,0.5-3.6,0.9-5.3c0.1-0.6,0.3-1.1,0.4-1.6c0.3-0.8,0.7-1.7,1.3-2.3
		c0.7-0.6,1.4-1.2,2.2-1.8c0.4-0.3,0.7-0.6,1-0.9s0.6-0.7,0.9-1.1l0,0c0-0.1,0-0.1,0-0.2c0,0,0,0,0-0.1c0.1-0.1,0.1-0.3,0.1-0.4
		s0-0.2-0.1-0.2c0,0,0,0,0-0.1c0-0.3-0.5-0.7-1.5-1c-0.7-0.3-1.7-0.5-2.8-0.8c-0.4-0.1-0.7-0.1-1.1-0.2c-0.4-0.1-0.7-0.1-1-0.1
		c-2-0.3-3.7-0.2-4.4,0c-0.2,0-0.3,0-0.5,0s-0.3,0-0.4,0.1c-0.4,0.1-0.5,0.7-0.4,1.1c0.3,1.5,1.4,2.7,2.1,3.9
		c0.3,0.4,0.5,0.8,0.7,1.2c0.2,0.5,0.3,1.1,0.4,1.7c0,0.6,0,1.2,0,1.8c-0.1,1.3-0.4,2.5-0.6,3.7c-0.2,1.3-0.2,2.6-0.8,3.6
		c-0.1,0.2-0.3,0.5-0.4,0.7c0,0.1-0.1,0.1-0.2,0.2c-0.1,0.1-0.2,0.3-0.3,0.4c-0.1,0.1-0.2,0.2-0.3,0.3c-0.1,0.1-0.2,0.2-0.3,0.3
		c-0.1,0.1-0.2,0.2-0.3,0.3c-0.1,0.1-0.2,0.2-0.3,0.3c-3.6-0.2-7.1,0-10.6,0.8c-0.1-0.1-0.3-0.2-0.4-0.3l-0.1-0.1
		c-0.1-0.1-0.2-0.2-0.4-0.3l-0.1-0.1c-0.1-0.1-0.2-0.3-0.3-0.4l-0.1-0.1c-0.1-0.2-0.3-0.4-0.4-0.6c-0.6-1.5-1.2-3-1.8-4.6
		c-0.5-1.6-1-3.2-1.3-4.8v-0.1c-0.2-0.7-0.3-1.5,0-2.1c0.3-0.9,1.9-4.7-0.3-4l-3.2,1c-0.2,0.1-0.5,0.3-1,0.5c-0.1,0-0.2,0.1-0.3,0.1
		c0,0,0,0-0.1,0c-0.5,0.2-0.9,0.4-1.3,0.5c-0.4,0.2-0.7,0.4-1,0.5h-0.1c-0.1,0.1-0.2,0.1-0.3,0.1c-0.1,0.1-0.1,0.2-0.2,0.3
		c-0.2,0.2-0.2,0.3-0.1,0.4c0,0,0,0,0.2,0c0.1,0.1,0.1,0.2,0.2,0.3l0,0l0,0l0,0l0,0l0.1,0.1c0.2,0.2,0.4,0.4,0.7,0.5
		c0,0,0.1,0,0.1,0.1c0.3,0.2,0.6,0.3,0.9,0.5c0.7,0.3,1.3,0.6,1.5,0.8c0.6,0.5,1,1.2,1.5,1.8c1.5,2.6,2.7,6.7,3.5,8.7
		c0.1,0.4,0.2,0.8,0.2,1.2s0,0.7,0,1.1c-3.6,1.2-7,3-10,5.3c-0.1-0.1-0.3-0.1-0.4-0.2l0,0c-0.1-0.1-0.3-0.2-0.4-0.3
		c-1.7-1.4-3.5-3-5-4.5c-0.2-0.2-0.4-0.4-0.6-0.6c-0.8-0.8-1.6-1.5-2.1-2.4c-0.4-0.7-0.7-1.4-0.7-2.2c-0.1-0.5-0.3-1.6-0.7-2.3
		c0-0.1,0-0.2-0.1-0.2h-0.1c-0.1-0.2-0.3-0.3-0.5-0.4h-0.1c-0.2,0-0.5,0.1-0.7,0.4l-2.3,2.4l-1.7,2.4l-0.3,0.4l-0.5,0.7
		c-0.1,0.3,0,0.5,0.2,0.6v0.1v0.1c0,0.1,0,0.1,0,0.1h0.2c0.3,0.2,1.3,0.4,3.6,0.2c1.5-0.1,4,1.9,6.4,4c1.4,1.2,2.7,2.5,3.6,3.2
		c0,0,0.1,0,0.1,0.1v0.1c-0.5,0.4-0.9,0.8-1.4,1.3c-0.1,0.1-0.2,0.2-0.3,0.3c-0.4,0.4-0.7,0.7-1.1,1.1c-0.1,0.1-0.2,0.3-0.3,0.4
		c-0.3,0.3-0.6,0.7-0.9,1.1c-0.1,0.1-0.2,0.3-0.3,0.4c-0.3,0.4-0.6,0.7-0.9,1.1c-0.1-0.1-0.2-0.2-0.2-0.3c-0.1-0.1-0.2-0.3-0.3-0.4
		c-0.1-0.3-0.2-0.7-0.3-1c-0.1-0.2-0.1-0.4-0.2-0.7c-0.1-0.4-0.2-0.7-0.4-1.1c-0.1-0.4-0.4-1-0.8-1.3c-0.3-0.2-0.5-0.2-0.8,0.1
		c-0.2,0-0.4,0.2-0.7,0.5c-0.3,0.2-0.6,0.6-0.9,1l-0.1,0.1c-0.5,0.5-1,1.2-1.5,1.9c-1.1,1.6-1.8,3.3-1.7,3.7c0,0.1,0,0.1,0.1,0.1
		h0.2c0.1,0.1,0.2,0.1,0.3,0.1c0.1,0,0.2,0,0.3,0c0.1,0,0.2,0,0.4,0c0.6,0,1.4-0.1,2.6-0.3c0.6-0.1,1.1,0,1.9,0.1
		c-1.5,2.3-2.6,4.8-3.5,7.4c-0.3,0.9-0.6,1.8-0.8,2.7c0,0,0,0-0.1,0l0,0c-0.9,0.4-1.8,0.7-2.8,0.7h-0.1c-0.4,0-0.9-0.1-1.3-0.1
		c-0.5-0.1-1-0.2-1.6-0.2c-1.3-0.2-2.6-0.5-3.8-0.8c-1.3-0.4-2.5-0.8-3.5-1.7c-1.3-1.3-2.4-3-3.9-4c-0.1,0-0.3,0-0.6,0
		c-0.1-0.1-0.1-0.1-0.2-0.1c-0.2,0-0.4,0.2-0.7,0.6c0,0,0,0.1-0.1,0.1c-0.1,0.2-0.2,0.4-0.4,0.7c-0.1,0.1-0.1,0.3-0.2,0.5
		c0,0,0,0,0,0.1c-0.1,0.3-0.2,0.7-0.4,1.1c-0.1,0.4-0.2,0.9-0.4,1.4c-0.1,0.4-0.2,0.8-0.2,1.2c-0.1,1.2-0.1,2.3-0.1,3.2V64
		c0,0.2,0,0.4,0.1,0.6c0,0.1,0,0.2,0,0.3l0,0l0,0c0,0.1,0,0.2,0,0.3c-0.1,0.4-0.1,1,0,1.3c0,0.1,0.1,0.2,0.2,0.2
		c0.2,0.2,0.6,0.2,0.9,0.1c1.5-0.3,2.8-1.3,4-2c0.4-0.3,0.8-0.5,1.2-0.6c0.3-0.1,0.6-0.2,1-0.2c2-0.3,4.4,0.2,6.5,0.5
		c1.3,0.2,2.6,0.2,3.7,0.8c0.4,0.2,0.8,0.4,1.1,0.7c0.2,0.2,0.4,0.4,0.6,0.5c0.1,0.1,0.3,0.2,0.4,0.3c-0.3,3.7,0,7.4,0.8,11
		l-0.1,0.1c-0.2,0.1-0.3,0.2-0.5,0.3c0,0-0.1,0-0.1,0.1h-0.1c-0.3,0.1-0.5,0.2-0.8,0.2l0,0l0,0c-0.2,0-0.5,0.1-0.8,0.2l0,0l0,0
		c-0.1,0-0.2,0-0.3,0.1l0,0l0,0c-0.2,0-0.4,0.1-0.6,0.1l0,0l0,0c-0.4,0.1-0.9,0.2-1.4,0.3c-0.4,0.1-0.7,0.2-1.1,0.2
		c-0.1,0-0.1,0-0.2,0c-0.8,0.2-1.6,0.3-2.4,0.5c-0.1,0-0.1,0-0.2,0c-0.3,0.1-0.7,0.1-1,0.2c-0.1,0-0.1,0-0.2,0
		c-0.4,0-0.7,0.1-1.1,0.1c-0.7,0-1.4,0-2.1-0.2c-1.2-0.6-2.4-1.5-3.7-1.7l0,0c-0.1,0-0.2,0-0.3,0.1c-0.2,0-0.3,0-0.3,0h-0.1
		c-0.2,0.1-0.3,0.6-0.3,1.3c0,0.7,0.1,1.7,0.3,2.8v0.1c0,0.2,0.1,0.4,0.1,0.7c0,0.2,0.1,0.4,0.1,0.6c0.3,1.2,0.7,2.1,1,2.5
		c0,0.1,0.1,0.2,0.1,0.3c0.6,1.1,2-0.5,2.7-1.4c0.1-0.1,0.2-0.2,0.2-0.3c0.3-0.5,0.7-0.8,1.1-1.2c1.3-1,3-1.4,4.5-1.8
		c2.2-0.6,4.4-1.1,6.6-1.5c0.5,0,1,0,1.4,0.1c0.8,2.7,2,5.2,3.4,7.5c0.3,0.4,0.5,0.9,0.8,1.3l0,0c-0.5-0.1-1-0.2-1.5-0.2
		s-1-0.1-1.5-0.1s-1.4,0.1-1.7,0.5c-0.1,0-0.1,0-0.2,0c0,0,0,0.1-0.1,0.1l0,0h-0.1c-0.1,0.1-0.1,0.2-0.1,0.5c0.1,0.7,0.9,2,1.9,3.4
		c0.3,0.4,0.6,0.8,0.9,1.2c0.4,0.5,0.9,1,1.2,1.3c0.3,0.3,0.6,0.5,0.8,0.5c0,0,0,0,0.1,0c0,0.1,0.1,0.1,0.1,0.2
		c0.1,0.1,0.2,0.2,0.3,0.2c0.1,0,0.2,0.1,0.3,0.1c0.1,0,0.2,0,0.3-0.1c0.1-0.1,0.2-0.1,0.3-0.3c0.1-0.2,0.3-0.4,0.4-0.7
		c0.1-0.3,0.2-0.6,0.3-1c0.1-0.5,0.2-1,0.3-1.5c0.1-0.3,0.1-0.6,0.2-0.8c0.4,0.5,0.8,1,1.3,1.5c0.5,0.6,1,1.1,1.6,1.6
		c1,1,2.1,1.9,3.2,2.7c-0.1,0.4-0.2,0.7-0.3,1.1c-0.2,0.3-0.4,0.7-0.6,1c-0.4,0.4-0.8,1-1.3,1.6c-0.7,0.8-1.4,1.8-2.2,2.7
		c-0.9,1-1.8,2-2.7,2.8c-0.5,0.4-0.9,0.8-1.4,1c-0.3,0.2-0.6,0.3-0.9,0.3c-0.4,0.1-0.7,0.1-1,0.2c-0.5,0.1-0.9,0.1-1.2,0.2
		c-0.1,0-0.1,0-0.2,0s-0.2,0-0.3,0.1c0,0,0,0-0.1,0s-0.2,0.1-0.3,0.1l0,0l0,0c0,0,0,0-0.1,0s-0.3,0.1-0.3,0.1
		c-0.1,0-0.1,0.1-0.1,0.1l-0.1,0.1h-0.2l0,0l0,0c0,0.1,0,0.2,0,0.3c-0.1,0.2-0.2,0.4,0,0.6l0.7,0.7l1.2,1.2l1.2,1.2l0.8,0.6l1.9,1.4
		c0.3,0.2,0.6,0.3,0.8,0.3c0,0,0,0,0.1,0s0.2-0.1,0.3-0.2c0,0,0,0,0-0.1c0.2-0.3,0.3-0.8,0.4-1.2c0-0.2,0-0.4,0-0.6s0-0.4,0-0.6
		c0-0.1,0-0.2,0-0.2c0-0.1,0-0.1,0-0.2c-0.1-0.6,0-1.1,0.1-1.6c0.4-1.5,1.4-2.9,2.3-4.1c0.3-0.4,0.6-0.8,0.8-1.2
		c1-1.4,2.2-2.9,3.3-4.1c0.2-0.2,0.4-0.3,0.6-0.4s0.4-0.2,0.6-0.4c0.4-0.2,0.9-0.4,1.4-0.5c0.5,0.3,0.9,0.5,1.4,0.7
		c3,1.6,6.2,2.8,9.7,3.7c0.2,0.5,0.4,1,0.5,1.5v0.1c0,0.9-0.1,1.9-0.3,2.8c-0.2,1.6-0.6,3.2-1,4.8c-0.3,1.1-0.7,2.2-1.4,3.1
		c-0.1,0.1-0.2,0.3-0.3,0.4c-0.7,0.6-1.4,1.2-2.2,1.8c-0.4,0.3-0.7,0.6-1,0.9s-0.6,0.7-0.9,1.1c0,0.1,0,0.3,0,0.6
		c0,0.1,0,0.1,0.1,0.2l0,0c0.1,0.1,0.1,0.1,0.2,0.2l0.1,0.1c0,0,0,0.1,0.1,0.1c0,0,0.1,0.1,0.2,0.1s0.1,0.1,0.2,0.1s0.2,0.1,0.3,0.1
		c0.1,0,0.1,0.1,0.2,0.1s0.2,0.1,0.4,0.1c0.1,0,0.2,0.1,0.3,0.1c0.1,0,0.3,0.1,0.4,0.1s0.2,0.1,0.3,0.1c0.2,0.1,0.4,0.1,0.5,0.1
		s0.2,0.1,0.3,0.1c0.2,0.1,0.5,0.1,0.7,0.2c0.1,0,0.2,0,0.3,0.1c0.3,0.1,0.7,0.1,1.1,0.2c1.5,0.2,2.9,0.4,3.9,0.3c0.1,0,0.1,0,0.1,0
		c0.3,0,0.6,0,0.8-0.1c0.3,0.1,0.7,0.1,1,0c0,0,0,0,0.1,0c0.4-0.1,0.5-0.7,0.8-1.2c-0.4-1.9-2.1-3.5-2.8-5.1
		c-0.3-0.8-0.4-1.7-0.4-2.6c0-0.3,0-0.6,0-0.9c0.1-0.6,0.1-1.2,0.2-1.9c0.1-0.6,0.2-1.2,0.3-1.8c0.2-1.3,0.2-2.6,0.8-3.6l0,0
		c0.3-0.7,0.8-1.2,1.3-1.7c3.9,0.2,7.8,0,11.5-0.9c0.2,0.1,0.4,0.2,0.5,0.3c0.1,0.1,0.2,0.1,0.3,0.2c0.2,0.1,0.3,0.2,0.5,0.4
		c0.1,0.1,0.2,0.1,0.2,0.2c0.1,0.1,0.3,0.3,0.4,0.4s0.1,0.1,0.2,0.2c0.2,0.2,0.3,0.4,0.4,0.7v0.1c0.8,1.9,1.5,3.8,2.1,5.8
		c0.4,1.2,0.7,2.4,0.9,3.6c0.1,0.3,0.1,0.5,0.1,0.8c0.1,1-0.3,1.9-0.6,2.7c-0.2,0.7-0.4,1.3-0.4,2.1c0,0,0,0.2,0.2,0.4
		c0.1,0.1,0.2,0.1,0.3,0.2c0.6,0.1,0.6-0.1,0.8-0.1l3.2-1c0.1-0.1,0.2-0.1,0.3-0.2c0,0,0.1,0,0.1-0.1l0,0l0,0c0.5-0.2,1-0.4,1.5-0.6
		l0,0l0,0c0.2-0.1,0.3-0.2,0.5-0.2c0.1,0,0.2-0.1,0.3-0.1c0.2-0.1,0.4-0.2,0.6-0.4c0.1,0,0.1-0.1,0.1-0.1c0.1,0,0.2-0.1,0.2-0.1
		c0.1-0.1,0.2-0.1,0.3-0.1c0.1-0.1,0.1-0.2,0.2-0.2c0,0,0,0,0-0.1s0.1-0.1,0.1-0.2l0,0c-0.2-0.9-2.3-1.8-3.2-2.2
		c-0.1-0.1-0.2-0.1-0.3-0.2c-0.4-0.3-0.7-0.7-1-1.1c-0.1-0.1-0.1-0.1-0.1-0.2c-2-2.6-2.8-6.2-4.1-9.3l0,0l0,0l0,0
		c0.7,2,1.4,3.9,2.1,5.9c-0.2-0.4-0.3-0.8-0.5-1.2c0-0.1-0.1-0.2-0.1-0.3c-0.1-0.3-0.3-0.7-0.4-1c-0.5-1.2-0.9-2.4-1.2-3.2l0,0
		c-0.2-0.5-0.2-1-0.2-1.6v0.1c0,0.2,0,0.4,0.1,0.6c0,0.2,0.1,0.5,0.2,0.7l0,0l0,0l0,0c0-0.1-0.1-0.3-0.1-0.4c0-0.2-0.1-0.4-0.1-0.6
		c0-0.1,0-0.2,0-0.3c0-0.1,0-0.2,0-0.3c0-0.1,0-0.3,0-0.4s0-0.2,0-0.2c0-0.1,0.1-0.3,0.1-0.4c2.6-1,5-2.3,7.2-3.7c0,0.1,0,0.2,0,0.3
		c0,0.2-0.1,0.5-0.1,0.7c-0.1,0.7-0.2,1.5-0.2,2.2c0,0.5,0.1,1.3,0.5,1.6l0,0v0.1c0,0,0.1,0,0.1,0.1c0,0,0.1,0,0.1,0.1
		c0.3,0.3,2-0.6,3.9-1.9c0.4-0.3,0.7-0.5,1.1-0.8c0.1,0,0.1-0.1,0.1-0.1c0.3-0.2,0.5-0.4,0.7-0.6l0,0c0.1-0.1,0.2-0.2,0.3-0.3
		c0,0,0,0,0.1-0.1s0.2-0.2,0.2-0.2s0-0.1,0.1-0.1c0.1-0.1,0.1-0.1,0.2-0.2c0,0,0,0,0-0.1s0.1-0.1,0.1-0.2l0.1-0.1
		c0.3-0.3,0.4-0.6,0.3-0.9c-0.5-1-4.1-1.3-4.6-1.7c0,0,0,0-0.1,0c1.6-1.3,3.1-2.7,4.4-4.2c0.4-0.5,0.9-1,1.3-1.6
		c0.6-0.2,1.1-0.3,1.7-0.3c0.3,0,0.6,0,0.9,0c0.1,0,0.1,0,0.2,0c1.8,0.2,3.4,1.5,4.9,2.5c0.3,0.2,0.5,0.3,0.8,0.5
		c1.6,1.1,3.8,2.2,5,3.8c0.2,0.3,0.4,0.5,0.5,0.8v0.1v0.1c0.1,0.2,0.1,0.5,0.3,0.8c0.1,0.2,0.2,0.5,0.3,0.7c0.1,0.2,0.2,0.5,0.3,0.7
		c0.1,0.1,0.1,0.2,0.2,0.3c0.3,0.5,0.7,0.8,1.1,0.8c0.2,0,0.3-0.1,0.5-0.3c0.1-0.1,0.2-0.3,0.3-0.4c0.5-0.8,1.3-1.9,1.7-2.6l1.5-3.3
		c0.2-0.3,0.4-0.6,0.4-0.9c0-0.2-0.1-0.3-0.4-0.4c-0.5-0.1-1-0.1-1.4,0c-0.2,0-0.3,0.1-0.5,0.1c-0.5,0.1-1,0.2-1.5,0.3
		c-0.2,0-0.3,0.1-0.5,0.1c-0.5,0-1-0.1-1.5-0.2c-1-0.3-2-0.8-2.9-1.3c-0.5-0.3-1-0.5-1.5-0.7l-3.3-1.9c-0.3-0.2-0.6-0.4-0.9-0.5
		c-0.9-0.5-1.6-0.9-2.1-1.6l-0.1-0.1c-0.4-0.6-0.7-1.2-0.9-1.8c1.5-2.9,2.8-6.1,3.5-9.4c0.3-0.2,0.6-0.3,1-0.5
		c1-0.4,2.1-0.6,3.2-0.4h0.1c0.2,0,0.3,0.1,0.5,0.1c0.4,0.1,0.9,0.1,1.4,0.2c0.6,0.1,1.2,0.2,1.8,0.4c0.7,0.1,1.3,0.3,2,0.5
		c0.6,0.2,1.3,0.4,1.9,0.7c0.6,0.3,1.2,0.6,1.7,1c0.7,0.7,1.3,1.4,1.9,2.1s1.3,1.4,2.1,1.9c0.1,0,0.3,0,0.5,0l0.1,0.1
		c0.1,0,0.1,0,0.2-0.1c0.1,0.1,0.1,0.1,0.2,0.1c0.2,0,0.3-0.1,0.5-0.4c0.3-0.4,0.6-1,0.8-1.9c0.3-0.9,0.5-1.9,0.7-3
		c0-0.3,0.1-0.6,0.1-0.9s0.1-0.6,0.1-0.9C486.4,75.5,486.4,74.2,486.1,73.6z M450.4,39.8c0.1,0,0.3-0.1,0.4-0.1
		c0.4-0.1,0.7-0.3,1.1-0.5l0,0c-0.7,0.5-1.5,0.8-2.3,0.9l0,0c-0.1,0-0.1-0.1-0.2-0.1c0.1,0,0.2-0.1,0.4-0.1
		C450,39.9,450.2,39.9,450.4,39.8z M408.5,101.2L408.5,101.2c0.5-0.3,1-0.5,1.5-0.7l0.1,0.1C409.5,100.7,409,100.9,408.5,101.2
		L408.5,101.2z M398.9,96.3C398.9,96.3,398.9,96.2,398.9,96.3C398.9,96.2,398.9,96.2,398.9,96.3c0-0.1,0-0.2,0-0.2l0,0
		c0-0.1,0.1-0.1,0.1-0.2l0,0c0-0.1,0.1-0.1,0.1-0.2c0,0,0,0,0-0.1s0.1-0.1,0.1-0.2v-0.1c0-0.1,0-0.1,0.1-0.2c0-0.1,0-0.1,0-0.2
		s0-0.1,0.1-0.2c0-0.1,0-0.2,0.1-0.2c0-0.1,0-0.1,0.1-0.2c0-0.1,0-0.2,0.1-0.3c0-0.1,0-0.1,0-0.2c0-0.2,0.1-0.4,0.1-0.6l0,0
		c0-0.2,0.1-0.4,0.3-0.7c-0.2,0.6-0.4,1.3-0.5,1.9C399.4,95,399.2,95.7,398.9,96.3z"/>
	<g>
		<path class="st18" d="M484.9,71.1c0-0.3,0-0.7,0-0.9c-0.1-0.4-0.7-0.5-1.1-0.4c-2,0.4-3.6,2-5.2,2.7c-2.2,0.8-5,0.1-7.4-0.3
			c-1.3-0.2-2.6-0.2-3.7-0.8c-0.9-0.4-1.6-1.1-2.3-1.8c0.2-4-0.2-8-1.4-11.6c0,0,0-0.1,0.1-0.1c0.4-0.4,0.9-0.7,1.5-0.8
			c0.3-0.1,0.6-0.2,1-0.3c1.1-0.3,2.4-0.8,3.8-1.2c2.8-0.8,5.6-1.5,6.9-0.9c2.1,1.1,3,1.2,3.4,1.3h0.2c0.1,0,0.1-0.1,0.1-0.2h0.1
			c0.1,0,0.1,0,0.1,0l0,0l0,0c0.7-0.1,0.4-0.9,0.3-1.4l-0.8-3.3l-1.2-3.2c-0.6-2-2.4,0.7-2.9,1.6c-1.1,2.1-3.3,2.6-5.3,3.4
			c-2.2,0.8-4.3,1.5-6.5,2.1c-0.6,0.1-1.3,0.1-1.9,0c-1-2.7-2.3-5.3-4-7.6c0.4-0.1,0.9-0.2,1.3-0.2c0.9,0.2,2,0.3,3,0.3
			c0.5,0,1.4-0.1,1.6-0.5c0.1,0,0.2,0,0.2,0c0.1,0,0.1-0.2,0.1-0.3s0-0.1,0-0.1l0,0c-0.2-0.7-0.9-2-2-3.4c-1-1.4-2.1-2.5-2.7-2.9
			c-0.1-0.1-0.2-0.2-0.2-0.3c-1.8-1.6-2.1,3.6-2.6,4.2c-0.2,0.3-0.4,0.5-0.6,0.8c-1.5-1.8-3-3.4-4.8-4.8l0,0c0-1.1,0.4-2.1,0.9-3.1
			c0.7-0.9,1.8-2.2,2.9-3.6c0.6-0.6,1.1-1.2,1.5-1.7c0.4-0.4,0.8-0.9,1.2-1.3c0.5-0.5,0.9-0.8,1.3-1.1c0.4-0.3,0.8-0.5,1.2-0.5
			c1.3-0.2,2.1-0.3,2.7-0.5c0.6-0.1,0.9-0.3,1.1-0.4l0,0l0,0c0.1-0.1,0.1-0.1,0.1-0.2l0,0c0.1,0,0.2,0,0.3,0c0-0.1,0-0.2,0-0.3
			c0.1-0.2,0.1-0.3,0-0.5l-0.7-0.7l-2.5-2.5l-2.7-1.9c-1.7-1.2-1.7,2-1.6,2.9c0.2,2.3-1.2,4.1-2.5,5.8c-1.3,1.8-2.7,3.7-4.1,5.3
			c-0.9,0.8-2.1,1.3-3.4,1.5c-3.2-1.9-6.6-3.4-10.4-4.4c-0.9-1.3-1.5-3-1.2-4.6c0.4-2.3,0.7-4.9,1.3-6.9c0.3-0.8,0.7-1.7,1.3-2.3
			c1.4-1.3,3.1-2.3,4.1-3.8c0-0.1,0-0.1,0-0.2c0.2-0.4,0.2-0.5,0.1-0.6c0,0,0,0,0-0.1c0.1-0.6-2.3-1.5-5.4-2
			c-2.5-0.4-4.6-0.4-5.4-0.1c-0.3,0-0.7,0-0.9,0c-0.4,0.1-0.5,0.7-0.4,1.1c0.4,1.9,2.1,3.5,2.8,5.1c0.8,2.2,0.2,4.9-0.2,7.2
			c-0.2,1.3-0.2,2.6-0.8,3.6c-0.5,1-1.3,1.8-2.1,2.5c-3.6-0.2-7.1,0-10.6,0.8c-0.8-0.5-1.4-1.2-1.9-2c-1.2-3-2.4-6.2-3-9.5
			c-0.3-0.8-0.3-1.5,0-2.2c0.3-0.9,1.9-4.7-0.3-4l-3.2,1c-0.2,0.1-0.5,0.3-1,0.5c-0.1,0.1-0.3,0.1-0.4,0.2c-0.9,0.4-1.7,0.7-2.2,1.1
			c-0.2,0.1-0.3,0.1-0.4,0.2s-0.1,0.2-0.2,0.3c-0.2,0.2-0.2,0.3-0.1,0.4c0,0,0,0,0.2,0c0.1,0.1,0.1,0.2,0.2,0.3l0,0
			c0.8,0.8,2.8,1.6,3.2,1.9c0.6,0.5,1,1.2,1.5,1.8c1.5,2.6,2.7,6.7,3.5,8.7c0.3,0.8,0.3,1.5,0.2,2.3c-3.6,1.2-6.9,3-10,5.3
			c-0.3-0.1-0.6-0.3-0.9-0.5c-1.7-1.4-3.5-3-5-4.5s-3.3-3-3.4-5.2c-0.1-0.5-0.3-1.6-0.7-2.3c0-0.1,0-0.2-0.1-0.2h-0.1
			c-0.3-0.5-0.7-0.6-1.3,0l-2.3,2.4l-2,2.8l-0.5,0.7c-0.1,0.3,0,0.5,0.2,0.6c0,0.1,0,0.3,0,0.3h0.2c0.3,0.2,1.3,0.4,3.6,0.2
			c2.3-0.2,7.6,5.2,9.9,7.2c0,0,0.2,0,0.2,0.2c-1.9,1.6-3.7,3.5-5.3,5.6c-0.2-0.2-0.4-0.5-0.5-0.7c-0.3-0.8-0.5-1.8-0.9-2.8
			c-0.2-0.7-0.9-1.9-1.6-1.1c-0.3,0.1-1,0.7-1.7,1.6c-0.5,0.5-1,1.2-1.5,1.9c-1.3,1.8-2,3.8-1.6,3.8h0.2c0.3,0.2,1.3,0.2,3.7-0.1
			c0.6-0.1,1.1,0,1.9,0.1c-2,3.1-3.3,6.5-4.3,10.1c0,0-0.1,0-0.1,0.1c-0.9,0.4-1.8,0.7-2.8,0.7c-0.5,0-1-0.1-1.5-0.1
			c-0.5-0.1-1-0.2-1.6-0.2c-1.3-0.2-2.6-0.5-3.8-0.8c-1.3-0.4-2.5-0.8-3.5-1.7c-1.3-1.3-2.4-3-3.9-4c-0.1,0-0.3,0-0.5,0
			c-0.1-0.1-0.1-0.1-0.2-0.1c-0.2,0-0.4,0.2-0.7,0.6c-0.5,0.7-1.2,2.7-1.6,5c-0.2,1.6-0.2,3.2,0,4.2c0,0.1,0,0.2,0,0.3
			c-0.1,0.4-0.1,1,0,1.3c0.1,0.4,0.7,0.5,1.1,0.4c2-0.4,3.6-2,5.2-2.7c2.2-0.8,5-0.1,7.4,0.3c1.3,0.2,2.6,0.2,3.7,0.8
			c0.8,0.4,1.5,0.9,2.1,1.6c-0.3,3.7,0,7.4,0.8,11l-0.1,0.1c-0.2,0.1-0.4,0.2-0.6,0.3c-0.3,0.1-0.6,0.2-0.9,0.3
			c-0.2,0-0.5,0.1-0.8,0.2c-0.1,0-0.2,0-0.3,0.1c-0.2,0-0.4,0.1-0.7,0.1c-0.7,0.2-1.6,0.4-2.4,0.5c-0.1,0-0.1,0-0.2,0
			c-0.8,0.2-1.6,0.3-2.4,0.5c-0.1,0-0.1,0-0.2,0c-0.3,0.1-0.7,0.1-1,0.1c-0.1,0-0.1,0-0.2,0c-0.4,0-0.7,0.1-1.1,0.1l0,0
			c-0.7,0-1.4,0-2.1-0.2c-1.2-0.6-2.4-1.5-3.7-1.7c-0.1,0-0.3,0-0.3,0.1c-0.2,0-0.3,0-0.3,0h-0.1c-0.4,0.1-0.3,2,0.1,4.3
			c0.3,1.8,0.9,3.3,1.3,3.8c0.6,1.9,2.6-0.7,3.1-1.4c1.3-1.8,3.6-2.4,5.7-3c2.2-0.6,4.4-1.1,6.6-1.5c0.5,0,1,0,1.4,0.1
			c1,3.2,2.5,6.1,4.2,8.9l0,0c-0.9-0.2-2-0.3-3-0.3c-0.5,0-1.4,0.1-1.6,0.5c-0.1,0-0.2,0-0.2,0s0,0.1-0.1,0.1h-0.1
			c-0.4,0.3,0.4,1.9,1.9,3.8c1.3,1.7,2.5,3,3,3c0,0.1,0.1,0.1,0.1,0.2c1.7,1.5,2.1-2.8,2.5-4c1.7,2.2,3.8,4.1,6,5.8
			c-0.1,0.7-0.4,1.4-0.9,2.1c-1.9,2.3-6.3,8.3-8.5,8.5c-0.4,0.1-0.7,0.1-1,0.2c-1,0.1-1.6,0.3-2,0.4c-0.3,0.1-0.5,0.2-0.6,0.3h-0.2
			c0,0.1,0,0.2,0,0.3c-0.1,0.2-0.2,0.4,0,0.6l0.7,0.7l2.5,2.5l2.7,1.9c1.7,1.2,1.7-2,1.6-2.9c-0.2-2.3,1.2-4.1,2.5-5.8
			c1.3-1.8,2.7-3.7,4.1-5.3c0.7-0.6,1.6-1,2.5-1.3c3.4,2,7.1,3.4,11.1,4.4c0.2,0.5,0.4,1,0.5,1.5v0.1c0,2.4-0.6,5.1-1.2,7.6
			c-0.4,1.2-0.8,2.5-1.7,3.5c-1.4,1.3-3.1,2.3-4.1,3.8c0,0.2-0.1,0.4,0.1,0.8c0.1,0.1,0.1,0.1,0.2,0.1c0.2,0.6,2.5,1.4,5.4,1.9
			c2,0.3,3.8,0.4,4.8,0.3c0.4,0.1,0.8,0.2,1.1,0c0.4-0.1,0.5-0.7,0.8-1.2c-0.4-1.9-2.1-3.5-2.8-5.1c-0.8-2.2-0.2-4.9,0.2-7.2
			c0.2-1.3,0.2-2.6,0.8-3.6c0.3-0.7,0.8-1.2,1.3-1.8c3.9,0.2,7.8,0,11.5-0.9c1.1,0.6,2.1,1.3,2.6,2.4c1.2,3,2.4,6.2,3,9.5
			c0.6,2.2-1,3.6-0.9,5.6c0,0-0.1,0.4,0.5,0.6c0.6,0.1,0.6-0.1,0.8-0.1l3.2-1c0.1-0.1,0.3-0.2,0.4-0.3l0,0c0.5-0.2,1-0.4,1.5-0.6
			c0.6-0.2,1-0.5,1.4-0.7c0.1-0.1,0.3-0.2,0.4-0.2c0.1-0.1,0.2-0.1,0.3-0.1c0.1-0.1,0.2-0.2,0.2-0.3c0-0.1,0.1-0.1,0.1-0.2l0,0
			c-0.2-1-3-2-3.5-2.4c-2.8-2.7-3.6-6.9-5.2-10.5c0.7,2,1.4,3.9,2.1,5.9c-0.8-1.8-1.4-3.7-1.9-5.1c-0.1-0.2-0.2-0.4-0.2-0.6
			c-0.2-0.5-0.2-1-0.2-1.6c0,0.5,0.1,0.9,0.2,1.4c-0.2-0.9-0.2-1.8,0-2.7c2.6-1,5-2.2,7.2-3.7c0,0.1,0,0.2,0,0.3
			c-0.1,0.9-0.3,2-0.3,2.9c0,0.5,0.1,1.3,0.5,1.6l0,0v0.2c0,0.1,0.1,0.1,0.2,0.1c0.3,0.3,2-0.6,3.9-1.9c1.5-1.1,2.7-2.2,3-2.7
			l0.1-0.1c1.6-1.8-3.7-2.1-4.4-2.6c0,0,0,0-0.1,0c2.1-1.7,4-3.6,5.7-5.8c0.6-0.2,1.1-0.3,1.7-0.3c2.5-0.3,4.7,1.9,6.8,3
			c1.9,1.2,4.5,2.6,5.6,4.6c0.3,0.8,1.3,4.7,2.7,3.2c0.5-0.8,1.5-2.2,2-3l1.5-3.3c0.3-0.5,0.7-1,0-1.3c-1.3-0.2-2.5,0.3-3.9,0.5
			c-2.1,0-4-1.4-5.9-2.3l-3.3-1.9c-1.2-0.8-2.5-1.2-3.1-2.2c-0.4-0.6-0.7-1.2-0.9-1.8c1.5-2.9,2.8-6.1,3.5-9.4
			c1.3-0.7,2.7-1.1,4.2-0.9h0.1c0.6,0.1,1.2,0.2,1.9,0.3c1.3,0.2,2.5,0.5,3.8,0.8c1.3,0.4,2.5,0.8,3.5,1.7c1.3,1.3,2.4,3,3.9,4
			c0.1,0,0.3,0,0.5,0l0.1,0.1c0.1,0,0.1,0,0.2-0.1c0.1,0.1,0.1,0.1,0.2,0.1c0.6,0.1,1.5-2.3,2-5.3C485.2,74,485.2,71.9,484.9,71.1z
			 M450.7,36.7c-0.7,0.5-1.5,0.8-2.3,0.9c-0.1,0-0.2-0.1-0.2-0.1C449,37.4,449.9,37.2,450.7,36.7z M397.7,93.8
			C397.6,93.8,397.6,93.8,397.7,93.8C397.6,93.7,397.6,93.7,397.7,93.8C397.7,93.7,397.7,93.7,397.7,93.8c0.3-0.5,0.6-1.4,0.9-3.1
			c0-0.2,0.1-0.5,0.3-0.7C398.3,91.3,398.3,92.7,397.7,93.8z M407.2,98.7c0.5-0.3,1-0.5,1.5-0.7c0,0,0.1,0.1,0.2,0.1
			C408.3,98.3,407.7,98.5,407.2,98.7z M458.2,89.2L458.2,89.2L458.2,89.2L458.2,89.2z"/>
		<g>
			
				<radialGradient id="SVGID_00000026140314046553673890000016921904276260451507_" cx="428.3824" cy="72.7" r="55.6675" gradientTransform="matrix(1 0 0 -1 0 140)" gradientUnits="userSpaceOnUse">
				<stop  offset="0" style="stop-color:#FFFFFF"/>
				<stop  offset="7.601701e-02" style="stop-color:#E8FFDA"/>
				<stop  offset="0.237" style="stop-color:#BCFF90"/>
				<stop  offset="0.3524" style="stop-color:#A0FF62"/>
				<stop  offset="0.41" style="stop-color:#95FF50"/>
				<stop  offset="0.6085" style="stop-color:#45C900"/>
			</radialGradient>
			
				<path style="fill:url(#SVGID_00000026140314046553673890000016921904276260451507_);stroke:#000000;stroke-width:0.932;stroke-linecap:round;stroke-linejoin:round;stroke-miterlimit:10;" d="
				M372.7,63.7c0,0,0.2,0,0.2-0.2c0.6,0.1,1.6-0.3,4.4-2.1c2.6-1.6,6.6-0.4,10.9,0.3c1.5,0.2,2.7,1,3.7,1.9c-0.5,4-0.2,8,0.7,11.9
				c-0.4,0.3-1.1,0.6-1.6,0.7c-3.2,0.6-10.2,2.6-12.3,1.4s-3-1.6-3.4-1.5h-0.2c-0.4,0.1-0.3,2,0.1,4.3s1.2,4.1,1.6,4
				c0,0,0,0,0.2-0.2c0.4-0.1,1.1-0.6,2.5-2.6c1.3-1.8,8.3-3.1,11.5-3.7c0.8-0.1,1.4-0.2,2.1,0.2c1,3.3,2.6,6.4,4.4,9.3
				c-0.4,0.1-1,0.2-1.4,0.2c-2.4-0.4-3.4-0.2-3.6,0h-0.2c-0.4,0.3,0.4,1.9,1.9,3.8s2.7,3.2,3.2,2.9c0,0,0,0,0-0.2
				c0.2-0.3,0.7-1,1.1-3.4c0.1-0.4,0.3-0.9,0.6-1.2c1.9,2.5,4.2,4.8,6.7,6.7c-0.1,0.7-0.4,1.4-0.9,2.1c-1.9,2.3-6.3,8.3-8.5,8.5
				c-2.4,0.4-3.3,0.6-3.6,0.9h-0.2c-0.2,0.3,1,1.8,2.7,3.2c1.9,1.4,3.4,2.4,3.9,2.1v-0.2c0.2-0.3,0.4-1.2,0.2-3.5s4.5-7.7,6.6-9.9
				c0.7-0.6,1.5-1.2,2.3-1.5c3.6,2.3,7.6,3.9,12,4.9c0.4,1,0.8,2.2,0.6,3.3c-0.7,4-1,8.6-3.4,10.3c-2.6,2-3.3,2.8-3.4,3.4l-0.2,0.2
				c-0.1,0.5,2.4,1.5,5.4,2c3.2,0.5,5.7,0.4,5.8-0.2c0,0,0-0.2-0.2-0.2c0.1-0.5-0.3-1.5-2.2-4.3c-1.7-2.5-0.5-6.4,0.2-10.6
				c0.2-1.3,0.9-2.3,1.7-3.3c4.5,0.4,9,0.2,13.2-1c0.9,0.5,1.9,1.4,2.3,2.4c1.4,3.2,4.1,9.8,3.2,11.7c-0.9,2.3-1.1,3-0.9,3.4v0.2
				c0.1,0.4,2.1,0,4.3-0.8c2.2-0.8,3.9-1.8,3.6-2.2c0,0,0,0-0.2,0c-0.1-0.4-0.8-0.9-3.1-2c-2.1-0.9-4.2-8-5.3-10.8
				c-0.4-1-0.3-1.9-0.1-2.8c2.7-1.1,5.2-2.3,7.5-3.8c0.1,0.4,0.2,1,0.2,1.3c-0.4,2.4-0.2,3.3,0,3.5v0.2c0.3,0.4,2-0.4,3.9-1.8
				s3.3-2.6,3-3.1c0,0,0,0-0.2,0c-0.3-0.2-1-0.7-3.4-1.1c-0.6-0.1-0.9-0.3-1.2-0.6c2.6-2,4.9-4.2,6.9-6.9c1.2-0.2,2.7-0.3,3.9,0.5
				c2.8,1.6,9.1,5.2,9.7,7.2c0.8,2.4,1.2,3,1.6,3.2c0,0,0,0.2,0.2,0.2c0.3,0.2,1.7-1.2,2.8-3.3s1.8-3.8,1.4-4.1h-0.2
				c-0.4-0.1-1.3-0.2-3.7,0.3c-2.2,0.6-8.4-3.6-11.2-5.2c-1.1-0.5-1.7-1.6-2-2.8c1.7-3.1,3-6.4,3.7-10c1.2-0.5,2.4-0.9,3.7-0.7
				c4.1,0.7,8.8,1.1,10.5,3.4c2.1,2.6,2.9,3.3,3.5,3.4l0.2,0.2c0.6,0.1,1.5-2.4,2-5.3c0.5-3.1,0.3-5.5-0.2-5.6c0,0-0.2,0-0.2,0.2
				c-0.6-0.1-1.6,0.3-4.4,2.1c-2.6,1.6-6.6,0.4-10.9-0.3c-1.5-0.2-2.7-1-3.7-1.9c0.3-4.4-0.1-8.8-1.4-12.7c0.4-0.3,0.9-0.6,1.3-0.7
				c3-0.8,9.9-3.4,12.1-2.5c2.1,1.1,3,1.2,3.4,1.3h0.2c0.4-0.1,0.1-2-0.5-4.2s-1.5-4-2-3.9c0,0,0,0-0.2,0.2
				c-0.4,0.1-1.1,0.8-2.2,2.8c-1.1,1.9-8.1,3.9-11.1,4.7c-0.6,0.1-1.2,0.2-1.7,0.1c-1-3-2.5-5.8-4.4-8.4c0.6-0.3,1.4-0.3,2-0.2
				c2.4,0.4,3.4,0.2,3.6,0h0.2c0.4-0.3-0.4-1.9-1.9-3.8c-1.4-1.9-2.7-3.2-3.2-2.9c0,0,0,0,0,0.2c-0.2,0.3-0.7,1-1.1,3.4
				c-0.1,0.5-0.4,1.2-0.9,1.7c-1.8-2.2-3.5-4.1-5.7-5.8c0.1-0.9,0.3-1.8,1-2.6c1.9-2.3,6.3-8.3,8.5-8.5c2.4-0.4,3.3-0.6,3.6-0.9h0.2
				c0.2-0.3-1-1.8-2.7-3.2s-3.4-2.4-3.9-2.1v0.2c-0.2,0.3-0.4,1.2-0.2,3.5c0.2,2.3-4.5,7.7-6.6,9.9c-0.7,0.8-1.8,1.4-2.7,1.6
				c-3.6-2.3-7.6-4-12-5.1c-0.8-1.2-1.3-2.8-1-4.3c0.7-4,1-8.6,3.4-10.3c2.6-2,3.3-2.8,3.4-3.4l0.2-0.2c0.1-0.5-2.4-1.5-5.4-2
				c-3.2-0.5-5.7-0.4-5.8,0.2c0,0,0,0.2,0.2,0.2c-0.1,0.5,0.3,1.5,2.2,4.3c1.7,2.5,0.5,6.4-0.2,10.6c-0.3,1.6-1.2,2.8-2.4,3.9
				c-4.2-0.3-8.2,0-12.2,1c-0.7-0.5-1.3-1.2-1.8-2.2c-1.2-3-3.8-9.6-3.1-11.5c0.9-2.3,1.1-3,0.9-3.4v-0.2c-0.1-0.4-2.1,0-4.3,0.8
				c-2.2,0.8-3.9,1.8-3.6,2.2c0,0,0,0,0.2,0c0.1,0.4,0.8,0.9,3.1,2c2.1,0.9,4.2,8,5.3,10.8c0.3,0.8,0.3,1.5,0.2,2.3
				c-3.8,1.2-7.4,3.3-10.7,5.7c-0.2,0-0.3-0.2-0.7-0.3c-2.5-2.1-7.9-6.7-8.3-8.8c-0.2-2.5-0.6-3.3-0.8-3.5v-0.2
				c-0.3-0.2-1.9,0.8-3.3,2.6c-1.4,1.8-2.5,3.3-2.1,3.8h0.2c0.3,0.2,1.3,0.4,3.6,0.2c2.3-0.2,7.6,5.2,9.9,7.2c0,0,0.2,0,0.2,0.2
				c-2.2,1.9-4.3,4.1-6.1,6.7c-0.5-0.5-0.8-1.1-0.9-1.6c-0.6-2.3-1-3.2-1.4-3.4c0,0,0-0.2-0.2-0.2c-0.3-0.2-1.7,1.2-3,3.1
				c-1.3,1.8-2,3.8-1.6,3.8h0.2c0.3,0.2,1.3,0.2,3.7-0.1c0.6-0.1,1.1,0,1.9,0.1c-2.1,3.2-3.4,6.7-4.4,10.5c-1.2,0.5-2.4,0.9-3.9,0.7
				c-4.1-0.7-8.8-1.1-10.5-3.4c-2.1-2.6-2.9-3.3-3.5-3.4l-0.2-0.2c-0.6-0.1-1.5,2.4-2,5.3C372,61.1,372.2,63.6,372.7,63.7z"/>
			<g>
				<g>
					<path class="st20" d="M419.4,89.2c3.5,0.6,6.8-1.9,7.4-5.3c0.6-3.5-1.8-6.8-5.3-7.4s-6.8,1.9-7.4,5.3
						C413.5,85.5,415.9,88.6,419.4,89.2z M420.6,79.5c2.4,0.4,4.1,2.7,3.7,5.3c-0.4,2.5-2.8,4.2-5.2,3.8s-4.1-2.7-3.7-5.3
						C415.8,80.8,418.2,79.1,420.6,79.5z"/>
				</g>
			</g>
			<g>
				<g>
					<path class="st20" d="M446.8,79.7c3.5,0.6,6.8-1.9,7.4-5.3c0.6-3.5-1.8-6.8-5.3-7.4s-6.8,1.9-7.4,5.3
						C440.7,75.9,443.2,79.1,446.8,79.7z M447.8,70c2.4,0.4,4.1,2.7,3.7,5.3s-2.8,4.2-5.2,3.8c-2.4-0.4-4.1-2.7-3.7-5.3
						S445.4,69.6,447.8,70z"/>
				</g>
			</g>
			<g>
				<g>
					<path class="st20" d="M430.1,73.8c3.5,0.6,6.8-1.9,7.4-5.3c0.6-3.5-1.8-6.8-5.3-7.4c-3.5-0.6-6.8,1.9-7.4,5.3
						C424.3,70.1,426.6,73.2,430.1,73.8z M431.6,62.5c3,0.5,5,3.2,4.5,6.2c-0.5,2.9-3.3,4.9-6.3,4.4s-5-3.2-4.5-6.2
						C425.8,64,428.6,62,431.6,62.5z"/>
				</g>
			</g>
			<g>
				<g>
					<path class="st20" d="M417.8,59.1c3.5,0.6,6.8-1.9,7.4-5.3c0.6-3.5-1.8-6.8-5.3-7.4c-3.5-0.6-6.8,1.9-7.4,5.3
						C412,55.2,414.3,58.5,417.8,59.1z M419.1,49.2c2.4,0.4,4.1,2.7,3.7,5.3c-0.4,2.5-2.8,4.2-5.2,3.8c-2.4-0.4-4.1-2.7-3.7-5.3
						S416.5,48.8,419.1,49.2z"/>
				</g>
			</g>
			<g>
				<g>
					<path class="st20" d="M434.7,53.3c3.5,0.6,6.8-1.9,7.4-5.3c0.6-3.5-1.8-6.8-5.3-7.4c-3.5-0.6-6.8,1.9-7.4,5.3
						C428.8,49.5,431.1,52.7,434.7,53.3z M435.6,43.9c2.4,0.4,4,2.7,3.6,4.9c-0.4,2.4-2.5,3.9-5,3.5c-2.4-0.4-4-2.7-3.6-4.9
						C430.8,45.2,433.2,43.5,435.6,43.9z"/>
				</g>
			</g>
			<g>
				<g>
					<path class="st20" d="M443.1,63.4c2,0.3,3.8-1.1,4.1-2.9c0.3-1.8-1.1-3.7-3-4c-2-0.3-3.8,1.1-4.1,2.9
						C439.9,61.2,441.3,63.1,443.1,63.4z M444,58.4c1.1,0.2,2.1,1.3,1.9,2.5s-1.3,2-2.6,1.8c-1.3-0.2-2.1-1.3-1.9-2.5
						C441.7,59.1,442.8,58.2,444,58.4z"/>
				</g>
			</g>
			<g>
				<g>
					<path class="st20" d="M434.9,85.8c2,0.3,3.8-1.1,4.1-2.9c0.3-1.8-1.1-3.7-3-4c-2-0.3-3.8,1.1-4.1,2.9
						C431.6,83.6,432.8,85.5,434.9,85.8z M435,81.5c0.9,0.2,1.6,1,1.4,1.9c-0.1,0.9-1,1.5-1.9,1.4c-0.9-0.2-1.6-1-1.4-1.9
						C433.2,82,434.1,81.4,435,81.5z"/>
				</g>
			</g>
			<g>
				<g>
					<path class="st20" d="M432.7,96.8c2,0.3,3.8-1.1,4.1-2.9c0.3-2-1.1-3.7-3-4c-2-0.3-3.8,1.1-4.1,2.9
						C429.4,94.6,430.8,96.5,432.7,96.8z M433.5,90.8c1.5,0.2,2.6,1.7,2.3,3.2c-0.2,1.5-1.7,2.5-3.2,2.3s-2.6-1.7-2.3-3.2
						C430.5,91.6,432,90.5,433.5,90.8z"/>
				</g>
			</g>
			<g>
				<g>
					<path class="st20" d="M415.4,71.4c2,0.3,3.8-1.1,4.1-2.9c0.3-1.8-1.1-3.7-3-4s-3.8,1.1-4.1,2.9
						C412.2,69.2,413.6,71.1,415.4,71.4z M416.1,66.1c1.3,0.2,2.1,1.5,1.9,2.5c-0.2,1.3-1.3,2-2.6,1.8c-1.3-0.2-2.1-1.5-1.9-2.5
						C413.5,66.8,414.8,65.9,416.1,66.1z"/>
				</g>
			</g>
			<g>
				<g>
					<path class="st20" d="M403.5,74.1c2,0.3,3.8-1.1,4.1-2.9c0.3-1.8-1.1-3.7-3-4c-2-0.3-3.8,1.1-4.1,2.9
						C400.2,71.9,401.5,73.8,403.5,74.1z M403.9,68.4c1.3,0.2,2.2,1.5,2,2.8s-1.5,2.2-2.8,2s-2.2-1.5-2-2.8S402.6,68.2,403.9,68.4z"
						/>
				</g>
			</g>
			<g>
				<g>
					<path class="st20" d="M454.7,66.3c2,0.3,3.8-1.1,4.1-2.9c0.3-2-1.1-3.7-3-4s-3.8,1.1-4.1,2.9C451.4,64.1,452.8,66,454.7,66.3z
						 M455.4,61c1.3,0.2,2.1,1.3,1.9,2.5c-0.2,1.3-1.3,2-2.6,1.8c-1.3-0.2-2.1-1.3-1.9-2.5C453,61.7,454.1,60.8,455.4,61z"/>
				</g>
			</g>
			<g>
				
					<linearGradient id="SVGID_00000054263033140311167000000011189639034451188893_" gradientUnits="userSpaceOnUse" x1="293.2293" y1="31.5578" x2="293.2293" y2="21.0189" gradientTransform="matrix(-0.9869 -0.1614 0.1614 -0.9869 706.0286 188.0585)">
					<stop  offset="0" style="stop-color:#45C900"/>
					<stop  offset="1" style="stop-color:#FF0000"/>
				</linearGradient>
				<path style="fill:url(#SVGID_00000054263033140311167000000011189639034451188893_);" d="M417,98.2c0,0,4.9,4,4.2,8
					c-0.7,4-1,8.6-3.4,10.3c-4.8,3.5-3.3,3.8-3.3,3.8l5.7,1.5l4.9,0.4c0,0,1.5,0.2-1.9-4.6c-1.7-2.5-0.5-6.4,0.2-10.6
					s6.4-6.4,6.4-6.4"/>
				<path d="M417,98.2c2,1.6,4,3.8,4.5,6.5c0.2,1.3-0.2,2.6-0.3,3.9c-0.4,2.5-0.7,5.5-2.6,7.4c-1.4,1.3-3.2,2.3-3.9,3.8
					c0.9,0.2,4.8,1,5.5,1.3c0.7,0.1,4.2,0.3,4.9,0.4c0.2,0,0,0,0,0l0,0c-0.3-1.9-2.1-3.3-2.8-5.3c-0.4-1.4-0.3-2.7-0.3-4
					c0.3-1.8,0.6-3.8,1.1-5.6c0.5-3.3,3.7-5.4,6.8-6.5c-1.9,1.4-4.5,2.8-5.6,5.1c-0.6,1-0.6,2.3-0.8,3.6c-0.4,2.4-1,5.1-0.2,7.2
					c0.7,1.6,2.3,3.2,2.8,5.1c-0.3,0.5-0.4,1.1-0.8,1.2c-0.4,0.3-1.1,0-1.5-0.1l-3.9-0.5l0,0l-3.9-1c-0.4-0.1-1.1-0.2-1.5-0.4
					c-0.2,0-0.6-0.1-0.7-0.3c-0.1-0.4-0.1-0.6-0.1-0.8c1-1.5,2.7-2.5,4.1-3.8c0.9-1,1.3-2.2,1.7-3.5c0.6-2.5,1.2-5.2,1.2-7.6
					C420.9,102.2,418.6,99.9,417,98.2L417,98.2z"/>
			</g>
			
				<ellipse transform="matrix(0.1614 -0.9869 0.9869 0.1614 232.6468 515.6801)" class="st22" cx="419.8" cy="120.9" rx="1.1" ry="5.7"/>
			<g>
				
					<linearGradient id="SVGID_00000145755789186239129790000017443096796021054905_" gradientUnits="userSpaceOnUse" x1="293.27" y1="111.2707" x2="293.27" y2="129.6072" gradientTransform="matrix(-0.9869 -0.1614 0.1614 -0.9869 706.0286 188.0585)">
					<stop  offset="0" style="stop-color:#45C900"/>
					<stop  offset="1" style="stop-color:#FF0000"/>
				</linearGradient>
				<path style="fill:url(#SVGID_00000145755789186239129790000017443096796021054905_);" d="M440.3,36.3c0,0-4.9-4-4.2-8
					s1-8.6,3.4-10.3c4.8-3.5,3.3-3.8,3.3-3.8L437,13l-4.9-0.4c0,0-1.5-0.2,1.9,4.6c1.7,2.5,0.5,6.4-0.2,10.6s-6.4,6.4-6.4,6.4"/>
				<path d="M440.1,36.3c-2-1.6-4-3.8-4.5-6.5c-0.2-1.3,0.2-2.6,0.3-3.9c0.4-2.5,0.7-5.5,2.6-7.4c1.4-1.3,3.2-2.3,3.9-3.8
					c-0.9-0.2-4.8-1-5.5-1.3c-0.7-0.1-4.2-0.3-4.9-0.4c-0.2,0,0,0,0,0l0,0c0.3,1.9,2.1,3.3,2.8,5.3c0.4,1.4,0.3,2.7,0.3,4
					c-0.3,1.8-0.6,3.8-1.1,5.6c-0.5,3.3-3.7,5.4-6.8,6.5c1.9-1.4,4.5-2.8,5.6-5.1c0.6-1,0.6-2.3,0.8-3.6c0.4-2.4,1-5.1,0.2-7.2
					c-0.7-1.6-2.3-3.2-2.8-5.1c-0.1-0.4,0-0.9,0.4-1.1c0.4-0.1,1.1,0,1.5,0.1l3.9,0.5l0,0l3.9,1c0.4,0.1,1.1,0.2,1.5,0.4
					c0.2,0,0.6,0.1,0.7,0.3c0.1,0.4,0.1,0.6,0.1,0.8c-1,1.5-2.7,2.5-4.1,3.8c-0.9,1-1.3,2.2-1.7,3.5c-0.6,2.5-1.2,5.2-1.2,7.6
					C436.4,32.3,438.5,34.5,440.1,36.3L440.1,36.3z"/>
			</g>
			
				<ellipse transform="matrix(0.1614 -0.9869 0.9869 0.1614 353.4429 442.8654)" class="st22" cx="437.3" cy="13.5" rx="1.1" ry="5.7"/>
			<g>
				
					<linearGradient id="SVGID_00000085973250726742060570000000894356945227511212_" gradientUnits="userSpaceOnUse" x1="336.7099" y1="74.2853" x2="346.8892" y2="74.2853" gradientTransform="matrix(-0.9869 -0.1614 0.1614 -0.9869 706.0286 188.0585)">
					<stop  offset="0" style="stop-color:#45C900"/>
					<stop  offset="1" style="stop-color:#FF0000"/>
				</linearGradient>
				<path style="fill:url(#SVGID_00000085973250726742060570000000894356945227511212_);" d="M396.8,55.7c0,0-4,4.8-8.1,4.1
					s-8.8-1.1-10.5-3.4c-3.6-4.7-3.9-3.2-3.9-3.2l-1.3,5.6l-0.4,4.8c0,0-0.2,1.5,4.7-1.8c2.6-1.6,6.6-0.4,10.9,0.3s6.6,6.3,6.6,6.3"
					/>
				<path d="M396.8,55.7c-1.7,2-3.9,3.8-6.6,4.3c-1.4,0.2-2.6-0.2-4-0.3c-2.6-0.4-5.6-0.7-7.6-2.6c-1.3-1.3-2.3-3.2-4-3.8
					c-0.1,0.9-1,4.7-1.3,5.4c-0.1,0.7-0.3,4.1-0.4,4.8c0,0.2,0,0,0,0l0,0c2-0.2,3.4-2.1,5.4-2.7c1.4-0.3,2.7-0.3,4.1-0.3
					c1.9,0.3,3.9,0.6,5.7,1.1c3.4,0.5,5.5,3.7,6.7,6.7c-1.4-1.9-2.9-4.4-5.2-5.5c-1.1-0.5-2.4-0.6-3.7-0.8c-2.4-0.4-5.2-1-7.4-0.3
					c-1.6,0.7-3.2,2.3-5.2,2.7c-0.4,0.1-1,0-1.1-0.4s0-1.1,0.1-1.5l0.4-3.8l0,0l1-3.8c0.1-0.4,0.2-1.1,0.4-1.4
					c0-0.2,0.1-0.5,0.3-0.7c0.4-0.1,0.6-0.1,0.8-0.1c1.6,1,2.6,2.7,3.9,4c1,0.9,2.3,1.3,3.5,1.7c2.6,0.6,5.3,1.2,7.8,1.3
					C392.7,59.3,395,57.2,396.8,55.7L396.8,55.7z"/>
			</g>
			
				<ellipse transform="matrix(0.1614 -0.9869 0.9869 0.1614 255.8181 417.5112)" class="st22" cx="373.6" cy="58.2" rx="5.5" ry="1.1"/>
			<g>
				
					<linearGradient id="SVGID_00000067928754402866872340000015069250073385431441_" gradientUnits="userSpaceOnUse" x1="251.2301" y1="74.6255" x2="237.5216" y2="74.6255" gradientTransform="matrix(-0.9869 -0.1614 0.1614 -0.9869 706.0286 188.0585)">
					<stop  offset="0" style="stop-color:#45C900"/>
					<stop  offset="1" style="stop-color:#FF0000"/>
				</linearGradient>
				<path style="fill:url(#SVGID_00000067928754402866872340000015069250073385431441_);" d="M460.5,78.8c0,0,4-4.8,8.1-4.1
					s8.8,1.1,10.5,3.4c3.6,4.7,3.9,3.2,3.9,3.2l1.3-5.6l0.4-4.8c0,0,0.2-1.5-4.7,1.8c-2.6,1.6-6.6,0.4-10.9-0.3
					c-4.3-0.7-6.6-6.3-6.6-6.3"/>
				<path d="M460.3,78.8c1.7-2,3.9-3.8,6.6-4.3c1.4-0.2,2.6,0.2,4,0.3c2.6,0.4,5.6,0.7,7.6,2.6c1.3,1.3,2.3,3.2,4,3.8
					c0.1-0.9,1-4.7,1.3-5.4c0.1-0.7,0.3-4.1,0.4-4.8c0-0.2,0,0,0,0l0,0c-2,0.2-3.4,2.1-5.4,2.7c-1.4,0.3-2.7,0.3-4.1,0.3
					c-1.9-0.3-3.9-0.6-5.7-1.1c-3.4-0.5-5.5-3.7-6.7-6.7c1.4,1.9,2.9,4.4,5.2,5.5c1.1,0.5,2.4,0.6,3.7,0.8c2.4,0.4,5.2,1,7.4,0.3
					c1.6-0.7,3.2-2.3,5.2-2.7c0.4-0.1,1,0,1.1,0.4s0,1.1-0.1,1.5l-0.4,3.8l0,0l-1,3.8c-0.1,0.4-0.2,1.1-0.4,1.4
					c0,0.2-0.1,0.5-0.3,0.7c-0.4,0.1-0.6,0.1-0.8,0.1c-1.6-1-2.6-2.7-3.9-4c-1-0.9-2.3-1.3-3.5-1.7c-2.6-0.6-5.3-1.2-7.8-1.3
					C464.4,75.1,462.1,77.2,460.3,78.8L460.3,78.8z"/>
			</g>
			
				<ellipse transform="matrix(0.1614 -0.9869 0.9869 0.1614 330.3927 541.2007)" class="st22" cx="483.6" cy="76.2" rx="5.5" ry="1.1"/>
			<g>
				
					<linearGradient id="SVGID_00000091718483198824577530000006920349938745305518_" gradientUnits="userSpaceOnUse" x1="273.0592" y1="54.5572" x2="265.0962" y2="45.9522" gradientTransform="matrix(-0.9869 -0.1614 0.1614 -0.9869 706.0286 188.0585)">
					<stop  offset="0" style="stop-color:#45C900"/>
					<stop  offset="1" style="stop-color:#FF0000"/>
				</linearGradient>
				<path style="fill:url(#SVGID_00000091718483198824577530000006920349938745305518_);" d="M439.2,89.7c0,0,4.7-0.5,6.6,2
					s3.9,5.1,3.8,7.3c-0.5,4.4,0.3,3.8,0.3,3.8l3.6-2.2l2.9-2.3c0,0,0.9-0.6-3.6-1.5c-2.2-0.4-3.7-3.2-5.6-5.8c-1.9-2.5,0-6.7,0-6.7
					"/>
				<path d="M439.2,89.7c1.9-0.1,4.2-0.1,5.9,1.2c0.8,0.7,1.3,1.5,1.9,2.2c1.3,1.7,2.5,3.2,2.8,5.3c0,1.3-0.3,2.9-0.1,3.9
					c0,0-0.2,0,0,0c0.6-0.5,3.2-1.9,3.6-2.2s2.4-2,2.7-2.4l0,0v0.2c-1.2-0.8-2.8-0.6-4.2-1.2c-1.1-0.5-1.7-1.2-2.3-2.1
					c-1.1-1.5-2.5-3.4-3.2-5c-0.4-1.9-0.1-4.3,0.7-5.7c-0.5,1.8-0.8,3.8-0.1,5.4c1.2,2.1,3.2,5,5.3,6.3c0.7,0.5,6,0.8,4.4,2.6
					c-0.4,0.3-2.4,1.8-2.9,2.3l-2.5,1.5c-0.2,0.2-0.8,0.4-1.1,0.6c-1.1,0.8-1.2-0.8-1.3-1.5c0-0.9,0.1-2,0.3-2.9
					c-0.1-1.9-1.5-3.6-2.6-5.1c-0.6-0.8-1.1-1.7-1.9-2.4C443.4,89.8,440.9,89.8,439.2,89.7L439.2,89.7z"/>
			</g>
			
				<ellipse transform="matrix(0.8195 -0.5731 0.5731 0.8195 24.2964 277.7032)" class="st27" cx="453" cy="100.3" rx="4.3" ry="0.7"/>
			<g>
				
					<linearGradient id="SVGID_00000176729958270192058450000014780785637299679618_" gradientUnits="userSpaceOnUse" x1="315.6948" y1="52.5384" x2="322.0932" y2="44.3484" gradientTransform="matrix(-0.9869 -0.1614 0.1614 -0.9869 706.0286 188.0585)">
					<stop  offset="0" style="stop-color:#45C900"/>
					<stop  offset="1" style="stop-color:#FF0000"/>
				</linearGradient>
				<path style="fill:url(#SVGID_00000176729958270192058450000014780785637299679618_);" d="M405.6,77.5c0,0,0.6,4.6-2,6.4
					s-5.2,3.8-7.5,3.6c-4.5-0.5-3.9,0.3-3.9,0.3l2.3,3.5l2.4,2.8c0,0,0.6,0.8,1.5-3.5c0.4-2.2,3.3-3.6,5.9-5.4s6.9,0,6.9,0"/>
				<path d="M405.8,77.5c0.1,1.9,0.1,4.1-1.1,5.8c-0.7,0.8-1.5,1.2-2.2,1.9c-1.7,1.2-3.3,2.5-5.4,2.7c-1.3,0-3-0.3-4-0.1
					c0,0,0-0.2,0,0c0.5,0.6,2,3.1,2.3,3.5s2.1,2.4,2.4,2.6l0,0h-0.2c0.8-1.2,0.6-2.7,1.2-4.1c0.6-1,1.2-1.7,2.1-2.3
					c1.5-1.1,3.5-2.4,5.1-3.1c2-0.4,4.4,0,5.8,0.8c-1.8-0.5-3.9-0.8-5.5-0.2c-2.1,1.1-5.1,3.1-6.4,5.1c-0.5,0.7-0.8,5.8-2.6,4.2
					c-0.3-0.4-1.9-2.4-2.4-2.8l-1.5-2.5c-0.2-0.2-0.4-0.8-0.6-1c-0.8-1.1,0.8-1.2,1.5-1.2c1,0,2.1,0.2,3,0.3
					c1.9-0.1,3.7-1.5,5.2-2.5c0.9-0.6,1.7-1,2.4-1.8C405.6,81.6,405.6,79.1,405.8,77.5L405.8,77.5z"/>
			</g>
			
				<ellipse transform="matrix(0.8043 -0.5942 0.5942 0.8043 23.3727 252.5462)" class="st29" cx="395.1" cy="90.8" rx="0.7" ry="4.3"/>
			<g>
				
					<linearGradient id="SVGID_00000182492500176945869250000017604721514113196967_" gradientUnits="userSpaceOnUse" x1="273.7033" y1="93.6016" x2="264.1678" y2="103.0082" gradientTransform="matrix(-0.9869 -0.1614 0.1614 -0.9869 706.0286 188.0585)">
					<stop  offset="0" style="stop-color:#45C900"/>
					<stop  offset="1" style="stop-color:#FF0000"/>
				</linearGradient>
				<path style="fill:url(#SVGID_00000182492500176945869250000017604721514113196967_);" d="M451.5,57c0,0-0.6-4.6,2-6.4
					c2.6-1.8,5.2-3.8,7.5-3.6c4.5,0.5,3.9-0.3,3.9-0.3l-2.3-3.5l-2.4-2.8c0,0-0.6-0.8-1.5,3.5c-0.4,2.2-3.3,3.6-5.9,5.4
					c-2.6,1.8-6.9,0-6.9,0"/>
				<path d="M451.5,57c-0.1-1.9-0.1-4.1,1.1-5.8c0.7-0.8,1.5-1.2,2.2-1.9c1.7-1.2,3.3-2.5,5.4-2.7c1.3,0,3,0.3,4,0.1c0,0,0,0.2,0,0
					c-0.5-0.6-2-3.1-2.3-3.5s-2.1-2.4-2.4-2.6l0,0h0.2c-0.8,1.2-0.6,2.7-1.2,4.1c-0.6,1-1.2,1.7-2.1,2.3c-1.5,1.1-3.5,2.4-5.1,3.1
					c-2,0.4-4.4,0-5.8-0.8c1.8,0.5,3.9,0.8,5.5,0.2c2.1-1.1,5.1-3.1,6.4-5.1c0.5-0.7,0.8-5.8,2.6-4.2c0.3,0.4,1.9,2.4,2.4,2.8
					l1.5,2.5c0.2,0.2,0.4,0.8,0.6,1c0.8,1.1-0.8,1.2-1.5,1.2c-1,0-2.1-0.2-3-0.3c-1.9,0.1-3.7,1.5-5.2,2.5c-0.9,0.6-1.7,1-2.4,1.8
					C451.5,52.9,451.5,55.3,451.5,57L451.5,57z"/>
			</g>
			
				<ellipse transform="matrix(0.8043 -0.5942 0.5942 0.8043 64.5127 283.1732)" class="st29" cx="462.2" cy="43.6" rx="0.7" ry="4.3"/>
			<g>
				
					<linearGradient id="SVGID_00000026844147718373317870000016359622266599889313_" gradientUnits="userSpaceOnUse" x1="321.204" y1="86.4977" x2="331.4439" y2="91.5528" gradientTransform="matrix(-0.9869 -0.1614 0.1614 -0.9869 706.0286 188.0585)">
					<stop  offset="0" style="stop-color:#45C900"/>
					<stop  offset="1" style="stop-color:#FF0000"/>
				</linearGradient>
				<path style="fill:url(#SVGID_00000026844147718373317870000016359622266599889313_);" d="M410.3,50.1c0,0-4.2,2.1-6.8,0.4
					c-2.6-1.7-5.6-3.3-6.2-5.5c-1-4.3-1.8-3.3-1.8-3.3L393,45l-1.7,3.3c0,0-0.5,0.8,3.8,0.1c2.2-0.4,4.7,1.7,7.5,3.5
					s2.6,6.2,2.6,6.2"/>
				<path d="M410.3,50.1c-1.9,0.8-3.9,1.4-5.9,0.9c-2.6-1.4-5.7-2.8-7.1-5.5c-0.6-1.2-0.7-2.7-1.5-3.8l0,0c-0.5,0.7-2.2,3-2.5,3.3
					c-0.3,0.5-1.4,2.8-1.7,3.1c0,0.2,0,0,0,0v-0.2c1.5,0.2,2.7-0.3,4.4-0.2c1.1,0.2,2,0.5,2.9,1c1.6,1,3.7,2.1,4.8,3.4
					c1.1,1.5,1.7,3.8,1.4,5.6c-0.1-1.9-0.7-3.8-1.8-5.2c-2.1-1.5-4.8-3.4-7.2-4c-0.9-0.2-5.8,1.3-5-0.8c0.2-0.3,1.6-2.5,1.8-3.1
					c0,0,1.7-2.3,1.9-2.3c0.2-0.2,0.5-0.7,0.7-0.8c0.7-1,1.5,0.2,1.7,1c0.4,1,0.6,2,0.9,2.8c0.9,1.6,2.6,2.8,4.3,3.9
					c0.9,0.5,1.7,1.2,2.6,1.5C406.5,51.5,408.7,50.5,410.3,50.1L410.3,50.1z"/>
			</g>
			
				<ellipse transform="matrix(0.5505 -0.8348 0.8348 0.5505 139.2396 348.8426)" class="st32" cx="393.6" cy="45.1" rx="4.3" ry="0.8"/>
			<g>
				
					<linearGradient id="SVGID_00000145028107596882435050000004030156790455411358_" gradientUnits="userSpaceOnUse" x1="311.1867" y1="38.3796" x2="316.5524" y2="28.1594" gradientTransform="matrix(-0.9869 -0.1614 0.1614 -0.9869 706.0286 188.0585)">
					<stop  offset="0" style="stop-color:#45C900"/>
					<stop  offset="1" style="stop-color:#FF0000"/>
				</linearGradient>
				<path style="fill:url(#SVGID_00000145028107596882435050000004030156790455411358_);" d="M405.4,91.6c0,0,1.6,4.4-0.3,6.7
					s-6.3,8.3-8.5,8.5c-4.5,0.4-3.6,1.1-3.6,1.1l3.2,2.9l3.1,2.2c0,0,0.8,0.7,0.6-3.6c-0.2-2.3,4.5-7.7,6.6-9.9
					c2.1-2.5,6.6-1.7,6.6-1.7"/>
				<path d="M405.4,91.6c0.8,2.2,1.1,4.7-0.1,6.7c-1.4,1.8-2.7,3.7-4.3,5.4c-1.4,1.8-3.3,3.8-5.8,3.7c-0.6,0.1-1.4,0.2-2,0.6
					c0,0.2,0,0,0,0c0.3,0.2,3,2.7,3.2,2.9l2.7,1.9c0,0,0.3,0.2,0.2,0.2c-0.2,0-0.2,0-0.2,0c0.3-0.9,0.1-2,0.1-3.2
					c0-0.9,0.3-1.8,0.8-2.7c1.6-2.9,4-5.5,6.3-7.9c1.8-1.6,4.7-1.8,6.7-1.3c-2.1-0.2-4.6,0.2-6.2,1.6c-1.4,1.6-2.9,3.5-4.1,5.3
					c-1.2,1.7-2.7,3.5-2.5,5.8c0,0.9,0.1,4.1-1.6,2.9l-2.7-1.9l-2.5-2.5l-0.7-0.7c-0.3-0.4,0.1-0.9,0.6-1c1-0.4,2.4-0.4,3.6-0.7
					c1.6-0.5,2.6-2,3.8-3.1c1.9-2.5,5.4-4.9,5.4-8.4C406.1,93.6,405.5,92.2,405.4,91.6L405.4,91.6z"/>
			</g>
			
				<ellipse transform="matrix(0.6338 -0.7735 0.7735 0.6338 59.6666 346.931)" class="st17" cx="396.2" cy="110.5" rx="0.7" ry="4.3"/>
			<g>
				
					<linearGradient id="SVGID_00000052087872357637933620000003830554154758472074_" gradientUnits="userSpaceOnUse" x1="274.5562" y1="38.5773" x2="269.0627" y2="28.2289" gradientTransform="matrix(-0.9869 -0.1614 0.1614 -0.9869 706.0286 188.0585)">
					<stop  offset="0" style="stop-color:#45C900"/>
					<stop  offset="1" style="stop-color:#FF0000"/>
				</linearGradient>
				<path style="fill:url(#SVGID_00000052087872357637933620000003830554154758472074_);" d="M443.6,97.9c0,0-2.9,3.6-1.8,6.4
					s3.4,9.9,5.3,10.8c4.1,1.8,3.1,2.2,3.1,2.2l-3.9,1.8l-3.6,1.1c0,0-1,0.4,0.6-3.6c1.1-1.9-1.7-8.5-2.9-11.5
					c-1.2-3-5.7-3.7-5.7-3.7"/>
				<path d="M443.6,97.9c-1.2,1.7-2.4,4.1-1.8,6.2c1.5,3.6,2.3,7.8,5.2,10.5c0.7,0.5,4.5,1.9,3.3,3c-0.6,0.3-3.3,1.5-4,2l-3.2,1
					c-0.2,0-0.2,0.2-0.8,0.1c-0.5-0.3-0.5-0.6-0.5-0.6c0-2.1,1.5-3.5,0.9-5.6c-0.6-3.3-1.8-6.5-3-9.5c-0.8-2-3.6-2.8-5.3-3.7
					c2.2,0.4,4.6,1.3,5.9,3.4c1.4,3,2.6,6.2,3.4,9.5c0.1,0.8,0.3,1.9-0.1,2.8c-0.3,0.9-0.9,1.9-0.9,3c0,0.2,0.2,0.2-0.2,0
					c-0.4-0.1,0,0,0.2-0.2l3.2-1c-0.2,0.2,3.1-1.4,3.1-1.4l0.8-0.2c0,0,0,0.2,0,0c-0.8-0.9-2.1-1.3-3.1-2c-1.3-1.2-2-2.9-2.7-4.5
					c-0.8-2.2-1.6-4.4-2.4-6.5C441,101.9,442.2,99.3,443.6,97.9L443.6,97.9z"/>
			</g>
			
				<ellipse transform="matrix(0.9351 -0.3543 0.3543 0.9351 -13.0621 165.8873)" class="st35" cx="446.5" cy="118.6" rx="4.3" ry="0.7"/>
			<g>
				
					<linearGradient id="SVGID_00000147211783253543102390000011955830159509481871_" gradientUnits="userSpaceOnUse" x1="256.2219" y1="58.0242" x2="244.1807" y2="53.3493" gradientTransform="matrix(-0.9869 -0.1614 0.1614 -0.9869 706.0286 188.0585)">
					<stop  offset="0" style="stop-color:#45C900"/>
					<stop  offset="1" style="stop-color:#FF0000"/>
				</linearGradient>
				<path style="fill:url(#SVGID_00000147211783253543102390000011955830159509481871_);" d="M460.4,79.7c-0.3,0.5,0,1.3,0,2.6
					c0,1.1,0.4,4.5,2.7,5.8c2.8,1.6,8.8,5.7,11.2,5.2c4.4-1,3.8-0.1,3.8-0.1l-2,3.8l-2,3c0,0-0.5,0.8-1.9-3.3
					c-0.6-2.2-6.9-5.6-9.7-7.2c-2.3-1.3-5.3-0.1-6.4,0.4c-0.2,0.2-3.8,2-3.8,2"/>
				<path d="M460.4,79.7c-0.2,2.4-0.1,5,1.5,7.1c0.6,1,1.9,1.4,3.1,2.2l3.3,1.9c2,0.9,3.8,2.3,5.9,2.3c1.4-0.2,2.6-0.7,3.9-0.5
					c0.7,0.3,0.3,0.8,0,1.3l-1.5,3.3l0,0c-0.5,0.8-1.5,2.2-2,3c-1.4,1.5-2.5-2.5-2.7-3.2c-1-2-3.7-3.4-5.6-4.6
					c-2.1-1.1-4.2-3.3-6.8-3c-2.3,0-5.1,1.8-7.1,2.7c2.8-1.8,7.3-4.8,10.9-2.5c3.3,2,7.4,3.6,9.4,7.1c0.2,1,0.8,2.4,1.2,3l-0.2,0.2
					c0.2-0.3,0.7-1,1-1.3c0,0,1.2-1.7,1-1.5l1.7-3.3l0.2-0.3c0-0.2,0,0,0,0l0,0c-1.1-0.2-2.5,0.1-3.5,0.4c-2.3,0-4.4-1.5-6.3-2.3
					l-3.3-2c-1-0.7-2.3-1.1-3.1-2.4C460.3,84.9,460,81.9,460.4,79.7L460.4,79.7z"/>
			</g>
			
				<ellipse transform="matrix(0.5026 -0.8645 0.8645 0.5026 153.1356 459.3763)" class="st35" cx="475.8" cy="96.6" rx="4.2" ry="0.8"/>
			<g>
				
					<linearGradient id="SVGID_00000031895693837522308170000000345954059726031004_" gradientUnits="userSpaceOnUse" x1="331.2828" y1="57.7012" x2="343.3372" y2="52.2571" gradientTransform="matrix(-0.9869 -0.1614 0.1614 -0.9869 706.0286 188.0585)">
					<stop  offset="0" style="stop-color:#45C900"/>
					<stop  offset="1" style="stop-color:#FF0000"/>
				</linearGradient>
				<path style="fill:url(#SVGID_00000031895693837522308170000000345954059726031004_);" d="M395.6,71.3c0,0-1.5,4.4-4.6,4.8
					c-3.2,0.6-10.2,2.6-12.3,1.4c-3.8-2.3-3.6-1.3-3.6-1.3l0.6,4.2l1,3.5c0,0,0.2,1,2.9-2.5c1.3-1.8,8.3-3.1,11.5-3.7
					s6.3,2.7,6.3,2.7"/>
				<path d="M395.6,71.3c-0.7,2.1-2,4.3-4.5,5.1c-2.2,0.6-4.6,1.1-6.7,1.5c-2.4,0.4-4.9,0.9-7-0.8c-0.5-0.3-1.2-0.8-1.8-0.7
					c-0.2,0,0,0,0-0.2c0.1,0.4,0.5,4,0.6,4.2l1,3.2c0,0.2,0.1,0.4,0,0.2c-0.2,0-0.2,0,0,0c0.9-0.6,1.4-1.6,2.1-2.3
					c0.5-0.7,1.5-1.2,2.3-1.5c3.3-1.3,6.6-1.9,10-2.5c2.3-0.2,4.9,1.5,6,3c-1.7-1.4-3.8-2.7-5.9-2.5c-2.2,0.4-4.4,1-6.6,1.5
					c-2,0.6-4.4,1.1-5.7,3c-0.5,0.7-2.5,3.3-3.1,1.4c0,0-0.8-3.1-0.8-3.3l-0.4-3.4c-0.1-0.6-0.4-1.4,0.6-1.4
					c1.3,0.2,2.5,1.2,3.7,1.7c1.6,0.5,3.4,0.2,5-0.1c2.4-0.4,4.6-0.9,6.9-1.3C393.3,75.6,394.5,73,395.6,71.3L395.6,71.3z"/>
			</g>
			<ellipse transform="matrix(0.9796 -0.201 0.201 0.9796 -8.466 77.2355)" class="st17" cx="376.1" cy="80.3" rx="0.8" ry="4.2"/>
			<g>
				
					<linearGradient id="SVGID_00000035522562213912881870000010031579181683313574_" gradientUnits="userSpaceOnUse" x1="256.7373" y1="92.0924" x2="245.0744" y2="97.7942" gradientTransform="matrix(-0.9869 -0.1614 0.1614 -0.9869 706.0286 188.0585)">
					<stop  offset="0" style="stop-color:#45C900"/>
					<stop  offset="1" style="stop-color:#FF0000"/>
				</linearGradient>
				<path style="fill:url(#SVGID_00000035522562213912881870000010031579181683313574_);" d="M461.3,62.5c0,0,1.1-4.5,4.1-5.3
					s9.9-3.4,12.1-2.5c3.9,1.9,3.7,1,3.7,1l-0.9-4.1l-1.4-3.4c0,0-0.4-1-2.6,2.8c-1.1,1.9-8.1,3.9-11.1,4.7s-6.5-2.2-6.5-2.2"/>
				<path d="M461.3,62.5c0.5-2.2,1.7-4.6,3.9-5.3c2.2-0.8,4.5-1.5,6.7-2.1s4.8-1.3,6.9,0c0.7,0.3,1.2,0.6,2,0.5c0.2,0,0,0,0,0.2
					c-0.1-0.4-0.9-3.9-1.1-4.1l-1.2-3.2c0-0.2-0.1-0.4,0-0.2c0.2,0,0.2,0,0,0c-0.7,0.6-1.2,1.7-1.9,2.5c-0.5,0.8-1.4,1.3-2.2,1.7
					c-3.1,1.5-6.3,2.5-9.7,3.3c-2.4,0.4-5-1-6.3-2.5c1.7,1.2,4,2.3,6.2,1.9c2.2-0.6,4.2-1.4,6.5-2.1c2-0.8,4.2-1.4,5.3-3.4
					c0.5-0.8,2.3-3.5,2.9-1.6l1.2,3.2l0.8,3.3c0.1,0.6,0.5,1.4-0.4,1.4c-1.3,0-2.5-1-3.8-1.4c-1.6-0.5-3.5,0.2-5.1,0.5
					c-2.2,0.6-4.4,1.3-6.6,1.9C463,57.9,462.1,60.8,461.3,62.5L461.3,62.5z"/>
			</g>
			
				<ellipse transform="matrix(0.9578 -0.2875 0.2875 0.9578 5.3364 140.1331)" class="st17" cx="479.8" cy="51.9" rx="0.8" ry="4.3"/>
			<g>
				
					<linearGradient id="SVGID_00000160877770253610359420000003200765527691374482_" gradientUnits="userSpaceOnUse" x1="322.6376" y1="99.1536" x2="334.1353" y2="107.0342" gradientTransform="matrix(-0.9869 -0.1614 0.1614 -0.9869 706.0286 188.0585)">
					<stop  offset="0" style="stop-color:#45C900"/>
					<stop  offset="1" style="stop-color:#FF0000"/>
				</linearGradient>
				<path style="fill:url(#SVGID_00000160877770253610359420000003200765527691374482_);" d="M405.7,46.5c0,0,0.9-4.5-1.6-6.6
					c-2.3-2.1-7.6-7.2-9.9-7.2c-4.4,0.2-3.7-0.6-3.7-0.6l2.6-3.3l2.5-2.6c0,0,0.7-0.8,1.1,3.5c0.2,2.1,5.8,6.7,8.3,8.8
					c2.5,2.1,6.8,0.7,6.8,0.7"/>
				<path d="M405.6,46.5c0.4-2.2,0.2-4.8-1.4-6.4c-1.9-1.4-3.5-3-5.4-4.4c-1.4-1-2.7-2.1-4.4-2.6c-1.1,0-2.3,0.2-3.6-0.2
					c-0.4-0.1-1.1-0.4-0.8-0.9l0.5-0.7l2-2.8l0,0l2.3-2.4c1.4-1.5,1.8,1.6,2.1,2.6c0,2.2,1.9,3.7,3.4,5.2s3.3,3.2,5,4.5
					s4.4,0.9,6.4,0.9c-2.2,0.6-4.6,1.1-6.8-0.4c-2.7-2.1-5.4-4.2-7.5-7c-0.5-0.6-1.1-1.5-1.1-2.4c-0.2-1-0.2-2.1-0.6-3.1
					c0,0-0.2,0,0,0c0.2-0.2,0,0,0,0.2l-2.5,2.4c0.2-0.2-2.2,2.6-2.2,2.6l-0.5,0.7c0-0.2,0-0.2,0-0.2c1.3,0.4,2.5,0.2,3.8,0.2
					c1.8,0.5,3.2,1.6,4.5,2.8c1.9,1.4,3.5,3.2,5.2,4.6C406,41.5,406.3,44.5,405.6,46.5L405.6,46.5z"/>
			</g>
			
				<ellipse transform="matrix(0.6583 -0.7527 0.7527 0.6583 112.3232 306.0408)" class="st40" cx="393.3" cy="29.3" rx="4.3" ry="0.7"/>
			<g>
				
					<linearGradient id="SVGID_00000102516256552452666490000014001037348738649017_" gradientUnits="userSpaceOnUse" x1="309.7006" y1="106.7331" x2="317.3656" y2="121.5518" gradientTransform="matrix(-0.9869 -0.1614 0.1614 -0.9869 706.0286 188.0585)">
					<stop  offset="0" style="stop-color:#45C900"/>
					<stop  offset="1" style="stop-color:#FF0000"/>
				</linearGradient>
				<path style="fill:url(#SVGID_00000102516256552452666490000014001037348738649017_);" d="M414.3,37.6c0,0,2.9-3.6,1.8-6.4
					s-3.4-9.9-5.3-10.8c-4.1-1.8-3.1-2.2-3.1-2.2l3.9-1.8l3.6-1.1c0,0,1-0.4-0.6,3.6c-0.9,2.1,1.8,8.7,3.1,11.5
					c1.2,3,5.7,3.7,5.7,3.7"/>
				<path d="M414.3,37.6c1.2-1.7,2.4-4.1,1.8-6.2c-1.5-3.6-2.3-7.8-5.2-10.5c-0.7-0.5-4.5-1.9-3.3-3c0.6-0.3,3.3-1.5,4-2l3.2-1
					c2.2-0.8,0.6,3.1,0.3,4c-0.3,0.7-0.2,1.5,0,2.2c0.6,3.3,1.8,6.5,3,9.5c1,2,3.3,3,5.4,3.5c-2.1-0.2-4.8-1.3-5.9-3.4
					c-1.5-3.6-3.4-7.3-3.5-11.4c0.1-0.5,0.4-1.2,0.5-1.8c0.3-0.7,0.6-1.4,0.5-2.2c0-0.2-0.2-0.2,0.2,0c0.4,0.1,0,0-0.2,0.2
					c0,0-3.4,0.9-3.2,1c-0.6,0.3-3.5,1.5-3.9,1.8c0,0,0-0.2,0,0c0.5,0.5,1,0.7,1.7,1.2c2.4,0.8,3.5,3.2,4.3,5.4s1.6,4.4,2.4,6.5
					C416.9,33.4,415.6,36.2,414.3,37.6L414.3,37.6z"/>
			</g>
			
				<ellipse transform="matrix(0.9351 -0.3543 0.3543 0.9351 20.746 146.9155)" class="st35" cx="411.6" cy="16.8" rx="4.3" ry="0.7"/>
			<g>
				
					<linearGradient id="SVGID_00000107572747058318100230000007804926532145911953_" gradientUnits="userSpaceOnUse" x1="275.5885" y1="107.5251" x2="266.4678" y2="122.5549" gradientTransform="matrix(-0.9869 -0.1614 0.1614 -0.9869 706.0286 188.0585)">
					<stop  offset="0" style="stop-color:#45C900"/>
					<stop  offset="1" style="stop-color:#FF0000"/>
				</linearGradient>
				<path style="fill:url(#SVGID_00000107572747058318100230000007804926532145911953_);" d="M452.4,43.9c0,0-1.6-4.4,0.3-6.7
					s6.3-8.3,8.5-8.5c4.5-0.4,3.6-1.1,3.6-1.1l-3.2-2.9l-3.1-2.2c0,0-0.8-0.7-0.6,3.6c0.2,2.3-4.5,7.7-6.6,9.9
					c-2.1,2.5-6.6,1.7-6.6,1.7"/>
				<path d="M452.4,43.9c-0.8-2.2-1.1-4.7,0.1-6.7c1.4-1.8,2.7-3.7,4.3-5.4c1.4-1.8,3.3-3.8,5.8-3.7c0.6-0.1,1.4-0.2,2-0.6
					c0-0.2,0,0,0,0c-0.3-0.2-3-2.7-3.2-2.9l-2.7-1.9c0,0-0.3-0.2-0.2-0.2c0.2,0,0.2,0,0.2,0c-0.3,0.9-0.1,2-0.1,3.2
					c0,0.9-0.3,1.8-0.8,2.7c-1.6,2.9-4,5.5-6.3,7.9c-1.8,1.6-4.7,1.8-6.7,1.3c2.1,0.2,4.6-0.2,6.2-1.6c1.4-1.6,2.9-3.5,4.1-5.3
					c1.2-1.7,2.7-3.5,2.5-5.8c0-0.9-0.1-4.1,1.6-2.9l2.7,1.9l2.5,2.5l0.7,0.7c0.3,0.4-0.1,0.9-0.6,1c-1,0.4-2.4,0.4-3.6,0.7
					c-1.6,0.5-2.6,2-3.8,3.1c-1.9,2.5-5.4,4.9-5.4,8.4C451.8,41.7,452.6,43.2,452.4,43.9L452.4,43.9z"/>
			</g>
			
				<ellipse transform="matrix(0.6338 -0.7735 0.7735 0.6338 149.8221 366.4494)" class="st17" cx="461.9" cy="25" rx="0.7" ry="4.3"/>
		</g>
	</g>
</g>
<rect x="371.6" y="50.8" class="st1" width="17.8" height="20.8"/>
<linearGradient id="SVGID_00000052076598446928210370000006037408562031597726_" gradientUnits="userSpaceOnUse" x1="347.2197" y1="41.2667" x2="392.7284" y2="105.4122" gradientTransform="matrix(1 0 0 -1 0 140)">
	<stop  offset="0" style="stop-color:#4A0077"/>
	<stop  offset="9.705108e-02" style="stop-color:#630097"/>
	<stop  offset="0.2283" style="stop-color:#8000BD"/>
	<stop  offset="0.3597" style="stop-color:#9700DA"/>
	<stop  offset="0.4897" style="stop-color:#A700EE"/>
	<stop  offset="0.6175" style="stop-color:#B100FB"/>
	<stop  offset="0.7406" style="stop-color:#B400FF"/>
</linearGradient>
<path style="fill:url(#SVGID_00000052076598446928210370000006037408562031597726_);stroke:#000000;stroke-width:1.337;stroke-linecap:round;stroke-linejoin:round;" d="
	M406.9,47.7c0.3,9-3.2,16.7-10.2,21.9c-1.6,1.2-2,3.4-1,5.1c2.2,3.8,5.8,10.3,8.2,14.7c1.3,2.4-0.1,5.4-2.7,5.9l-15.3,3
	c-2,0.4-3.9-0.7-4.6-2.6l-6.1-16.9c-0.6-1.6-2.2-2.7-3.9-2.7l0,0c-2.1,0.1-3.8,1.7-3.9,3.9l-0.6,14.8c-0.1,2.2-1.9,3.9-4,3.9h-15.1
	c-2.3,0-4.1-1.9-4-4.1c0.5-22.2,0.8-44.2,1.5-66.4c0.1-1.7,1.2-3.2,2.8-3.7C369.9,17.2,406.4,18,406.9,47.7z M382.9,49.5
	c0.5-6.2-4.4-10.3-9.9-10.4c-2.1,0-3.9,1.7-4,3.9c-0.1,3.3-0.4,8.5-0.5,12.3c-0.1,2.6,2.3,4.7,4.8,4.1
	C378.3,58.2,383,55.1,382.9,49.5z"/>
<path class="st4" d="M363,76.9c-1.5,0-2.6,1.2-2.7,2.7l-0.6,14.6c-0.1,1.4,1.1,2.6,2.5,2.5c1.5,0,2.7-1.2,2.8-2.7l0.6-15.3
	C365.2,77.6,364.1,76.9,363,76.9z"/>
<path class="st4" d="M393.3,73.4c-0.9-1.6-0.5-3.7,1-4.8c21.8-21,4.2-46.8-23.4-45c-1.2,0-1.4,1.8-0.2,2
	c24.3,3.9,35.9,27.9,16.2,48.4c-4.3,4.4,3.7,11.1,5.5,16.5c1.2,2.2,3.8,2.6,6,1.9C406.7,89.5,394.4,77.9,393.3,73.4z"/>
<path class="st4" d="M366.5,57.8c0.1-1.7,0.3-10.4,0.6-14.6c-0.4-2,3.8-6.8,0.2-6.5c-7.7,3.1-4.1,18.4-5.5,25.1
	c-0.4,6.2,9.3,1.2,5.7-2.3C366.9,59.1,366.4,58.5,366.5,57.8z"/>
</svg>
