<?xml version="1.0" encoding="utf-8"?>
<!-- Generator: Adobe Illustrator 26.1.0, SVG Export Plug-In . SVG Version: 6.00 Build 0)  -->
<svg version="1.1" id="Layer_1" xmlns="http://www.w3.org/2000/svg" xmlns:xlink="http://www.w3.org/1999/xlink" x="0px" y="0px"
	 viewBox="0 0 680 60" style="enable-background:new 0 0 680 60;" xml:space="preserve">
<style type="text/css">
	.st0{opacity:0.8;fill:url(#SVGID_1_);enable-background:new    ;}
	.st1{opacity:0.21;fill:url(#SVGID_00000008145203315017359940000004314598096369668516_);enable-background:new    ;}
	.st2{fill:#D6DADE;}
	.st3{opacity:0.4;fill:#FFFFFF;enable-background:new    ;}
	.st4{opacity:0.85;fill:url(#SVGID_00000052081052242721825890000005538386177708108990_);enable-background:new    ;}
</style>
<linearGradient id="SVGID_1_" gradientUnits="userSpaceOnUse" x1="380.1" y1="5.1462" x2="380.1" y2="51.6439">
	<stop  offset="0" style="stop-color:#ECECEC"/>
	<stop  offset="0.2061" style="stop-color:#E9E9E9"/>
	<stop  offset="0.3747" style="stop-color:#DFDFDF"/>
	<stop  offset="0.5301" style="stop-color:#CECDCD"/>
	<stop  offset="0.6767" style="stop-color:#B6B6B6"/>
	<stop  offset="0.8173" style="stop-color:#989797"/>
	<stop  offset="0.8208" style="stop-color:#979696"/>
</linearGradient>
<path class="st0" d="M614.2,1h-4.1c-0.9,0-1.6,0.8-1.6,1.8v2.8H168.6c-4,0-7.2,3.7-7.2,8.3v9.5h-11.3c-3.2,0-5.7,2.9-5.7,6.5
	s2.6,6.5,5.7,6.5h11.3v9.5c0,4.6,3.2,8.3,7.2,8.3h439.9V57c0,1,0.7,1.8,1.6,1.8h4.1c0.9,0,1.6-0.8,1.6-1.8V2.9
	C615.8,1.8,615.1,1,614.2,1z"/>
<linearGradient id="SVGID_00000039844048596361205600000016505101600397106352_" gradientUnits="userSpaceOnUse" x1="385.9" y1="13.4714" x2="385.9" y2="44.608" gradientTransform="matrix(1 0 0 -1 0 60)">
	<stop  offset="0" style="stop-color:#ECECEC"/>
	<stop  offset="0.2061" style="stop-color:#E9E9E9"/>
	<stop  offset="0.9663" style="stop-color:#B6B6B6"/>
</linearGradient>
<path style="opacity:0.21;fill:url(#SVGID_00000039844048596361205600000016505101600397106352_);enable-background:new    ;" d="
	M606,49.3H168.8c-1.7,0.1-3-1.3-3-3V13.7c0-1.7,1.4-3.1,3.1-3.1H606V49.3z"/>
<path class="st2" d="M144.5,29.9c0-0.3,0-0.5,0-0.7H21.8c-0.4,0-0.7,0.4-0.7,0.8s0.3,0.8,0.7,0.8h122.7
	C144.5,30.5,144.5,30.2,144.5,29.9z"/>
<path class="st3" d="M161.6,30h-11c-1.3,0-2.3-1-2.3-2.3v-0.3c0-1.3,1-2.3,2.3-2.3h11V30z"/>
<linearGradient id="SVGID_00000113311103522132427770000001451376841641777821_" gradientUnits="userSpaceOnUse" x1="643.75" y1="-38.8538" x2="643.75" y2="7.6439" gradientTransform="matrix(1 0 0 1 0 44)">
	<stop  offset="0" style="stop-color:#ECECEC"/>
	<stop  offset="0.2061" style="stop-color:#E9E9E9"/>
	<stop  offset="0.3747" style="stop-color:#DFDFDF"/>
	<stop  offset="0.5301" style="stop-color:#CECDCD"/>
	<stop  offset="0.6767" style="stop-color:#B6B6B6"/>
	<stop  offset="0.8173" style="stop-color:#989797"/>
	<stop  offset="0.8208" style="stop-color:#979696"/>
</linearGradient>
<path style="opacity:0.85;fill:url(#SVGID_00000113311103522132427770000001451376841641777821_);enable-background:new    ;" d="
	M668.2,12.5h-0.4c-1.9,0-3.5,1.8-3.5,4v6h-13l0,0c0-5.5-3.9-9.9-8.7-9.9h-26.8v35h26.8c4.8,0,8.7-4.4,8.7-9.9l0,0h13v6
	c0,2.2,1.5,4,3.5,4h0.4c1.9,0,3.5-1.8,3.5-4V16.4C671.6,14.3,670.1,12.5,668.2,12.5z"/>
<path class="st3" d="M653.2,24.7h-1.9c-1.4,0-2.5-1.3-2.5-2.9v-0.1c0-3.8-1.4-6.9-6-6.9h-27v2.9h27.5c2.4,0,4.3,1.3,4.3,4.9v2
	c0,1.7,1.2,3,2.6,3h1.7h12.5v-2.9H653.2z"/>
</svg>
